<?xml version="1.0" encoding="utf-8"?>
<!-- Generator: Adobe Illustrator 16.0.0, SVG Export Plug-In . SVG Version: 6.00 Build 0)  -->
<!DOCTYPE svg PUBLIC "-//W3C//DTD SVG 1.1//EN" "http://www.w3.org/Graphics/SVG/1.1/DTD/svg11.dtd">
<svg version="1.1" id="Layer_1" xmlns="http://www.w3.org/2000/svg" xmlns:xlink="http://www.w3.org/1999/xlink" x="0px" y="0px"
	 width="217.557px" height="68.703px" viewBox="0 0 217.557 68.703" enable-background="new 0 0 217.557 68.703"
	 xml:space="preserve">
<g>
	<path d="M22.525,19.441H13.98v29.844h8.499c4.52,0,7.784-1.064,10.648-3.445c3.404-2.818,5.417-7.064,5.417-11.455
		C38.545,25.577,31.965,19.441,22.525,19.441z M29.324,41.861c-1.829,1.65-4.205,2.371-7.965,2.371h-1.563V24.499h1.563
		c3.76,0,6.042,0.671,7.965,2.414c2.014,1.792,3.223,4.569,3.223,7.428C32.547,37.205,31.338,40.07,29.324,41.861z"/>
	<rect x="41.225" y="19.441" width="5.82" height="29.844"/>
	<path d="M61.278,30.893c-3.493-1.292-4.519-2.145-4.519-3.757c0-1.88,1.828-3.309,4.336-3.309c1.745,0,3.178,0.717,4.695,2.418
		l3.046-3.989c-2.504-2.189-5.499-3.309-8.77-3.309c-5.28,0-9.308,3.668-9.308,8.551c0,4.112,1.876,6.216,7.343,8.184
		c2.278,0.804,3.438,1.34,4.023,1.699c1.162,0.758,1.746,1.834,1.746,3.088c0,2.418-1.923,4.209-4.521,4.209
		c-2.775,0-5.012-1.387-6.353-3.979l-3.76,3.619c2.682,3.938,5.902,5.682,10.332,5.682c6.05,0,10.294-4.021,10.294-9.797
		C69.863,35.46,67.901,33.316,61.278,30.893z"/>
	<path d="M71.699,34.384c0,8.771,6.888,15.572,15.752,15.572c2.505,0,4.65-0.492,7.297-1.736v-6.854
		c-2.328,2.328-4.389,3.268-7.028,3.268c-5.863,0-10.024-4.25-10.024-10.294c0-5.729,4.294-10.249,9.754-10.249
		c2.775,0,4.879,0.989,7.297,3.357V20.6c-2.555-1.296-4.656-1.833-7.161-1.833C78.77,18.768,71.699,25.707,71.699,34.384z"/>
	<polygon points="140.904,39.486 132.943,19.441 126.586,19.441 139.25,50.052 142.383,50.052 155.275,19.441 148.965,19.441 	"/>
	<polygon points="157.906,49.285 174.416,49.285 174.416,44.232 163.725,44.232 163.725,36.176 174.02,36.176 174.02,31.122 
		163.725,31.122 163.725,24.499 174.416,24.499 174.416,19.441 157.906,19.441 	"/>
	<path d="M197.467,28.251c0-5.586-3.852-8.81-10.564-8.81h-8.631v29.844h5.812V37.296h0.762l8.057,11.988h7.158l-9.396-12.572
		C195.051,35.821,197.467,32.822,197.467,28.251z M185.787,33.181h-1.703v-9.039h1.793c3.627,0,5.598,1.519,5.598,4.424
		C191.475,31.566,189.504,33.181,185.787,33.181z"/>
	<g>
		<path d="M202.105,21.006c0-0.524-0.363-0.812-0.998-0.812h-0.844v2.631h0.627v-1.021l0.736,1.021h0.768l-0.865-1.085
			C201.898,21.642,202.105,21.372,202.105,21.006z M200.998,21.366h-0.107v-0.688h0.113c0.311,0,0.473,0.112,0.473,0.338
			C201.477,21.249,201.312,21.366,200.998,21.366z"/>
		<path d="M201.234,19.211c-1.277,0-2.293,1.02-2.293,2.294c0,1.274,1.027,2.295,2.293,2.295c1.244,0,2.266-1.033,2.266-2.295
			C203.5,20.249,202.479,19.211,201.234,19.211z M201.225,23.391c-1.006,0-1.828-0.837-1.828-1.882c0-1.048,0.814-1.885,1.828-1.885
			c1.002,0,1.816,0.856,1.816,1.885C203.041,22.544,202.227,23.391,201.225,23.391z"/>
	</g>
	<g>
		<g>
			<linearGradient id="SVGID_1_" gradientUnits="userSpaceOnUse" x1="120.5293" y1="46.9956" x2="109.587" y2="29.8632">
				<stop  offset="0" style="stop-color:#F9A020"/>
				<stop  offset="0.2041" style="stop-color:#F99D20"/>
				<stop  offset="0.4348" style="stop-color:#F79320"/>
				<stop  offset="0.6196" style="stop-color:#F68820"/>
				<stop  offset="0.7969" style="stop-color:#F57E20"/>
				<stop  offset="1" style="stop-color:#F47521"/>
			</linearGradient>
			<circle fill="url(#SVGID_1_)" cx="112.44" cy="34.331" r="15.803"/>
			<linearGradient id="SVGID_2_" gradientUnits="userSpaceOnUse" x1="118.8008" y1="46.7612" x2="102.8086" y2="15.5037">
				<stop  offset="0" style="stop-color:#F68820;stop-opacity:0"/>
				<stop  offset="0.3403" style="stop-color:#E17029;stop-opacity:0.2565"/>
				<stop  offset="0.6944" style="stop-color:#D4602D;stop-opacity:0.5235"/>
				<stop  offset="0.9816" style="stop-color:#D05B2E;stop-opacity:0.74"/>
			</linearGradient>
			<circle opacity="0.65" fill="url(#SVGID_2_)" cx="112.44" cy="34.331" r="15.803"/>
		</g>
		<g opacity="0.5">
			<defs>
				<circle id="SVGID_3_" opacity="0.5" cx="112.439" cy="34.334" r="15.804"/>
			</defs>
			<clipPath id="SVGID_4_">
				<use xlink:href="#SVGID_3_"  overflow="visible"/>
			</clipPath>
			<g clip-path="url(#SVGID_4_)">
				<circle cx="112.49" cy="34.384" r="16.122"/>
				<circle fill="#030304" cx="112.499" cy="34.393" r="16.12"/>
				<circle fill="#080808" cx="112.508" cy="34.404" r="16.119"/>
				<circle fill="#0C0C0C" cx="112.517" cy="34.414" r="16.117"/>
				<circle fill="#100F10" cx="112.524" cy="34.424" r="16.115"/>
				<circle fill="#131313" cx="112.534" cy="34.434" r="16.114"/>
				<circle fill="#161616" cx="112.543" cy="34.444" r="16.112"/>
				<circle fill="#191919" cx="112.552" cy="34.454" r="16.111"/>
				<circle fill="#1C1B1C" cx="112.561" cy="34.464" r="16.109"/>
				<circle fill="#1E1E1F" cx="112.568" cy="34.474" r="16.107"/>
				<circle fill="#212021" cx="112.578" cy="34.485" r="16.106"/>
				<circle fill="#232324" cx="112.586" cy="34.495" r="16.104"/>
				<circle fill="#252526" cx="112.595" cy="34.504" r="16.103"/>
				<path fill="#282728" d="M112.604,18.414c8.891,0,16.1,7.209,16.1,16.102c0,8.894-7.209,16.102-16.1,16.102
					c-8.895,0-16.102-7.208-16.102-16.102C96.502,25.623,103.71,18.414,112.604,18.414z"/>
				<circle fill="#2A292B" cx="112.612" cy="34.525" r="16.1"/>
				<circle fill="#2C2B2D" cx="112.621" cy="34.535" r="16.098"/>
				<circle fill="#2E2E2F" cx="112.63" cy="34.545" r="16.096"/>
				<circle fill="#303031" cx="112.639" cy="34.555" r="16.095"/>
				<circle fill="#323133" cx="112.647" cy="34.565" r="16.093"/>
				<circle fill="#343335" cx="112.656" cy="34.575" r="16.092"/>
				<circle fill="#363537" cx="112.665" cy="34.585" r="16.09"/>
				<circle fill="#373739" cx="112.674" cy="34.595" r="16.089"/>
				<circle fill="#39393A" cx="112.683" cy="34.605" r="16.087"/>
				<circle fill="#3B3B3C" cx="112.691" cy="34.615" r="16.085"/>
				<circle fill="#3D3C3E" cx="112.7" cy="34.625" r="16.083"/>
				<circle fill="#3E3E40" cx="112.708" cy="34.635" r="16.082"/>
				<circle fill="#403F41" cx="112.717" cy="34.646" r="16.081"/>
				<circle fill="#414042" cx="112.727" cy="34.656" r="16.079"/>
				<circle fill="#424143" cx="112.734" cy="34.666" r="16.077"/>
				<circle fill="#434244" cx="112.744" cy="34.676" r="16.076"/>
				<circle fill="#444345" cx="112.753" cy="34.686" r="16.074"/>
				<circle fill="#454446" cx="112.761" cy="34.696" r="16.073"/>
				<circle fill="#454547" cx="112.77" cy="34.706" r="16.071"/>
				<circle fill="#464648" cx="112.778" cy="34.716" r="16.07"/>
				<circle fill="#474749" cx="112.787" cy="34.726" r="16.068"/>
				<circle fill="#48484A" cx="112.796" cy="34.736" r="16.066"/>
				<circle fill="#49494B" cx="112.805" cy="34.746" r="16.065"/>
				<circle fill="#4A4A4C" cx="112.813" cy="34.756" r="16.063"/>
				<circle fill="#4B4B4D" cx="112.822" cy="34.767" r="16.062"/>
				<circle fill="#4C4C4E" cx="112.831" cy="34.776" r="16.06"/>
				<circle fill="#4D4D4F" cx="112.84" cy="34.787" r="16.059"/>
				<circle fill="#4D4E50" cx="112.849" cy="34.796" r="16.057"/>
				<circle fill="#4E4F51" cx="112.857" cy="34.807" r="16.056"/>
				<circle fill="#4F5052" cx="112.865" cy="34.817" r="16.054"/>
				<circle fill="#505052" cx="112.875" cy="34.827" r="16.052"/>
				<circle fill="#515153" cx="112.884" cy="34.837" r="16.051"/>
				<circle fill="#525254" cx="112.892" cy="34.847" r="16.049"/>
				<circle fill="#535355" cx="112.9" cy="34.857" r="16.048"/>
				<circle fill="#535456" cx="112.909" cy="34.867" r="16.046"/>
				<circle fill="#545557" cx="112.918" cy="34.877" r="16.045"/>
				<circle fill="#555658" cx="112.927" cy="34.887" r="16.043"/>
				<circle fill="#565759" cx="112.936" cy="34.897" r="16.042"/>
				<circle fill="#57585A" cx="112.944" cy="34.907" r="16.04"/>
				<circle fill="#58585B" cx="112.953" cy="34.917" r="16.038"/>
				<circle fill="#58595B" cx="112.962" cy="34.928" r="16.037"/>
				<circle fill="#595A5C" cx="112.971" cy="34.937" r="16.035"/>
				<circle fill="#5A5B5D" cx="112.979" cy="34.947" r="16.033"/>
				<circle fill="#5B5C5E" cx="112.988" cy="34.958" r="16.032"/>
				<circle fill="#5C5D5F" cx="112.997" cy="34.968" r="16.03"/>
				<circle fill="#5C5D60" cx="113.006" cy="34.978" r="16.029"/>
				<circle fill="#5D5E61" cx="113.014" cy="34.988" r="16.027"/>
				<circle fill="#5E5F61" cx="113.023" cy="34.998" r="16.025"/>
				<circle fill="#5F6062" cx="113.032" cy="35.008" r="16.024"/>
				<circle fill="#606163" cx="113.041" cy="35.018" r="16.022"/>
				<circle fill="#606264" cx="113.049" cy="35.028" r="16.021"/>
				<circle fill="#616265" cx="113.058" cy="35.038" r="16.019"/>
				<circle fill="#626366" cx="113.067" cy="35.048" r="16.018"/>
				<circle fill="#636466" cx="113.075" cy="35.058" r="16.016"/>
				<circle fill="#646567" cx="113.084" cy="35.068" r="16.014"/>
				<circle fill="#646668" cx="113.093" cy="35.078" r="16.013"/>
				<circle fill="#656669" cx="113.102" cy="35.089" r="16.011"/>
				<circle fill="#66676A" cx="113.11" cy="35.099" r="16.01"/>
				<circle fill="#67686A" cx="113.119" cy="35.108" r="16.008"/>
				<circle fill="#67696B" cx="113.128" cy="35.119" r="16.007"/>
				<circle fill="#686A6C" cx="113.137" cy="35.129" r="16.005"/>
				<circle fill="#696A6D" cx="113.146" cy="35.139" r="16.003"/>
				<circle fill="#6A6B6D" cx="113.154" cy="35.149" r="16.002"/>
				<circle fill="#6B6C6E" cx="113.163" cy="35.159" r="16"/>
				<circle fill="#6B6D6F" cx="113.172" cy="35.169" r="15.999"/>
				<circle fill="#6C6D70" cx="113.18" cy="35.179" r="15.997"/>
				<circle fill="#6D6E71" cx="113.189" cy="35.189" r="15.996"/>
				<circle fill="#6D6F71" cx="113.197" cy="35.199" r="15.994"/>
				<circle fill="#6E7072" cx="113.207" cy="35.21" r="15.993"/>
				<circle fill="#6F7073" cx="113.215" cy="35.219" r="15.991"/>
				<circle fill="#707174" cx="113.224" cy="35.229" r="15.989"/>
				<circle fill="#707274" cx="113.232" cy="35.239" r="15.988"/>
				<circle fill="#717375" cx="113.242" cy="35.25" r="15.986"/>
				<circle fill="#727376" cx="113.25" cy="35.259" r="15.984"/>
				<circle fill="#737477" cx="113.259" cy="35.27" r="15.983"/>
				<circle fill="#737577" cx="113.268" cy="35.28" r="15.981"/>
				<circle fill="#747678" cx="113.276" cy="35.29" r="15.98"/>
				<circle fill="#757679" cx="113.285" cy="35.3" r="15.978"/>
				<circle fill="#75777A" cx="113.294" cy="35.31" r="15.977"/>
				<circle fill="#76787A" cx="113.303" cy="35.32" r="15.975"/>
				<circle fill="#77797B" cx="113.312" cy="35.331" r="15.974"/>
				<circle fill="#78797C" cx="113.32" cy="35.34" r="15.972"/>
				<circle fill="#787A7D" cx="113.328" cy="35.35" r="15.97"/>
				<circle fill="#797B7D" cx="113.338" cy="35.36" r="15.969"/>
				<circle fill="#7A7B7E" cx="113.347" cy="35.37" r="15.967"/>
				<circle fill="#7A7C7F" cx="113.354" cy="35.38" r="15.966"/>
				<circle fill="#7B7D7F" cx="113.363" cy="35.39" r="15.964"/>
				<circle fill="#7C7E80" cx="113.373" cy="35.4" r="15.962"/>
				<circle fill="#7D7E81" cx="113.381" cy="35.411" r="15.961"/>
				<circle fill="#7D7F82" cx="113.391" cy="35.421" r="15.96"/>
				<circle fill="#7E8082" cx="113.398" cy="35.431" r="15.958"/>
				<circle fill="#7F8183" cx="113.407" cy="35.441" r="15.956"/>
				<circle fill="#7F8184" cx="113.416" cy="35.451" r="15.955"/>
				<circle fill="#808285" cx="113.425" cy="35.461" r="15.953"/>
				<circle fill="#818385" cx="113.434" cy="35.471" r="15.952"/>
				<circle fill="#828386" cx="113.442" cy="35.481" r="15.95"/>
				<circle fill="#828487" cx="113.451" cy="35.491" r="15.948"/>
				<circle fill="#838587" cx="113.46" cy="35.501" r="15.947"/>
				<circle fill="#848688" cx="113.469" cy="35.511" r="15.945"/>
				<circle fill="#848689" cx="113.478" cy="35.521" r="15.944"/>
				<circle fill="#85878A" cx="113.486" cy="35.531" r="15.942"/>
				<circle fill="#86888A" cx="113.494" cy="35.542" r="15.94"/>
				<circle fill="#86888B" cx="113.504" cy="35.552" r="15.939"/>
				<circle fill="#87898C" cx="113.512" cy="35.561" r="15.937"/>
				<circle fill="#888A8C" cx="113.521" cy="35.572" r="15.936"/>
				<circle fill="#898B8D" cx="113.529" cy="35.582" r="15.934"/>
				<circle fill="#898B8E" cx="113.539" cy="35.592" r="15.933"/>
				<circle fill="#8A8C8F" cx="113.547" cy="35.602" r="15.931"/>
				<circle fill="#8B8D8F" cx="113.556" cy="35.612" r="15.93"/>
				<circle fill="#8B8D90" cx="113.564" cy="35.622" r="15.928"/>
				<circle fill="#8C8E91" cx="113.573" cy="35.632" r="15.926"/>
				<circle fill="#8D8F91" cx="113.582" cy="35.642" r="15.925"/>
				<circle fill="#8D9092" cx="113.591" cy="35.652" r="15.923"/>
				<circle fill="#8E9093" cx="113.6" cy="35.662" r="15.921"/>
				<circle fill="#8F9194" cx="113.608" cy="35.672" r="15.92"/>
				<circle fill="#909294" cx="113.617" cy="35.682" r="15.919"/>
				<circle fill="#909295" cx="113.626" cy="35.692" r="15.917"/>
				<circle fill="#919396" cx="113.635" cy="35.702" r="15.915"/>
				<circle fill="#929497" cx="113.644" cy="35.712" r="15.914"/>
				<circle fill="#939597" cx="113.652" cy="35.722" r="15.912"/>
				<circle fill="#939598" cx="113.66" cy="35.733" r="15.911"/>
				<circle fill="#949699" cx="113.67" cy="35.743" r="15.909"/>
				<circle fill="#959799" cx="113.678" cy="35.752" r="15.907"/>
				<circle fill="#95989A" cx="113.688" cy="35.763" r="15.906"/>
				<circle fill="#96989B" cx="113.695" cy="35.773" r="15.904"/>
				<circle fill="#97999C" cx="113.705" cy="35.783" r="15.903"/>
				<circle fill="#989A9C" cx="113.713" cy="35.793" r="15.901"/>
				<circle fill="#989A9D" cx="113.722" cy="35.803" r="15.9"/>
				<circle fill="#999B9E" cx="113.73" cy="35.813" r="15.898"/>
				<circle fill="#9A9C9F" cx="113.739" cy="35.823" r="15.897"/>
				<circle fill="#9B9D9F" cx="113.748" cy="35.833" r="15.895"/>
				<circle fill="#9B9DA0" cx="113.757" cy="35.844" r="15.893"/>
				<circle fill="#9C9EA1" cx="113.766" cy="35.854" r="15.892"/>
				<circle fill="#9D9FA1" cx="113.774" cy="35.863" r="15.89"/>
				<circle fill="#9DA0A2" cx="113.783" cy="35.874" r="15.889"/>
				<circle fill="#9EA0A3" cx="113.792" cy="35.884" r="15.887"/>
				<circle fill="#9FA1A4" cx="113.801" cy="35.894" r="15.885"/>
				<circle fill="#A0A2A4" cx="113.809" cy="35.904" r="15.884"/>
				<circle fill="#A0A3A5" cx="113.818" cy="35.914" r="15.882"/>
				<circle fill="#A1A3A6" cx="113.826" cy="35.924" r="15.881"/>
				<circle fill="#A2A4A7" cx="113.836" cy="35.934" r="15.879"/>
				<circle fill="#A3A5A7" cx="113.845" cy="35.944" r="15.878"/>
				<circle fill="#A3A6A8" cx="113.854" cy="35.955" r="15.876"/>
				<circle fill="#A4A6A9" cx="113.862" cy="35.964" r="15.874"/>
				<circle fill="#A5A7AA" cx="113.87" cy="35.974" r="15.873"/>
				<circle fill="#A6A8AA" cx="113.879" cy="35.985" r="15.871"/>
				<circle fill="#A6A9AB" cx="113.888" cy="35.995" r="15.87"/>
				<circle fill="#A7A9AC" cx="113.896" cy="36.004" r="15.868"/>
				<circle fill="#A8AAAD" cx="113.905" cy="36.015" r="15.867"/>
				<circle fill="#A9ABAD" cx="113.914" cy="36.025" r="15.865"/>
				<circle fill="#A9ACAE" cx="113.923" cy="36.035" r="15.863"/>
				<circle fill="#AAACAF" cx="113.932" cy="36.045" r="15.862"/>
				<circle fill="#ABADB0" cx="113.94" cy="36.055" r="15.86"/>
				<circle fill="#ACAEB0" cx="113.949" cy="36.065" r="15.859"/>
				<circle fill="#ADAFB1" cx="113.958" cy="36.075" r="15.857"/>
				<circle fill="#ADAFB2" cx="113.967" cy="36.085" r="15.856"/>
				<circle fill="#AEB0B3" cx="113.975" cy="36.095" r="15.854"/>
				<circle fill="#AFB1B3" cx="113.984" cy="36.105" r="15.852"/>
				<circle fill="#B0B2B4" cx="113.993" cy="36.115" r="15.851"/>
				<circle fill="#B0B2B5" cx="114.002" cy="36.125" r="15.849"/>
				<circle fill="#B1B3B6" cx="114.011" cy="36.135" r="15.848"/>
				<circle fill="#B2B4B6" cx="114.019" cy="36.146" r="15.846"/>
				<circle fill="#B3B5B7" cx="114.027" cy="36.155" r="15.844"/>
				<circle fill="#B4B6B8" cx="114.036" cy="36.166" r="15.843"/>
				<circle fill="#B4B6B9" cx="114.045" cy="36.176" r="15.841"/>
				<circle fill="#B5B7B9" cx="114.054" cy="36.186" r="15.84"/>
				<circle fill="#B6B8BA" cx="114.062" cy="36.196" r="15.838"/>
				<circle fill="#B7B9BB" cx="114.071" cy="36.206" r="15.837"/>
				<circle fill="#B8B9BC" cx="114.08" cy="36.216" r="15.835"/>
				<circle fill="#B8BABD" cx="114.089" cy="36.226" r="15.833"/>
				<circle fill="#B9BBBD" cx="114.098" cy="36.236" r="15.832"/>
				<circle fill="#BABCBE" cx="114.106" cy="36.246" r="15.83"/>
				<circle fill="#BBBDBF" cx="114.115" cy="36.256" r="15.829"/>
				<circle fill="#BBBDC0" cx="114.124" cy="36.266" r="15.827"/>
				<circle fill="#BCBEC0" cx="114.133" cy="36.276" r="15.826"/>
				<circle fill="#BDBFC1" cx="114.142" cy="36.287" r="15.824"/>
				<circle fill="#BEC0C2" cx="114.15" cy="36.296" r="15.822"/>
				<circle fill="#BFC0C3" cx="114.159" cy="36.307" r="15.821"/>
				<circle fill="#BFC1C3" cx="114.167" cy="36.317" r="15.819"/>
				<circle fill="#C0C2C4" cx="114.177" cy="36.327" r="15.818"/>
				<circle fill="#C1C3C5" cx="114.185" cy="36.337" r="15.816"/>
				<circle fill="#C2C4C6" cx="114.193" cy="36.347" r="15.815"/>
				<circle fill="#C3C4C6" cx="114.202" cy="36.357" r="15.813"/>
				<circle fill="#C3C5C7" cx="114.211" cy="36.367" r="15.811"/>
				<circle fill="#C4C6C8" cx="114.22" cy="36.377" r="15.81"/>
				<circle fill="#C5C7C9" cx="114.229" cy="36.387" r="15.809"/>
				<circle fill="#C6C8CA" cx="114.237" cy="36.397" r="15.807"/>
				<circle fill="#C7C8CA" cx="114.246" cy="36.407" r="15.805"/>
				<circle opacity="0.995" fill="#C7C9CB" cx="114.253" cy="36.416" r="15.805"/>
				<circle opacity="0.9901" fill="#C7C9CB" cx="114.262" cy="36.426" r="15.805"/>
				<circle opacity="0.9851" fill="#C7C9CB" cx="114.269" cy="36.435" r="15.805"/>
				<circle opacity="0.9801" fill="#C8C9CB" cx="114.276" cy="36.444" r="15.805"/>
				<circle opacity="0.9751" fill="#C8CACC" cx="114.284" cy="36.453" r="15.805"/>
				<circle opacity="0.9701" fill="#C8CACC" cx="114.292" cy="36.462" r="15.805"/>
				<circle opacity="0.9652" fill="#C8CACC" cx="114.299" cy="36.471" r="15.805"/>
				<circle opacity="0.9602" fill="#C9CACC" cx="114.307" cy="36.48" r="15.805"/>
				<circle opacity="0.9552" fill="#C9CBCD" cx="114.313" cy="36.489" r="15.805"/>
				<circle opacity="0.9502" fill="#C9CBCD" cx="114.322" cy="36.498" r="15.805"/>
				<circle opacity="0.9453" fill="#C9CBCD" cx="114.329" cy="36.507" r="15.805"/>
				<circle opacity="0.9403" fill="#CACBCD" cx="114.337" cy="36.517" r="15.805"/>
				<circle opacity="0.9353" fill="#CACCCE" cx="114.345" cy="36.526" r="15.805"/>
				<circle opacity="0.9303" fill="#CACCCE" cx="114.352" cy="36.534" r="15.805"/>
				<circle opacity="0.9254" fill="#CBCCCE" cx="114.359" cy="36.544" r="15.805"/>
				<circle opacity="0.9204" fill="#CBCCCE" cx="114.366" cy="36.553" r="15.805"/>
				<circle opacity="0.9154" fill="#CBCDCF" cx="114.374" cy="36.562" r="15.805"/>
				<circle opacity="0.9104" fill="#CBCDCF" cx="114.382" cy="36.571" r="15.805"/>
				<circle opacity="0.9055" fill="#CCCDCF" cx="114.39" cy="36.58" r="15.805"/>
				<circle opacity="0.9005" fill="#CCCDCF" cx="114.396" cy="36.589" r="15.805"/>
				<circle opacity="0.8955" fill="#CCCED0" cx="114.404" cy="36.599" r="15.805"/>
				<circle opacity="0.8905" fill="#CCCED0" cx="114.412" cy="36.607" r="15.805"/>
				<circle opacity="0.8856" fill="#CDCED0" cx="114.42" cy="36.616" r="15.805"/>
				<circle opacity="0.8806" fill="#CDCED0" cx="114.427" cy="36.626" r="15.805"/>
				<circle opacity="0.8756" fill="#CDCFD1" cx="114.435" cy="36.634" r="15.805"/>
				<circle opacity="0.8706" fill="#CDCFD1" cx="114.442" cy="36.644" r="15.805"/>
				<circle opacity="0.8657" fill="#CECFD1" cx="114.45" cy="36.653" r="15.805"/>
				<circle opacity="0.8607" fill="#CED0D1" cx="114.457" cy="36.662" r="15.805"/>
				<circle opacity="0.8557" fill="#CED0D1" cx="114.465" cy="36.672" r="15.805"/>
				<circle opacity="0.8507" fill="#CED0D2" cx="114.473" cy="36.681" r="15.805"/>
				<circle opacity="0.8458" fill="#CFD0D2" cx="114.48" cy="36.689" r="15.805"/>
				<circle opacity="0.8408" fill="#CFD1D2" cx="114.487" cy="36.698" r="15.805"/>
				<circle opacity="0.8358" fill="#CFD1D2" cx="114.494" cy="36.707" r="15.805"/>
				<circle opacity="0.8308" fill="#D0D1D3" cx="114.503" cy="36.717" r="15.805"/>
				<circle opacity="0.8259" fill="#D0D1D3" cx="114.51" cy="36.726" r="15.805"/>
				<circle opacity="0.8209" fill="#D0D2D3" cx="114.518" cy="36.735" r="15.805"/>
				<circle opacity="0.8159" fill="#D0D2D3" cx="114.525" cy="36.744" r="15.805"/>
				<circle opacity="0.8109" fill="#D1D2D4" cx="114.533" cy="36.753" r="15.805"/>
				<circle opacity="0.806" fill="#D1D2D4" cx="114.54" cy="36.762" r="15.805"/>
				<circle opacity="0.801" fill="#D1D3D4" cx="114.548" cy="36.771" r="15.805"/>
				<circle opacity="0.796" fill="#D1D3D4" cx="114.555" cy="36.78" r="15.805"/>
				<circle opacity="0.791" fill="#D2D3D5" cx="114.563" cy="36.79" r="15.805"/>
				<circle opacity="0.7861" fill="#D2D3D5" cx="114.57" cy="36.799" r="15.805"/>
				<circle opacity="0.7811" fill="#D2D4D5" cx="114.578" cy="36.808" r="15.805"/>
				<circle opacity="0.7761" fill="#D2D4D5" cx="114.586" cy="36.817" r="15.805"/>
				<circle opacity="0.7711" fill="#D3D4D6" cx="114.594" cy="36.826" r="15.805"/>
				<circle opacity="0.7662" fill="#D3D4D6" cx="114.601" cy="36.835" r="15.805"/>
				<circle opacity="0.7612" fill="#D3D5D6" cx="114.607" cy="36.844" r="15.805"/>
				<circle opacity="0.7562" fill="#D4D5D6" cx="114.615" cy="36.853" r="15.805"/>
				<circle opacity="0.7512" fill="#D4D5D7" cx="114.623" cy="36.862" r="15.805"/>
				<circle opacity="0.7463" fill="#D4D5D7" cx="114.631" cy="36.871" r="15.805"/>
				<circle opacity="0.7413" fill="#D4D6D7" cx="114.638" cy="36.88" r="15.805"/>
				<circle opacity="0.7363" fill="#D5D6D7" cx="114.646" cy="36.89" r="15.805"/>
				<circle opacity="0.7313" fill="#D5D6D8" cx="114.653" cy="36.898" r="15.805"/>
				<circle opacity="0.7264" fill="#D5D6D8" cx="114.661" cy="36.908" r="15.805"/>
				<circle opacity="0.7214" fill="#D5D7D8" cx="114.668" cy="36.917" r="15.805"/>
				<circle opacity="0.7164" fill="#D6D7D8" cx="114.676" cy="36.926" r="15.805"/>
				<circle opacity="0.7114" fill="#D6D7D9" cx="114.684" cy="36.936" r="15.805"/>
				<circle opacity="0.7065" fill="#D6D7D9" cx="114.691" cy="36.944" r="15.805"/>
				<circle opacity="0.7015" fill="#D6D8D9" cx="114.698" cy="36.953" r="15.805"/>
				<circle opacity="0.6965" fill="#D7D8D9" cx="114.706" cy="36.962" r="15.805"/>
				<circle opacity="0.6915" fill="#D7D8DA" cx="114.714" cy="36.972" r="15.805"/>
				<circle opacity="0.6866" fill="#D7D8DA" cx="114.721" cy="36.98" r="15.805"/>
				<circle opacity="0.6816" fill="#D7D9DA" cx="114.729" cy="36.989" r="15.805"/>
				<circle opacity="0.6766" fill="#D8D9DA" cx="114.736" cy="36.999" r="15.805"/>
				<circle opacity="0.6716" fill="#D8D9DB" cx="114.744" cy="37.008" r="15.805"/>
				<circle opacity="0.6667" fill="#D8D9DB" cx="114.751" cy="37.017" r="15.805"/>
				<circle opacity="0.6617" fill="#D8DADB" cx="114.759" cy="37.026" r="15.805"/>
				<circle opacity="0.6567" fill="#D9DADB" cx="114.767" cy="37.035" r="15.805"/>
				<circle opacity="0.6517" fill="#D9DADC" cx="114.774" cy="37.044" r="15.805"/>
				<circle opacity="0.6468" fill="#D9DBDC" cx="114.781" cy="37.054" r="15.805"/>
				<circle opacity="0.6418" fill="#DADBDC" cx="114.789" cy="37.062" r="15.805"/>
				<circle opacity="0.6368" fill="#DADBDC" cx="114.797" cy="37.071" r="15.805"/>
				<circle opacity="0.6318" fill="#DADBDD" cx="114.805" cy="37.081" r="15.805"/>
				<circle opacity="0.6269" fill="#DADCDD" cx="114.812" cy="37.09" r="15.805"/>
				<circle opacity="0.6219" fill="#DBDCDD" cx="114.819" cy="37.099" r="15.805"/>
				<circle opacity="0.6169" fill="#DBDCDD" cx="114.826" cy="37.108" r="15.805"/>
				<circle opacity="0.6119" fill="#DBDCDE" cx="114.834" cy="37.117" r="15.805"/>
				<circle opacity="0.607" fill="#DBDDDE" cx="114.842" cy="37.126" r="15.805"/>
				<circle opacity="0.602" fill="#DCDDDE" cx="114.849" cy="37.135" r="15.805"/>
				<circle opacity="0.597" fill="#DCDDDE" cx="114.857" cy="37.145" r="15.805"/>
				<circle opacity="0.592" fill="#DCDDDF" cx="114.864" cy="37.154" r="15.805"/>
				<circle opacity="0.5871" fill="#DCDEDF" cx="114.872" cy="37.163" r="15.806"/>
				<circle opacity="0.5821" fill="#DDDEDF" cx="114.879" cy="37.172" r="15.805"/>
				<circle opacity="0.5771" fill="#DDDEDF" cx="114.887" cy="37.181" r="15.805"/>
				<circle opacity="0.5721" fill="#DDDEE0" cx="114.895" cy="37.19" r="15.805"/>
				<circle opacity="0.5672" fill="#DDDFE0" cx="114.902" cy="37.199" r="15.805"/>
				<circle opacity="0.5622" fill="#DEDFE0" cx="114.909" cy="37.208" r="15.805"/>
				<circle opacity="0.5572" fill="#DEDFE0" cx="114.918" cy="37.217" r="15.805"/>
				<circle opacity="0.5522" fill="#DEDFE1" cx="114.925" cy="37.227" r="15.805"/>
				<circle opacity="0.5473" fill="#DFE0E1" cx="114.933" cy="37.235" r="15.805"/>
				<circle opacity="0.5423" fill="#DFE0E1" cx="114.939" cy="37.244" r="15.805"/>
				<circle opacity="0.5373" fill="#DFE0E1" cx="114.947" cy="37.254" r="15.805"/>
				<circle opacity="0.5323" fill="#DFE0E2" cx="114.955" cy="37.263" r="15.805"/>
				<circle opacity="0.5274" fill="#E0E1E2" cx="114.962" cy="37.271" r="15.805"/>
				<circle opacity="0.5224" fill="#E0E1E2" cx="114.97" cy="37.28" r="15.805"/>
				<circle opacity="0.5174" fill="#E0E1E2" cx="114.978" cy="37.29" r="15.805"/>
				<circle opacity="0.5124" fill="#E0E1E3" cx="114.985" cy="37.299" r="15.806"/>
				<circle opacity="0.5075" fill="#E1E2E3" cx="114.992" cy="37.308" r="15.805"/>
				<circle opacity="0.5025" fill="#E1E2E3" cx="115" cy="37.317" r="15.805"/>
				<circle opacity="0.4975" fill="#E1E2E3" cx="115.008" cy="37.326" r="15.805"/>
				<circle opacity="0.4925" fill="#E1E2E4" cx="115.015" cy="37.335" r="15.805"/>
				<circle opacity="0.4876" fill="#E2E3E4" cx="115.022" cy="37.345" r="15.805"/>
				<circle opacity="0.4826" fill="#E2E3E4" cx="115.03" cy="37.354" r="15.805"/>
				<circle opacity="0.4776" fill="#E2E3E4" cx="115.037" cy="37.363" r="15.805"/>
				<circle opacity="0.4726" fill="#E2E3E4" cx="115.045" cy="37.372" r="15.805"/>
				<circle opacity="0.4677" fill="#E3E4E5" cx="115.053" cy="37.381" r="15.805"/>
				<circle opacity="0.4627" fill="#E3E4E5" cx="115.061" cy="37.39" r="15.805"/>
				<circle opacity="0.4577" fill="#E3E4E5" cx="115.068" cy="37.399" r="15.805"/>
				<circle opacity="0.4527" fill="#E3E4E5" cx="115.075" cy="37.408" r="15.805"/>
				<circle opacity="0.4478" fill="#E4E5E6" cx="115.083" cy="37.417" r="15.805"/>
				<circle opacity="0.4428" fill="#E4E5E6" cx="115.091" cy="37.427" r="15.805"/>
				<circle opacity="0.4378" fill="#E4E5E6" cx="115.098" cy="37.436" r="15.805"/>
				<circle opacity="0.4328" fill="#E5E5E6" cx="115.105" cy="37.445" r="15.805"/>
				<circle opacity="0.4279" fill="#E5E6E7" cx="115.113" cy="37.454" r="15.805"/>
				<circle opacity="0.4229" fill="#E5E6E7" cx="115.121" cy="37.463" r="15.805"/>
				<circle opacity="0.4179" fill="#E5E6E7" cx="115.128" cy="37.472" r="15.805"/>
				<circle opacity="0.4129" fill="#E6E6E7" cx="115.136" cy="37.481" r="15.805"/>
				<circle opacity="0.408" fill="#E6E7E8" cx="115.144" cy="37.49" r="15.805"/>
				<circle opacity="0.403" fill="#E6E7E8" cx="115.15" cy="37.499" r="15.805"/>
				<circle opacity="0.398" fill="#E6E7E8" cx="115.158" cy="37.509" r="15.805"/>
				<circle opacity="0.393" fill="#E7E8E8" cx="115.166" cy="37.518" r="15.805"/>
				<circle opacity="0.3881" fill="#E7E8E9" cx="115.174" cy="37.526" r="15.805"/>
				<circle opacity="0.3831" fill="#E7E8E9" cx="115.182" cy="37.536" r="15.805"/>
				<circle opacity="0.3781" fill="#E8E8E9" cx="115.188" cy="37.544" r="15.805"/>
				<circle opacity="0.3731" fill="#E8E9E9" cx="115.196" cy="37.554" r="15.805"/>
				<circle opacity="0.3682" fill="#E8E9EA" cx="115.204" cy="37.563" r="15.805"/>
				<circle opacity="0.3632" fill="#E8E9EA" cx="115.211" cy="37.572" r="15.805"/>
				<circle opacity="0.3582" fill="#E9E9EA" cx="115.219" cy="37.581" r="15.805"/>
				<circle opacity="0.3532" fill="#E9EAEB" cx="115.227" cy="37.59" r="15.806"/>
				<circle opacity="0.3483" fill="#E9EAEB" cx="115.234" cy="37.599" r="15.805"/>
				<circle opacity="0.3433" fill="#EAEAEB" cx="115.241" cy="37.608" r="15.805"/>
				<circle opacity="0.3383" fill="#EAEBEB" cx="115.249" cy="37.618" r="15.806"/>
				<circle opacity="0.3333" fill="#EAEBEC" cx="115.257" cy="37.627" r="15.805"/>
				<circle opacity="0.3284" fill="#EAEBEC" cx="115.264" cy="37.636" r="15.805"/>
				<circle opacity="0.3234" fill="#EBEBEC" cx="115.271" cy="37.645" r="15.805"/>
				<circle opacity="0.3184" fill="#EBECEC" cx="115.279" cy="37.654" r="15.805"/>
				<circle opacity="0.3134" fill="#EBECED" cx="115.287" cy="37.663" r="15.805"/>
				<circle opacity="0.3085" fill="#EBECED" cx="115.295" cy="37.672" r="15.805"/>
				<circle opacity="0.3035" fill="#ECECED" cx="115.302" cy="37.681" r="15.805"/>
				<circle opacity="0.2985" fill="#ECECED" cx="115.309" cy="37.69" r="15.805"/>
				<circle opacity="0.2935" fill="#ECEDED" cx="115.316" cy="37.699" r="15.805"/>
				<circle opacity="0.2886" fill="#ECEDEE" cx="115.324" cy="37.709" r="15.805"/>
				<circle opacity="0.2836" fill="#EDEDEE" cx="115.332" cy="37.718" r="15.805"/>
				<circle opacity="0.2786" fill="#EDEEEE" cx="115.34" cy="37.727" r="15.805"/>
				<circle opacity="0.2736" fill="#EDEEEE" cx="115.347" cy="37.736" r="15.805"/>
				<circle opacity="0.2687" fill="#EDEEEF" cx="115.354" cy="37.745" r="15.805"/>
				<circle opacity="0.2637" fill="#EEEEEF" cx="115.361" cy="37.754" r="15.805"/>
				<circle opacity="0.2587" fill="#EEEFEF" cx="115.369" cy="37.763" r="15.805"/>
				<circle opacity="0.2537" fill="#EEEFEF" cx="115.377" cy="37.772" r="15.805"/>
				<circle opacity="0.2488" fill="#EEEFF0" cx="115.385" cy="37.781" r="15.805"/>
				<circle opacity="0.2438" fill="#EFEFF0" cx="115.393" cy="37.79" r="15.805"/>
				<circle opacity="0.2388" fill="#EFF0F0" cx="115.399" cy="37.8" r="15.805"/>
				<circle opacity="0.2338" fill="#EFF0F0" cx="115.407" cy="37.809" r="15.805"/>
				<circle opacity="0.2289" fill="#F0F0F1" cx="115.415" cy="37.818" r="15.805"/>
				<circle opacity="0.2239" fill="#F0F0F1" cx="115.422" cy="37.827" r="15.805"/>
				<circle opacity="0.2189" fill="#F0F1F1" cx="115.43" cy="37.836" r="15.805"/>
				<circle opacity="0.2139" fill="#F0F1F1" cx="115.438" cy="37.845" r="15.805"/>
				<circle opacity="0.209" fill="#F1F1F2" cx="115.445" cy="37.854" r="15.805"/>
				<circle opacity="0.204" fill="#F1F1F2" cx="115.452" cy="37.863" r="15.805"/>
				<circle opacity="0.199" fill="#F1F2F2" cx="115.46" cy="37.872" r="15.805"/>
				<circle opacity="0.194" fill="#F1F2F2" cx="115.468" cy="37.882" r="15.805"/>
				<circle opacity="0.1891" fill="#F2F2F3" cx="115.476" cy="37.891" r="15.805"/>
				<circle opacity="0.1841" fill="#F2F2F3" cx="115.482" cy="37.9" r="15.805"/>
				<circle opacity="0.1791" fill="#F2F3F3" cx="115.49" cy="37.909" r="15.805"/>
				<circle opacity="0.1741" fill="#F2F3F3" cx="115.498" cy="37.918" r="15.805"/>
				<circle opacity="0.1692" fill="#F3F3F4" cx="115.506" cy="37.927" r="15.805"/>
				<circle opacity="0.1642" fill="#F3F3F4" cx="115.513" cy="37.936" r="15.805"/>
				<circle opacity="0.1592" fill="#F3F4F4" cx="115.521" cy="37.945" r="15.805"/>
				<circle opacity="0.1542" fill="#F4F4F4" cx="115.528" cy="37.954" r="15.805"/>
				<circle opacity="0.1493" fill="#F4F4F5" cx="115.535" cy="37.963" r="15.805"/>
				<circle opacity="0.1443" fill="#F4F4F5" cx="115.543" cy="37.973" r="15.805"/>
				<circle opacity="0.1393" fill="#F4F5F5" cx="115.551" cy="37.981" r="15.805"/>
				<circle opacity="0.1343" fill="#F5F5F5" cx="115.559" cy="37.99" r="15.805"/>
				<circle opacity="0.1294" fill="#F5F5F6" cx="115.565" cy="38" r="15.805"/>
				<circle opacity="0.1244" fill="#F5F6F6" cx="115.573" cy="38.009" r="15.805"/>
				<circle opacity="0.1194" fill="#F6F6F6" cx="115.581" cy="38.018" r="15.806"/>
				<circle opacity="0.1144" fill="#F6F6F7" cx="115.589" cy="38.027" r="15.805"/>
				<circle opacity="0.1095" fill="#F6F6F7" cx="115.596" cy="38.036" r="15.805"/>
				<circle opacity="0.1045" fill="#F6F7F7" cx="115.604" cy="38.045" r="15.805"/>
				<circle opacity="0.0995" fill="#F7F7F7" cx="115.61" cy="38.054" r="15.805"/>
				<circle opacity="0.0945" fill="#F7F7F8" cx="115.618" cy="38.063" r="15.805"/>
				<circle opacity="0.0896" fill="#F7F8F8" cx="115.626" cy="38.072" r="15.805"/>
				<circle opacity="0.0846" fill="#F8F8F8" cx="115.633" cy="38.082" r="15.805"/>
				<circle opacity="0.0796" fill="#F8F8F9" cx="115.641" cy="38.091" r="15.805"/>
				<circle opacity="0.0746" fill="#F8F9F9" cx="115.648" cy="38.1" r="15.805"/>
				<circle opacity="0.0697" fill="#F9F9F9" cx="115.656" cy="38.109" r="15.805"/>
				<circle opacity="0.0647" fill="#F9F9F9" cx="115.663" cy="38.118" r="15.805"/>
				<circle opacity="0.0597" fill="#F9FAFA" cx="115.671" cy="38.127" r="15.805"/>
				<circle opacity="0.0547" fill="#FAFAFA" cx="115.679" cy="38.136" r="15.805"/>
				<circle opacity="0.0498" fill="#FAFAFA" cx="115.687" cy="38.145" r="15.805"/>
				<circle opacity="0.0448" fill="#FBFBFB" cx="115.693" cy="38.154" r="15.805"/>
				<circle opacity="0.0398" fill="#FBFBFB" cx="115.701" cy="38.164" r="15.805"/>
				<circle opacity="0.0348" fill="#FBFCFC" cx="115.709" cy="38.173" r="15.805"/>
				<circle opacity="0.0299" fill="#FCFCFC" cx="115.717" cy="38.182" r="15.805"/>
				<circle opacity="0.0249" fill="#FCFCFD" cx="115.724" cy="38.191" r="15.805"/>
				<circle opacity="0.0199" fill="#FDFDFD" cx="115.731" cy="38.2" r="15.805"/>
				<circle opacity="0.0149" fill="#FDFDFD" cx="115.739" cy="38.209" r="15.805"/>
				<circle opacity="0.0099" fill="#FEFEFE" cx="115.747" cy="38.218" r="15.805"/>
				<circle opacity="0.005" fill="#FEFEFE" cx="115.754" cy="38.227" r="15.805"/>
				<circle opacity="0" fill="#FFFFFF" cx="115.762" cy="38.236" r="15.805"/>
			</g>
		</g>
	</g>
</g>
</svg>
