<?xml version="1.0" encoding="utf-8"?>
<!-- Generator: Adobe Illustrator 15.1.0, SVG Export Plug-In . SVG Version: 6.00 Build 0)  -->
<!DOCTYPE svg PUBLIC "-//W3C//DTD SVG 1.1//EN" "http://www.w3.org/Graphics/SVG/1.1/DTD/svg11.dtd">
<svg version="1.1" id="whirlpool-logo" xmlns="http://www.w3.org/2000/svg" xmlns:xlink="http://www.w3.org/1999/xlink" x="0px"
	 y="0px" width="80px" height="31.185px" viewBox="13.945 38.478 80 31.185" enable-background="new 13.945 38.478 80 31.185"
	 xml:space="preserve">
<path id="logo-swoosh" fill="#EEB21E" d="M73.046,38.997c-1.819-1.93-8.621,1.738-15.56,7.466v0.744
	c6.796-5.673,13.19-9.011,14.666-7.444c0.75,0.793,0.091,3.281-1.605,6.168c-0.244,0.113-0.515,0.342-0.765,0.703
	c-2.155,3.101-5.316,6.864-8.755,10.106c-8.844,8.34-17.407,13.4-19.144,11.562c-0.988-1.049,0.633-4.437,3.591-8.459h-0.82
	c-3.136,4.275-4.834,7.966-3.578,9.3c2.184,2.312,12.09-3.346,20.917-11.67c4.001-3.77,7.039-6.971,8.913-9.812
	c0.54-0.82,0.562-1.4,0.337-1.659C73.363,42.702,74.126,40.144,73.046,38.997z"/>
<g id="logo-type">
	<path fill="#414042" d="M93.225,46.371c0-0.305-0.187-0.431-0.548-0.431h-0.567v1.499h0.246v-0.643h0.231l0.388,0.643h0.278
		l-0.422-0.659C93.057,46.755,93.225,46.643,93.225,46.371z M92.354,46.588V46.15h0.297c0.148,0,0.326,0.023,0.326,0.204
		c0,0.216-0.162,0.234-0.348,0.234H92.354z"/>
	<path fill="#414042" d="M92.622,45.31c-0.718,0-1.332,0.539-1.332,1.354c0,0.771,0.556,1.354,1.332,1.354
		c0.71,0,1.323-0.539,1.323-1.354S93.332,45.31,92.622,45.31z M92.622,47.783c-0.644,0-1.042-0.504-1.042-1.119
		c0-0.659,0.456-1.119,1.042-1.119c0.58,0,1.035,0.46,1.035,1.119C93.657,47.326,93.202,47.783,92.622,47.783z"/>
	<polygon fill="#414042" points="29.006,55.566 26.268,45.505 24.104,45.505 21.385,55.566 18.688,45.505 16.505,45.505 
		20.293,59.357 22.497,59.357 25.215,49.296 27.895,59.357 30.096,59.357 33.887,45.505 31.704,45.505 	"/>
	<path fill="#414042" d="M40.711,59.357h2.182v-6.053c0-3.038-1.189-3.833-2.956-3.833c-0.991,0-1.805,0.179-2.817,0.557h-0.08
		l0.04-1.271v-3.393l-2.184,0.178v13.812h2.184v-7.642c0.556-0.158,1.092-0.298,1.727-0.298c1.012,0,1.904,0.238,1.904,2.062V59.357
		z"/>
	<path fill="#414042" d="M36.152,42.327c0.24-0.141,0.434-0.287,0.575-0.438c0.145-0.149,0.235-0.303,0.273-0.459
		c0.039-0.158,0.024-0.313-0.046-0.472c-0.069-0.157-0.191-0.313-0.369-0.466c-0.177-0.153-0.408-0.303-0.69-0.448
		c-0.28-0.144-0.614-0.282-0.993-0.414c-0.381-0.13-0.807-0.255-1.275-0.368c-0.468-0.113-0.979-0.217-1.521-0.307
		c-0.545-0.092-1.122-0.172-1.727-0.239c-0.604-0.067-1.233-0.119-1.88-0.159c-0.646-0.039-1.311-0.063-1.981-0.073
		c-0.669-0.009-1.347-0.005-2.021,0.015c-0.673,0.021-1.342,0.057-1.998,0.107c-0.654,0.051-1.297,0.116-1.912,0.197
		c-0.618,0.078-1.211,0.172-1.77,0.279c-0.559,0.106-1.082,0.229-1.564,0.359c-0.481,0.131-0.92,0.273-1.31,0.426
		c-0.388,0.152-0.726,0.315-1.007,0.484c-0.281,0.168-0.505,0.344-0.668,0.525c-0.164,0.18-0.267,0.365-0.305,0.553
		c-0.039,0.187-0.013,0.375,0.077,0.562s0.245,0.374,0.463,0.557c0.217,0.182,0.5,0.36,0.842,0.532
		c0.343,0.17,0.744,0.335,1.201,0.488c0.458,0.155,0.97,0.3,1.531,0.434c0.561,0.133,1.169,0.254,1.818,0.361
		c0.648,0.106,1.336,0.199,2.053,0.275c0.716,0.078,1.46,0.14,2.229,0.184c0.111,0.007,0.223,0.015,0.334,0.02
		c0.105,0.005,0.198-0.005,0.295-0.05c0.085-0.037,0.174-0.108,0.184-0.207c0.008-0.103-0.075-0.179-0.159-0.221
		c-0.095-0.048-0.187-0.065-0.29-0.072c-0.391-0.024-0.777-0.055-1.158-0.09c-0.486-0.046-0.961-0.1-1.42-0.163
		c-0.455-0.063-0.895-0.135-1.312-0.215c-0.412-0.077-0.805-0.163-1.171-0.256c-0.3-0.075-0.583-0.156-0.846-0.241
		c-0.718-0.229-1.294-0.488-1.698-0.765c-0.175-0.121-0.319-0.246-0.427-0.37c-0.108-0.124-0.182-0.251-0.221-0.379
		c-0.04-0.126-0.044-0.253-0.015-0.38c0.03-0.125,0.092-0.25,0.188-0.373c0.097-0.12,0.226-0.242,0.387-0.359
		c0.158-0.115,0.349-0.228,0.569-0.336c0.219-0.108,0.467-0.213,0.742-0.312c0.15-0.055,0.309-0.107,0.476-0.156
		c0.3-0.094,0.623-0.18,0.969-0.258c0.185-0.043,0.375-0.082,0.571-0.123c0.361-0.07,0.741-0.135,1.137-0.191
		c0.396-0.058,0.806-0.107,1.227-0.149c0.416-0.04,0.842-0.075,1.275-0.101c0.432-0.024,0.87-0.043,1.311-0.052
		c0.435-0.009,0.871-0.011,1.307-0.003c0.432,0.006,0.863,0.021,1.287,0.045c0.419,0.021,0.832,0.053,1.234,0.09
		c0.398,0.037,0.787,0.083,1.162,0.137c0.371,0.05,0.729,0.108,1.066,0.173c0.668,0.127,1.268,0.278,1.773,0.45
		c0.494,0.166,0.898,0.354,1.195,0.55c0.29,0.194,0.475,0.396,0.546,0.603c0.07,0.201,0.03,0.406-0.118,0.604
		c-0.146,0.194-0.397,0.384-0.746,0.56c-0.34,0.172-0.773,0.331-1.283,0.471c-0.332,0.093-0.699,0.174-1.09,0.249
		c0.098-0.091,0.169-0.176,0.186-0.312c0.018-0.137-0.064-0.234-0.195-0.281c-0.239-0.09-0.545-0.006-0.758,0.067
		c-0.115,0.04-0.234,0.077-0.359,0.114c-0.248,0.072-0.516,0.137-0.799,0.193c-0.28,0.058-0.575,0.104-0.879,0.146
		c-0.304,0.04-0.615,0.071-0.932,0.093c-0.314,0.022-0.634,0.037-0.951,0.042c-0.094,0.002-0.189,0.002-0.283,0.002
		c-0.283,0-0.562-0.004-0.84-0.012c-0.394-0.012-0.78-0.032-1.151-0.058c-0.37-0.029-0.728-0.064-1.065-0.104
		c-0.338-0.043-0.656-0.092-0.951-0.146c-0.295-0.054-0.565-0.113-0.811-0.178c-0.229-0.061-0.432-0.123-0.611-0.189
		c-0.092-0.035-0.182-0.057-0.283-0.055c-0.087,0-0.205,0.022-0.253,0.107c-0.048,0.088,0.007,0.188,0.065,0.25
		c0.066,0.072,0.145,0.118,0.236,0.155c0.043,0.018,0.088,0.035,0.133,0.053c0.203,0.077,0.423,0.149,0.66,0.216
		c0.239,0.069,0.494,0.133,0.764,0.189c0.271,0.057,0.557,0.108,0.855,0.154c0.299,0.047,0.609,0.085,0.93,0.119
		c0.322,0.033,0.654,0.06,0.988,0.079c0.341,0.019,0.684,0.03,1.027,0.035c0.351,0.004,0.701,0.001,1.051-0.011
		c0.351-0.01,0.7-0.028,1.043-0.055c0.254-0.018,0.502-0.041,0.748-0.069c0.061-0.004,0.121-0.014,0.181-0.019
		c0,0.127,0.163,0.202,0.263,0.234c0.127,0.039,0.249,0.051,0.38,0.039c0.537-0.038,1.062-0.091,1.567-0.154
		c0.514-0.064,1.006-0.141,1.473-0.228c0.467-0.087,0.904-0.187,1.309-0.294c0.405-0.107,0.775-0.225,1.104-0.352
		C35.625,42.601,35.912,42.467,36.152,42.327z"/>
	<path fill="#414042" d="M26.744,41.489c-0.041-0.059-0.109-0.115-0.209-0.167c-0.09-0.048-0.205-0.091-0.34-0.131
		c-0.123-0.034-0.264-0.063-0.417-0.088c-0.137-0.021-0.284-0.036-0.438-0.046c-0.104-0.007-0.211-0.012-0.317-0.012
		c-0.107,0-0.216,0.005-0.319,0.012c-0.152,0.01-0.301,0.025-0.438,0.046c-0.154,0.024-0.295,0.054-0.417,0.088
		c-0.136,0.04-0.251,0.083-0.341,0.131c-0.099,0.052-0.168,0.108-0.209,0.167c-0.043,0.062-0.051,0.128-0.025,0.191
		c0.027,0.068,0.092,0.137,0.19,0.201c0.105,0.068,0.251,0.135,0.425,0.192c0.188,0.062,0.408,0.118,0.652,0.163
		c0.261,0.049,0.549,0.086,0.85,0.112c0.157,0.015,0.318,0.024,0.482,0.033c0.168,0.009,0.338,0.013,0.509,0.014
		c0.036,0,0.07,0,0.104,0c0.15,0,0.303-0.003,0.452-0.007c0.19-0.005,0.38-0.014,0.566-0.025c0.388-0.026,0.761-0.067,1.104-0.119
		c0.361-0.057,0.691-0.125,0.975-0.205c0.301-0.082,0.553-0.177,0.746-0.277c0.206-0.105,0.35-0.219,0.428-0.335
		c0.047-0.072,0.072-0.146,0.072-0.218c0-0.051-0.011-0.102-0.035-0.152c-0.055-0.127-0.183-0.254-0.373-0.371
		c-0.197-0.124-0.462-0.239-0.783-0.343c-0.334-0.108-0.727-0.204-1.161-0.282c-0.45-0.081-0.946-0.145-1.465-0.189
		c-0.538-0.047-1.103-0.072-1.667-0.076c-0.059,0-0.115,0-0.17,0c-1.547,0-3.506,0.229-4.936,0.897
		c-0.104,0.047-0.196,0.104-0.278,0.183c-0.067,0.065-0.158,0.182-0.101,0.285c0.055,0.096,0.207,0.113,0.303,0.11
		c0.119-0.002,0.223-0.03,0.331-0.074c1.396-0.579,3.198-0.788,4.69-0.788c0.021,0,0.045,0,0.066,0c0.197,0,0.393,0.007,0.58,0.02
		c0.188,0.011,0.367,0.028,0.541,0.049c0.17,0.021,0.332,0.047,0.484,0.074c0.15,0.031,0.289,0.062,0.414,0.1
		c0.127,0.035,0.238,0.073,0.338,0.113c0.099,0.041,0.183,0.082,0.253,0.127c0.069,0.043,0.124,0.088,0.165,0.133
		s0.066,0.09,0.078,0.135c0.012,0.043,0.011,0.088-0.004,0.129c-0.016,0.042-0.041,0.084-0.082,0.122
		c-0.037,0.038-0.086,0.075-0.146,0.109c-0.059,0.034-0.125,0.065-0.201,0.095c-0.074,0.029-0.156,0.054-0.244,0.076
		c-0.086,0.023-0.178,0.041-0.271,0.059c-0.094,0.015-0.19,0.027-0.288,0.037c-0.014,0.002-0.028,0.004-0.044,0.004
		c-0.047,0.004-0.093,0.008-0.14,0.01c0.04-0.039,0.069-0.079,0.085-0.119C26.795,41.617,26.787,41.552,26.744,41.489z"/>
	<path fill="#414042" d="M72.516,49.474c3.098,0,4.287,1.826,4.287,5.061c0,3.035-1.111,5.021-4.326,5.021s-4.346-1.986-4.346-5.021
		C68.131,51.3,69.421,49.474,72.516,49.474z M74.58,54.534c0-1.846-0.299-3.354-2.043-3.354c-1.768,0-2.204,1.45-2.204,3.354
		c0,1.766,0.356,3.293,2.104,3.293C74.184,57.827,74.58,56.38,74.58,54.534z"/>
	<path fill="#414042" d="M45.889,45.684c1.132,0,1.311,0.656,1.311,1.39c0,0.734-0.238,1.409-1.311,1.409
		c-1.07,0-1.289-0.675-1.289-1.409C44.6,46.34,44.797,45.684,45.889,45.684z M44.797,49.612h2.184v9.746h-2.184V49.612z"/>
	<path fill="#414042" d="M48.826,49.612h1.488l0.297,0.795h0.139c0.574-0.496,1.488-0.934,2.68-0.934c0.139,0,0.297,0,0.455,0.021
		v2.144c-0.396-0.061-0.812-0.119-1.229-0.119c-0.597,0-1.071,0.139-1.646,0.396v7.442h-2.183L48.826,49.612L48.826,49.612z"/>
	<path fill="#414042" d="M54.816,59.357V45.545L57,45.367v13.99H54.816z"/>
	<path fill="#414042" d="M82.299,49.474c3.096,0,4.285,1.826,4.285,5.061c0,3.035-1.111,5.021-4.327,5.021
		c-3.214,0-4.344-1.986-4.344-5.021C77.913,51.3,79.202,49.474,82.299,49.474z M84.361,54.534c0-1.846-0.299-3.354-2.043-3.354
		c-1.767,0-2.202,1.45-2.202,3.354c0,1.766,0.356,3.293,2.102,3.293C83.965,57.827,84.361,56.38,84.361,54.534z"/>
	<path fill="#414042" d="M88.032,59.357V45.545l2.182-0.178v13.99H88.032z"/>
	<path fill="#414042" d="M60.948,51.854c0.534-0.178,1.069-0.277,1.627-0.277c1.126,0,1.854,0.325,2.114,1.413
		c0.565-0.628,1.115-1.255,1.642-1.879c-0.61-1.128-1.593-1.638-2.763-1.638c-1.094,0-2.205,0.496-2.858,0.854h-0.099l-0.18-0.714
		h-1.646v9.176c0.691-0.613,1.389-1.249,2.088-1.905C60.948,54.798,60.948,53.784,60.948,51.854z"/>
	<path fill="#414042" d="M64.771,54.791c-0.151,2.211-0.996,2.801-2.217,2.801c-0.246,0-0.466-0.004-0.679-0.01
		c-1.021,0.961-2.058,1.885-3.092,2.764v3.653l2.182-0.235v-4.468h0.062c0.615,0.12,1.291,0.199,1.904,0.199
		c2.541,0,4.067-1.687,4.067-5.101c0-0.652-0.054-1.234-0.147-1.75C66.205,53.34,65.512,54.055,64.771,54.791z"/>
</g>
</svg>
