<?xml version="1.0" encoding="utf-8"?>
<!-- Generator: Adobe Illustrator 15.1.0, SVG Export Plug-In . SVG Version: 6.00 Build 0)  -->
<!DOCTYPE svg PUBLIC "-//W3C//DTD SVG 1.1//EN" "http://www.w3.org/Graphics/SVG/1.1/DTD/svg11.dtd">
<svg version="1.1" id="Layer_1" xmlns="http://www.w3.org/2000/svg" xmlns:xlink="http://www.w3.org/1999/xlink" x="0px" y="0px"
	 width="792px" height="612px" viewBox="0 0 792 612" enable-background="new 0 0 792 612" xml:space="preserve">
<path d="M398.06,21.98c-14.128,14.153-14.128,37.293,0,51.467l169.462,169.425c14.134,14.153,9.329,25.735-10.666,25.735
	l-469.377-0.021c-19.983,0-36.378,16.392-36.378,36.376c0,19.987,16.395,36.356,36.378,36.356l469.377,0.018
	c20.035,0,24.84,11.581,10.707,25.735L398.06,536.542c-14.128,14.154-14.128,37.276,0,51.454l0,0
	c14.136,14.153,37.3,14.153,51.467,0l205.845-205.828c14.14-14.129,37.3-37.289,51.433-51.443
	c14.123-14.112,25.708-25.694,25.756-25.735c0,0-11.633-11.583-25.756-25.718L449.526,21.984
	C435.359,7.803,412.195,7.846,398.06,21.98L398.06,21.98z"/>
</svg>
