<?xml version="1.0" encoding="utf-8"?>
<!-- Generator: Adobe Illustrator 15.1.0, SVG Export Plug-In . SVG Version: 6.00 Build 0)  -->
<!DOCTYPE svg PUBLIC "-//W3C//DTD SVG 1.1//EN" "http://www.w3.org/Graphics/SVG/1.1/DTD/svg11.dtd">
<svg version="1.1" id="Layer_1" xmlns="http://www.w3.org/2000/svg" xmlns:xlink="http://www.w3.org/1999/xlink" x="0px" y="0px"
	 width="792px" height="612px" viewBox="0 0 792 612" enable-background="new 0 0 792 612" xml:space="preserve">
<g>
	<g>
		<path d="M320.15,14.934H128.072c-21.125,0-38.429,16.453-38.429,36.452v182.262c0,20.052,17.304,36.449,38.429,36.449H320.15
			c21.126,0,38.431-16.397,38.431-36.449V51.386C358.582,31.387,341.276,14.934,320.15,14.934z M665.894,14.934H473.855
			c-21.145,0-38.463,16.453-38.463,36.452v182.262c0,20.052,17.322,36.449,38.463,36.449h192.038
			c21.145,0,38.464-16.397,38.464-36.449V51.386C704.357,31.387,687.035,14.934,665.894,14.934z M320.15,342.986H128.072
			c-21.125,0-38.429,16.486-38.429,36.45v182.263c0,20.065,17.304,36.447,38.429,36.447H320.15
			c21.126,0,38.431-16.382,38.431-36.447V379.437C358.582,359.473,341.276,342.986,320.15,342.986z M665.894,342.986H473.855
			c-21.145,0-38.463,16.486-38.463,36.45v182.263c0,20.065,17.322,36.447,38.463,36.447h192.038
			c21.145,0,38.464-16.382,38.464-36.447V379.437C704.357,359.473,687.035,342.986,665.894,342.986z"/>
	</g>
</g>
</svg>
