<?xml version="1.0" encoding="utf-8"?>
<!-- Generator: Adobe Illustrator 15.1.0, SVG Export Plug-In . SVG Version: 6.00 Build 0)  -->
<!DOCTYPE svg PUBLIC "-//W3C//DTD SVG 1.1//EN" "http://www.w3.org/Graphics/SVG/1.1/DTD/svg11.dtd">
<svg version="1.1" id="Layer_1" xmlns="http://www.w3.org/2000/svg" xmlns:xlink="http://www.w3.org/1999/xlink" x="0px" y="0px"
	 width="792px" height="612px" viewBox="0 0 792 612" enable-background="new 0 0 792 612" xml:space="preserve">
<g>
	<g>
		<path d="M634.625,13.137H158.02c-40.5,0-73.325,32.826-73.325,73.326v439.939c0,40.502,32.828,73.328,73.325,73.328h476.609
			c40.498,0,73.324-32.829,73.324-73.328V86.463C707.953,45.965,675.123,13.137,634.625,13.137z M171.237,532.406
			c-9.532,0-17.308-7.746-17.308-17.314c0-9.545,7.776-17.306,17.308-17.306h55.102c-8.145,0-14.772,7.758-14.772,17.306
			c0,9.568,6.627,17.314,14.772,17.314H171.237z M621.269,532.406H315.052c8.18,0,14.81-7.746,14.81-17.314
			c0-9.545-6.629-17.306-14.81-17.306h306.216c9.537,0,17.312,7.758,17.312,17.306C638.576,524.66,630.806,532.406,621.269,532.406z
			 M638.576,428.553c0,19.116-15.48,34.617-34.616,34.617H188.544c-19.136,0-34.615-15.501-34.615-34.617V116.987
			c0-19.114,15.482-34.615,34.615-34.615H603.96c19.136,0,34.616,15.501,34.616,34.615V428.553L638.576,428.553z"/>
	</g>
</g>
</svg>
