<?xml version="1.0" encoding="utf-8"?>
<!-- Generator: Adobe Illustrator 16.0.4, SVG Export Plug-In . SVG Version: 6.00 Build 0)  -->
<!DOCTYPE svg PUBLIC "-//W3C//DTD SVG 1.1//EN" "http://www.w3.org/Graphics/SVG/1.1/DTD/svg11.dtd">
<svg version="1.1" id="nhl-logo" xmlns="http://www.w3.org/2000/svg" xmlns:xlink="http://www.w3.org/1999/xlink" x="0px" y="0px"
	 width="220.324px" height="250px" viewBox="0 0 220.324 250" enable-background="new 0 0 220.324 250" xml:space="preserve">
<g>
	<path d="M110.057,250l-13.705-15.045l-14.221-3.091c-14.942-2.267-39.88-7.523-58.738-26.896
		c-18.858-19.374-21.641-39.262-22.465-51.01c-0.824-11.748,2.68-24.32,5.977-32.152c3.298-7.832,7.213-18.961,7.522-31.121
		c0.309-12.16-5.049-24.938-5.049-24.938L0,44.105l18.034-5.462c13.087-3.607,14.942-14.736,14.942-14.736L42.147,0l20.61,16.797
		c16.591,13.5,32.873-1.237,32.873-1.237l14.53-14.015h0.003l14.53,14.015c0,0,16.282,14.737,32.873,1.237L178.177,0l9.171,23.908
		c0,0,1.855,11.129,14.942,14.736l18.034,5.462l-9.378,21.641c0,0-5.357,12.778-5.049,24.938s4.225,23.289,7.522,31.121
		c3.298,7.832,6.802,20.404,5.977,32.152c-0.824,11.748-3.607,31.636-22.465,51.01c-18.858,19.374-43.796,24.629-58.738,26.896
		l-14.221,3.091L110.267,250H110.057z"/>
	<path fill="#E6E7E9" d="M110.163,245.36l-11.444-12.562l-0.689-0.754l-0.998-0.218l-14.222-3.091l-0.1-0.021l-0.1-0.017
		c-15.943-2.418-39.188-7.742-56.925-25.962c-17.511-17.99-20.694-36.582-21.565-49.002c-0.952-13.571,4.15-26.918,5.735-30.685
		c4.98-11.831,7.521-22.391,7.772-32.282c0.322-12.701-5.069-25.711-5.299-26.257l-7.964-18.38l14.597-4.421
		C32.553,37.963,35.585,26.996,36.063,24.8l7.489-19.524l17.181,14.003c5.233,4.259,10.977,6.415,17.074,6.415
		c11.27,0,19.622-7.443,19.972-7.758l12.381-11.943l12.309,11.873c0.425,0.385,8.779,7.828,20.047,7.828
		c6.097,0,11.841-2.156,17.071-6.412l17.183-14.006l7.491,19.524c0.478,2.194,3.516,13.164,17.179,16.93l14.518,4.396l-7.951,18.348
		c-0.244,0.581-5.635,13.591-5.312,26.292c0.253,9.901,2.797,20.459,7.775,32.282c1.584,3.767,6.684,17.108,5.732,30.685
		c-0.87,12.42-4.054,31.012-21.564,49.002c-17.737,18.221-40.982,23.544-56.926,25.962l-0.1,0.017l-0.1,0.021l-14.221,3.091
		l-0.998,0.218l-0.689,0.754L110.163,245.36L110.163,245.36z"/>
	<path d="M109.921,16.667c-33.033,36.705-63.314,1.309-63.314,1.309c-7.571,30.58-31.976,32.859-31.976,32.859
		c2.94,5.734,7.572,16.466,9.188,28.521s-0.146,23.596-0.146,23.596c-1.397,11.467-12.203,29.183-12.203,46.457
		c0,15.149,3.969,27.86,12.864,40.43c8.895,12.57,21.463,23.376,48.441,29.036s29.183,6.837,29.183,6.837l8.012,8.454h0.018
		l8.012-8.454c0,0,2.206-1.177,29.183-6.837s39.546-16.466,48.441-29.036c8.895-12.57,12.865-25.281,12.864-40.43
		c0-17.274-10.806-34.989-12.203-46.457c0,0-1.763-11.541-0.146-23.596s6.249-22.788,9.188-28.521c0,0-24.404-2.279-31.976-32.859
		c0,0-30.281,35.396-63.314-1.309H109.921z"/>
	<path fill="#A6ADB3" d="M110.163,245.36l11.441-12.562l0.689-0.754l0.998-0.218l14.221-3.091l0.1-0.021l0.1-0.017
		c15.944-2.418,39.189-7.742,56.926-25.962c17.51-17.99,20.694-36.582,21.564-49.002c0.952-13.577-4.147-26.918-5.732-30.685
		c-0.207-0.491-0.409-0.979-0.607-1.465l-5.505,0.393c3.133,8.562,6.435,18.063,6.435,27.434c0.001,15.149-2.651,26.8-11.546,39.371
		c-8.895,12.57-25.086,24.435-52.064,30.095S118,225.711,118,225.711l-8.012,8.454h-0.018L110.163,245.36z"/>
	<path fill="#A6ADB3" d="M4.365,46.128l7.964,18.38c0.23,0.545,5.621,13.556,5.299,26.257c-0.251,9.891-2.792,20.451-7.772,32.282
		c-1.585,3.767-6.687,17.114-5.735,30.685c0.417,5.943,1.363,13.3,4.155,21.328l3.418-4.107c-1.787-6.182-2.963-14.678-2.963-21.674
		c0-17.273,13.545-34.859,14.942-46.326c0,0,1.763-11.541,0.146-23.596s-6.249-22.788-9.188-28.521L4.365,46.128z"/>
	<path fill="#A6ADB3" d="M46.606,17.976c0,0,30.281,35.396,63.314-1.309h0.116l0.124-10.674L97.779,17.936
		c-0.351,0.315-8.703,7.758-19.972,7.758c-6.097,0-11.841-2.156-17.074-6.415L43.553,5.275L46.606,17.976z"/>
	<path fill="#A6ADB3" d="M173.352,17.976c7.571,30.58,31.976,32.859,31.976,32.859l10.632-4.709l-14.518-4.396
		c-13.663-3.767-16.701-14.736-17.179-16.93l-7.491-19.524L173.352,17.976z"/>
	<path fill="#E6E7E9" d="M109.943,27.02c0,0-28.054,28.987-60.051,3.482c0,0-6.117,19.857-25.222,25.222
		c0,0,7.529,16.093,7.529,35.104s-6.399,30.68-8.188,35.857c-1.788,5.176-7.905,20.234-4.235,35.951
		c3.67,15.717,11.858,28.328,26.634,38.116s26.069,10.729,41.033,13.646s18.822,3.67,22.493,8.94h0.006
		c3.67-5.27,7.529-6.023,22.493-8.94s26.257-3.859,41.033-13.646s22.964-22.399,26.634-38.116
		c3.67-15.716-2.447-30.774-4.235-35.951c-1.788-5.177-8.188-16.846-8.188-35.857s7.529-35.104,7.529-35.104
		c-19.105-5.365-25.222-25.222-25.222-25.222C137.989,56.006,109.943,27.02,109.943,27.02z"/>
	<path d="M142.454,49.322c-14.349,0-25.922-6.584-32.51-11.443c-6.592,4.859-18.167,11.443-32.515,11.443
		c-8.34,0.002-16.441-2.191-24.183-6.533c-3.476,5.796-9.17,12.881-17.902,17.561c2.356,7.12,5.179,18.206,5.179,30.477
		c0,17.389-4.903,29.347-7.538,35.773c-0.471,1.146-0.877,2.136-1.106,2.802c-0.139,0.406-0.306,0.872-0.492,1.391
		c-0.81,2.269-1.96,5.511-2.89,9.339l121.447-91.435C147.47,49.097,144.975,49.322,142.454,49.322z M179.356,90.827
		c0-12.271,2.823-23.357,5.179-30.477c-6.908-3.703-11.908-8.909-15.419-13.792L26.967,153.529c0.074,2.368,0.348,4.787,0.916,7.215
		c3.344,14.326,10.691,24.832,23.125,33.067c2.069,1.371,4.047,2.54,5.975,3.555l123.425-92.924
		C179.769,100.348,179.356,95.819,179.356,90.827z M188.492,130.793c-0.186-0.519-0.353-0.985-0.492-1.391
		c-0.229-0.666-0.635-1.656-1.106-2.802c-1.161-2.832-2.762-6.74-4.19-11.711L67.418,201.646c4.866,1.484,9.835,2.4,15.566,3.448
		c1.96,0.359,3.971,0.728,6.053,1.131c9.98,1.946,16.23,3.166,20.9,5.877c4.671-2.711,10.924-3.931,20.906-5.877
		c2.08-0.403,4.091-0.772,6.051-1.131c11.986-2.191,20.646-3.776,31.977-11.283c12.431-8.233,19.778-18.741,23.125-33.067
		C194.84,148.575,190.551,136.564,188.492,130.793z"/>
	<path fill="#E6E7E9" d="M151.69,104.334V69.133l-15.464,11.598c5.901,1.017,4.884,6.511,4.884,6.511v37.235l29.165-21.975V90.431
		L151.69,104.334z M122.185,108.812l-11.869,8.885V100.13L94.92,111.931c5.494,0.746,4.951,6.24,4.951,6.24v37.303l10.445-7.867
		v-17.363l11.937-8.953v17.363l9.834-7.257V83.783l-9.903,7.462V108.812z M79.999,152.965l-13.226-20.144l-14.649,10.987
		c5.562,0.407,5.019,5.766,5.019,5.766v38.049l10.445-7.732v-27.13l11.937,18.109l10.852-8.139v-47.613l-10.377,7.868V152.965z"/>
</g>
</svg>
