<?xml version="1.0" encoding="utf-8"?>
<!-- Generator: Adobe Illustrator 16.0.4, SVG Export Plug-In . SVG Version: 6.00 Build 0)  -->
<!DOCTYPE svg PUBLIC "-//W3C//DTD SVG 1.1//EN" "http://www.w3.org/Graphics/SVG/1.1/DTD/svg11.dtd">
<svg version="1.1" id="Layer_1" xmlns="http://www.w3.org/2000/svg" xmlns:xlink="http://www.w3.org/1999/xlink" x="0px" y="0px"
	 width="210px" height="35px" viewBox="0 0 210 35" enable-background="new 0 0 210 35" xml:space="preserve">
<path fill="#FFFFFF" d="M9.573,0.999H0.104v33.069h9.417c5.008,0,8.625-1.18,11.799-3.817c3.772-3.123,6.003-7.828,6.003-12.693
	C27.324,7.797,20.033,0.999,9.573,0.999z M17.107,25.842c-2.026,1.828-4.659,2.627-8.826,2.627H6.549V6.603h1.732
	c4.167,0,6.695,0.744,8.826,2.674c2.232,1.985,3.572,5.063,3.572,8.231C20.679,20.682,19.339,23.857,17.107,25.842z"/>
<rect x="30.293" y="0.999" fill="#FFFFFF" width="6.449" height="33.069"/>
<path fill="#FFFFFF" d="M52.514,13.688c-3.871-1.432-5.007-2.377-5.007-4.163c0-2.083,2.025-3.666,4.805-3.666
	c1.934,0,3.521,0.794,5.202,2.679l3.375-4.419c-2.774-2.426-6.093-3.667-9.717-3.667c-5.851,0-10.314,4.064-10.314,9.476
	c0,4.556,2.079,6.887,8.136,9.068c2.524,0.891,3.809,1.484,4.458,1.883c1.288,0.84,1.935,2.031,1.935,3.422
	c0,2.68-2.131,4.664-5.01,4.664c-3.075,0-5.554-1.537-7.039-4.408l-4.167,4.01c2.972,4.363,6.541,6.295,11.448,6.295
	c6.704,0,11.406-4.453,11.406-10.854C62.026,18.75,59.853,16.373,52.514,13.688z"/>
<path fill="#FFFFFF" d="M64.061,17.557c0,9.718,7.633,17.255,17.455,17.255c2.776,0,5.153-0.547,8.086-1.924v-7.597
	c-2.58,2.58-4.864,3.621-7.788,3.621c-6.496,0-11.107-4.709-11.107-11.406c0-6.348,4.758-11.356,10.809-11.356
	c3.075,0,5.406,1.096,8.086,3.72V2.283c-2.831-1.436-5.159-2.031-7.935-2.031C71.896,0.252,64.061,7.941,64.061,17.557z"/>
<polygon fill="#FFFFFF" points="140.744,23.209 131.924,0.999 124.879,0.999 138.912,34.918 142.383,34.918 156.668,0.999 
	149.676,0.999 "/>
<polygon fill="#FFFFFF" points="159.584,34.068 177.877,34.068 177.877,28.469 166.031,28.469 166.031,19.543 177.439,19.543 
	177.439,13.941 166.031,13.941 166.031,6.603 177.877,6.603 177.877,0.999 159.584,0.999 "/>
<path fill="#FFFFFF" d="M203.42,10.761c0-6.188-4.268-9.762-11.707-9.762h-9.562v33.069h6.439V20.783h0.846l8.926,13.285h7.934
	l-10.412-13.934C200.742,19.148,203.42,15.826,203.42,10.761z M190.479,16.223h-1.889V6.208h1.988c4.018,0,6.201,1.683,6.201,4.902
	C196.779,14.434,194.596,16.223,190.479,16.223z"/>
<g>
	<path fill="#FFFFFF" d="M208.559,2.733c0-0.581-0.4-0.899-1.104-0.899h-0.936V4.75h0.693V3.619l0.816,1.131h0.85l-0.957-1.203
		C208.33,3.437,208.559,3.138,208.559,2.733z M207.332,3.131h-0.119V2.369h0.127c0.344,0,0.523,0.124,0.523,0.375
		C207.863,3.001,207.682,3.131,207.332,3.131z"/>
	<path fill="#FFFFFF" d="M207.594,0.744c-1.414,0-2.541,1.13-2.541,2.542s1.139,2.543,2.541,2.543c1.379,0,2.512-1.144,2.512-2.543
		C210.105,1.894,208.973,0.744,207.594,0.744z M207.584,5.375c-1.115,0-2.025-0.928-2.025-2.085c0-1.161,0.902-2.088,2.025-2.088
		c1.109,0,2.012,0.949,2.012,2.088C209.596,4.437,208.693,5.375,207.584,5.375z"/>
</g>
<g>
	<g>
		
			<linearGradient id="SVGID_1_" gradientUnits="userSpaceOnUse" x1="409.167" y1="1077.0312" x2="397.0425" y2="1058.0481" gradientTransform="matrix(1 0 0 1 -291 -1045.5)">
			<stop  offset="0" style="stop-color:#F9A020"/>
			<stop  offset="0.2041" style="stop-color:#F99D20"/>
			<stop  offset="0.4348" style="stop-color:#F79320"/>
			<stop  offset="0.6196" style="stop-color:#F68820"/>
			<stop  offset="0.7969" style="stop-color:#F57E20"/>
			<stop  offset="1" style="stop-color:#F47521"/>
		</linearGradient>
		<circle fill="url(#SVGID_1_)" cx="109.204" cy="17.498" r="17.511"/>
		
			<linearGradient id="SVGID_2_" gradientUnits="userSpaceOnUse" x1="407.252" y1="1076.7734" x2="389.5323" y2="1042.1398" gradientTransform="matrix(1 0 0 1 -291 -1045.5)">
			<stop  offset="0" style="stop-color:#F68820;stop-opacity:0"/>
			<stop  offset="0.3403" style="stop-color:#E17029;stop-opacity:0.2565"/>
			<stop  offset="0.6944" style="stop-color:#D4602D;stop-opacity:0.5235"/>
			<stop  offset="0.9816" style="stop-color:#D05B2E;stop-opacity:0.74"/>
		</linearGradient>
		<circle opacity="0.65" fill="url(#SVGID_2_)" enable-background="new    " cx="109.204" cy="17.498" r="17.511"/>
	</g>
</g>
</svg>
