<?xml version="1.0" encoding="utf-8"?>
<!-- Generator: Adobe Illustrator 16.0.4, SVG Export Plug-In . SVG Version: 6.00 Build 0)  -->
<!DOCTYPE svg PUBLIC "-//W3C//DTD SVG 1.1//EN" "http://www.w3.org/Graphics/SVG/1.1/DTD/svg11.dtd">
<svg version="1.1" id="Layer_1" xmlns="http://www.w3.org/2000/svg" xmlns:xlink="http://www.w3.org/1999/xlink" x="0px" y="0px"
	 width="210px" height="35.02px" viewBox="0 0 210 35.02" enable-background="new 0 0 210 35.02" xml:space="preserve">
<g>
	<path fill="#FFFFFF" d="M9.467,0.967H0v33.071h9.417c5.009,0,8.625-1.183,11.799-3.822c3.773-3.119,6.001-7.826,6.001-12.693
		C27.217,7.764,19.927,0.967,9.467,0.967z M17.003,25.812c-2.028,1.829-4.662,2.619-8.826,2.619H6.445V6.572h1.732
		c4.164,0,6.694,0.743,8.826,2.675c2.233,1.983,3.572,5.061,3.572,8.229C20.575,20.646,19.236,23.825,17.003,25.812z"/>
	<rect x="30.187" y="0.967" fill="#FFFFFF" width="6.45" height="33.071"/>
	<path fill="#FFFFFF" d="M52.408,13.658C48.537,12.226,47.4,11.28,47.4,9.493c0-2.082,2.026-3.667,4.805-3.667
		c1.935,0,3.521,0.795,5.204,2.679l3.376-4.419c-2.774-2.423-6.095-3.663-9.718-3.663c-5.851,0-10.315,4.061-10.315,9.473
		c0,4.554,2.082,6.887,8.139,9.065c2.521,0.893,3.809,1.482,4.457,1.882c1.29,0.838,1.935,2.032,1.935,3.424
		c0,2.68-2.132,4.668-5.01,4.668c-3.075,0-5.554-1.543-7.036-4.414l-4.168,4.014c2.971,4.361,6.541,6.3,11.45,6.3
		c6.702,0,11.405-4.46,11.405-10.857C61.921,18.718,59.749,16.342,52.408,13.658z"/>
	<path fill="#FFFFFF" d="M63.957,17.523c0,9.724,7.63,17.254,17.454,17.254c2.776,0,5.152-0.54,8.087-1.922v-7.594
		c-2.579,2.575-4.867,3.625-7.788,3.625c-6.495,0-11.106-4.71-11.106-11.41c0-6.349,4.757-11.357,10.807-11.357
		c3.075,0,5.408,1.098,8.087,3.718V2.25c-2.833-1.437-5.162-2.027-7.937-2.027C71.79,0.222,63.957,7.911,63.957,17.523z"/>
	<polygon fill="#FFFFFF" points="140.641,23.181 131.82,0.967 124.77,0.967 138.807,34.887 142.279,34.887 156.559,0.967 
		149.568,0.967 	"/>
	<polygon fill="#FFFFFF" points="159.482,34.038 177.774,34.038 177.774,28.432 165.925,28.432 165.925,19.512 177.336,19.512 
		177.336,13.909 165.925,13.909 165.925,6.572 177.774,6.572 177.774,0.967 159.482,0.967 	"/>
	<path fill="#FFFFFF" d="M203.31,10.728c0-6.188-4.26-9.761-11.705-9.761h-9.558v33.071h6.438V20.752h0.842l8.931,13.286h7.928
		l-10.406-13.932C200.633,19.117,203.31,15.795,203.31,10.728z M190.369,16.189h-1.885V6.177h1.989c4.013,0,6.201,1.681,6.201,4.901
		C196.675,14.402,194.486,16.189,190.369,16.189z"/>
	<g>
		<path fill="#FFFFFF" d="M208.448,2.702c0-0.583-0.401-0.9-1.102-0.9h-0.938v2.916h0.701V3.585l0.815,1.133h0.85l-0.962-1.201
			C208.222,3.407,208.448,3.107,208.448,2.702z M207.222,3.101h-0.112V2.335h0.119c0.348,0,0.528,0.124,0.528,0.377
			C207.757,2.968,207.574,3.101,207.222,3.101z"/>
		<path fill="#FFFFFF" d="M207.49,0.71c-1.416,0-2.547,1.13-2.547,2.542c0,1.414,1.143,2.544,2.547,2.544
			c1.373,0,2.51-1.144,2.51-2.544C210,1.864,208.863,0.71,207.49,0.71z M207.479,5.345c-1.119,0-2.026-0.93-2.026-2.089
			c0-1.16,0.899-2.087,2.026-2.087c1.106,0,2.013,0.948,2.013,2.087C209.492,4.403,208.586,5.345,207.479,5.345z"/>
	</g>
	<g>
		<circle fill="#FFFFFF" cx="109.123" cy="17.49" r="17.473"/>
		<g>
			<defs>
				<circle id="SVGID_1_" cx="109.126" cy="17.486" r="17.509"/>
			</defs>
			<use xlink:href="#SVGID_1_"  overflow="visible" fill="#FFFFFF"/>
			<clipPath id="SVGID_2_">
				<use xlink:href="#SVGID_1_"  overflow="visible"/>
			</clipPath>
			<circle clip-path="url(#SVGID_2_)" fill="#FFFFFF" cx="109.126" cy="17.486" r="17.509"/>
			<circle clip-path="url(#SVGID_2_)" fill="#FFFFFF" cx="109.126" cy="17.486" r="17.509"/>
			<g opacity="0.5" clip-path="url(#SVGID_2_)">
				<path fill="#FFFFFF" d="M127.033,17.544c0,9.858-7.996,17.854-17.857,17.854c-9.859,0-17.854-7.995-17.854-17.854
					c0-9.866,7.994-17.862,17.854-17.862C119.037-0.318,127.033,7.678,127.033,17.544z"/>
				<path fill="#FFFFFF" d="M109.186-0.306c9.86,0,17.855,7.996,17.855,17.86c0,9.857-7.995,17.852-17.855,17.852
					c-9.859,0-17.852-7.994-17.852-17.852C91.333,7.69,99.327-0.306,109.186-0.306z"/>
				<path fill="#FFFFFF" d="M109.195-0.292c9.859,0,17.854,7.994,17.854,17.858c0,9.856-7.995,17.851-17.854,17.851
					c-9.857,0-17.85-7.994-17.85-17.851C91.345,7.702,99.338-0.292,109.195-0.292z"/>
				<path fill="#FFFFFF" d="M109.205-0.28c9.858,0,17.853,7.994,17.853,17.857c0,9.855-7.994,17.849-17.853,17.849
					c-9.856,0-17.849-7.993-17.849-17.849C91.356,7.714,99.349-0.28,109.205-0.28z"/>
				<path fill="#FFFFFF" d="M109.215-0.267c9.857,0,17.85,7.993,17.85,17.855c0,9.854-7.992,17.847-17.85,17.847
					c-9.856,0-17.847-7.993-17.847-17.847C91.368,7.726,99.359-0.267,109.215-0.267z"/>
				<path fill="#FFFFFF" d="M109.225-0.253c9.856,0,17.849,7.992,17.849,17.854c0,9.853-7.992,17.845-17.849,17.845
					c-9.855,0-17.845-7.992-17.845-17.845C91.38,7.738,99.37-0.253,109.225-0.253z"/>
				<path fill="#FFFFFF" d="M109.234-0.241c9.855,0,17.847,7.991,17.847,17.852c0,9.853-7.991,17.843-17.847,17.843
					c-9.854,0-17.844-7.99-17.844-17.843C91.391,7.75,99.38-0.241,109.234-0.241z"/>
				<path fill="#FFFFFF" d="M109.244-0.228c9.854,0,17.845,7.991,17.845,17.85c0,9.852-7.99,17.842-17.845,17.842
					c-9.853,0-17.842-7.99-17.842-17.842C91.402,7.763,99.391-0.228,109.244-0.228z"/>
				<path fill="#FFFFFF" d="M109.253-0.215c9.854,0,17.844,7.99,17.844,17.848c0,9.851-7.989,17.84-17.844,17.84
					c-9.852,0-17.839-7.989-17.839-17.84C91.414,7.775,99.401-0.215,109.253-0.215z"/>
				<path fill="#FFFFFF" d="M109.263-0.202c9.853,0,17.842,7.988,17.842,17.846c0,9.85-7.989,17.838-17.842,17.838
					c-9.851,0-17.838-7.988-17.838-17.838C91.425,7.786,99.412-0.202,109.263-0.202z"/>
				<path fill="#FFFFFF" d="M109.272-0.189c9.853,0,17.841,7.988,17.841,17.844c0,9.85-7.988,17.837-17.841,17.837
					c-9.85,0-17.836-7.987-17.836-17.837C91.437,7.799,99.423-0.189,109.272-0.189z"/>
				<path fill="#FFFFFF" d="M109.282-0.177c9.852,0,17.838,7.988,17.838,17.843c0,9.848-7.986,17.835-17.838,17.835
					c-9.849,0-17.834-7.987-17.834-17.835C91.448,7.811,99.434-0.177,109.282-0.177z"/>
				<path fill="#FFFFFF" d="M109.292-0.164c9.85,0,17.836,7.987,17.836,17.841c0,9.847-7.986,17.833-17.836,17.833
					c-9.848,0-17.833-7.986-17.833-17.833C91.459,7.823,99.444-0.164,109.292-0.164z"/>
				<path fill="#FFFFFF" d="M109.302-0.15c9.849,0,17.835,7.986,17.835,17.839c0,9.846-7.986,17.832-17.835,17.832
					c-9.847,0-17.831-7.985-17.831-17.832C91.471,7.835,99.455-0.15,109.302-0.15z"/>
				<path fill="#FFFFFF" d="M109.312-0.138c9.849,0,17.833,7.985,17.833,17.837c0,9.845-7.984,17.831-17.833,17.831
					c-9.846,0-17.829-7.985-17.829-17.831C91.482,7.848,99.465-0.138,109.312-0.138z"/>
				<path fill="#FFFFFF" d="M109.321-0.125c9.847,0,17.831,7.984,17.831,17.835c0,9.844-7.984,17.828-17.831,17.828
					c-9.845,0-17.828-7.984-17.828-17.828C91.494,7.86,99.476-0.125,109.321-0.125z"/>
				<path fill="#FFFFFF" d="M109.331-0.112c9.846,0,17.829,7.983,17.829,17.834c0,9.843-7.983,17.826-17.829,17.826
					c-9.845,0-17.827-7.982-17.827-17.826C91.504,7.871,99.486-0.112,109.331-0.112z"/>
				<path fill="#FFFFFF" d="M109.341-0.099c9.845,0,17.827,7.982,17.827,17.832c0,9.842-7.982,17.825-17.827,17.825
					c-9.844,0-17.825-7.982-17.825-17.825C91.516,7.883,99.497-0.099,109.341-0.099z"/>
				<path fill="#FFFFFF" d="M109.351-0.085c9.844,0,17.825,7.981,17.825,17.83c0,9.841-7.981,17.823-17.825,17.823
					c-9.843,0-17.823-7.981-17.823-17.823C91.528,7.896,99.508-0.085,109.351-0.085z"/>
				<path fill="#FFFFFF" d="M109.36-0.073c9.843,0,17.824,7.981,17.824,17.829c0,9.84-7.981,17.822-17.824,17.822
					c-9.842,0-17.821-7.981-17.821-17.822C91.54,7.908,99.519-0.073,109.36-0.073z"/>
				<path fill="#FFFFFF" d="M109.369-0.061c9.843,0,17.823,7.98,17.823,17.827c0,9.839-7.98,17.819-17.823,17.819
					c-9.84,0-17.819-7.98-17.819-17.819C91.55,7.92,99.529-0.061,109.369-0.061z"/>
				<path fill="#FFFFFF" d="M109.38-0.047c9.841,0,17.82,7.98,17.82,17.825c0,9.838-7.979,17.818-17.82,17.818
					c-9.84,0-17.818-7.979-17.818-17.818C91.562,7.933,99.54-0.047,109.38-0.047z"/>
				<path fill="#FFFFFF" d="M109.39-0.034c9.84,0,17.818,7.979,17.818,17.823c0,9.838-7.979,17.816-17.818,17.816
					c-9.839,0-17.816-7.979-17.816-17.816C91.574,7.944,99.55-0.034,109.39-0.034z"/>
				<path fill="#FFFFFF" d="M109.399-0.021c9.839,0,17.816,7.978,17.816,17.821c0,9.837-7.978,17.814-17.816,17.814
					c-9.838,0-17.815-7.978-17.815-17.814C91.584,7.956,99.561-0.021,109.399-0.021z"/>
				<path fill="#FFFFFF" d="M109.408-0.009c9.839,0,17.816,7.977,17.816,17.82c0,9.835-7.978,17.813-17.816,17.813
					c-9.837,0-17.812-7.978-17.812-17.813C91.596,7.968,99.571-0.009,109.408-0.009z"/>
				<path fill="#FFFFFF" d="M109.418,0.004c9.838,0,17.813,7.976,17.813,17.818c0,9.835-7.976,17.812-17.813,17.812
					c-9.836,0-17.811-7.977-17.811-17.812C91.607,7.98,99.582,0.004,109.418,0.004z"/>
				<path fill="#FFFFFF" d="M109.428,0.018c9.837,0,17.812,7.976,17.812,17.816c0,9.833-7.976,17.809-17.812,17.809
					c-9.835,0-17.809-7.976-17.809-17.809C91.619,7.993,99.593,0.018,109.428,0.018z"/>
				<path fill="#FFFFFF" d="M109.438,0.03c9.836,0,17.811,7.975,17.811,17.814c0,9.833-7.975,17.808-17.811,17.808
					c-9.834,0-17.807-7.976-17.807-17.808C91.63,8.005,99.604,0.03,109.438,0.03z"/>
				<path fill="#FFFFFF" d="M109.447,0.043c9.834,0,17.809,7.974,17.809,17.812c0,9.832-7.975,17.807-17.809,17.807
					c-9.833,0-17.806-7.975-17.806-17.807C91.642,8.017,99.614,0.043,109.447,0.043z"/>
				<path fill="#FFFFFF" d="M109.457,0.056c9.834,0,17.807,7.973,17.807,17.811c0,9.831-7.973,17.805-17.807,17.805
					c-9.832,0-17.803-7.974-17.803-17.805C91.654,8.029,99.625,0.056,109.457,0.056z"/>
				<path fill="#FFFFFF" d="M109.467,0.069c9.833,0,17.806,7.973,17.806,17.809c0,9.83-7.973,17.803-17.806,17.803
					c-9.831,0-17.802-7.973-17.802-17.803C91.665,8.042,99.636,0.069,109.467,0.069z"/>
				<path fill="#FFFFFF" d="M109.477,0.082c9.832,0,17.804,7.972,17.804,17.807c0,9.829-7.972,17.801-17.804,17.801
					c-9.831,0-17.801-7.973-17.801-17.801C91.676,8.054,99.646,0.082,109.477,0.082z"/>
				<path fill="#FFFFFF" d="M109.486,0.095c9.831,0,17.801,7.971,17.801,17.806c0,9.828-7.97,17.8-17.801,17.8
					c-9.83,0-17.799-7.972-17.799-17.8C91.688,8.065,99.656,0.095,109.486,0.095z"/>
				<path fill="#FFFFFF" d="M109.496,0.107c9.829,0,17.799,7.97,17.799,17.804c0,9.827-7.97,17.798-17.799,17.798
					s-17.797-7.971-17.797-17.798C91.699,8.078,99.667,0.107,109.496,0.107z"/>
				<path fill="#FFFFFF" d="M109.506,0.121c9.828,0,17.798,7.969,17.798,17.802c0,9.827-7.97,17.796-17.798,17.796
					S91.71,27.749,91.71,17.922C91.71,8.09,99.678,0.121,109.506,0.121z"/>
				<path fill="#FFFFFF" d="M109.516,0.134c9.828,0,17.796,7.968,17.796,17.8c0,9.825-7.968,17.794-17.796,17.794
					c-9.827,0-17.794-7.969-17.794-17.794C91.722,8.102,99.688,0.134,109.516,0.134z"/>
				<path fill="#FFFFFF" d="M109.525,0.146c9.826,0,17.794,7.967,17.794,17.798c0,9.824-7.968,17.793-17.794,17.793
					c-9.827,0-17.792-7.969-17.792-17.793C91.733,8.114,99.699,0.146,109.525,0.146z"/>
				<path fill="#FFFFFF" d="M109.535,0.159c9.826,0,17.793,7.967,17.793,17.797c0,9.823-7.967,17.791-17.793,17.791
					c-9.825,0-17.791-7.968-17.791-17.791C91.745,8.126,99.71,0.159,109.535,0.159z"/>
				<path fill="#FFFFFF" d="M109.545,0.172c9.825,0,17.791,7.966,17.791,17.795c0,9.823-7.966,17.79-17.791,17.79
					c-9.824,0-17.789-7.967-17.789-17.79C91.756,8.139,99.721,0.172,109.545,0.172z"/>
				<path fill="#FFFFFF" d="M109.554,0.185c9.824,0,17.789,7.965,17.789,17.793c0,9.822-7.965,17.788-17.789,17.788
					c-9.823,0-17.786-7.966-17.786-17.788C91.768,8.15,99.731,0.185,109.554,0.185z"/>
				<path fill="#FFFFFF" d="M109.563,0.198c9.823,0,17.788,7.964,17.788,17.792c0,9.82-7.965,17.786-17.788,17.786
					c-9.822,0-17.785-7.966-17.785-17.786C91.779,8.162,99.742,0.198,109.563,0.198z"/>
				<path fill="#FFFFFF" d="M109.573,0.211c9.822,0,17.786,7.963,17.786,17.79c0,9.819-7.964,17.784-17.786,17.784
					c-9.821,0-17.783-7.965-17.783-17.784C91.79,8.174,99.752,0.211,109.573,0.211z"/>
				<path fill="#FFFFFF" d="M109.584,0.224c9.82,0,17.783,7.962,17.783,17.788c0,9.818-7.963,17.782-17.783,17.782
					c-9.821,0-17.782-7.964-17.782-17.782C91.802,8.187,99.763,0.224,109.584,0.224z"/>
				<path fill="#FFFFFF" d="M109.593,0.236c9.82,0,17.782,7.962,17.782,17.786c0,9.817-7.962,17.781-17.782,17.781
					c-9.819,0-17.779-7.964-17.779-17.781C91.813,8.199,99.773,0.236,109.593,0.236z"/>
				<path fill="#FFFFFF" d="M109.603,0.25c9.819,0,17.78,7.961,17.78,17.784c0,9.816-7.961,17.779-17.78,17.779
					c-9.818,0-17.778-7.963-17.778-17.779C91.824,8.211,99.784,0.25,109.603,0.25z"/>
				<path fill="#FFFFFF" d="M109.612,0.263c9.818,0,17.779,7.961,17.779,17.783c0,9.816-7.961,17.778-17.779,17.778
					c-9.817,0-17.776-7.962-17.776-17.778C91.836,8.224,99.795,0.263,109.612,0.263z"/>
				<path fill="#FFFFFF" d="M109.622,0.275c9.817,0,17.776,7.959,17.776,17.781c0,9.815-7.959,17.776-17.776,17.776
					c-9.816,0-17.774-7.961-17.774-17.776C91.848,8.235,99.806,0.275,109.622,0.275z"/>
				<path fill="#FFFFFF" d="M109.632,0.288c9.816,0,17.775,7.959,17.775,17.779c0,9.814-7.959,17.775-17.775,17.775
					c-9.816,0-17.773-7.961-17.773-17.775C91.859,8.247,99.816,0.288,109.632,0.288z"/>
				<path fill="#FFFFFF" d="M109.642,0.301c9.815,0,17.773,7.958,17.773,17.777c0,9.812-7.958,17.772-17.773,17.772
					c-9.815,0-17.771-7.96-17.771-17.772C91.87,8.259,99.827,0.301,109.642,0.301z"/>
				<path fill="#FFFFFF" d="M109.65,0.314c9.814,0,17.772,7.958,17.772,17.775c0,9.812-7.958,17.771-17.772,17.771
					c-9.813,0-17.769-7.959-17.769-17.771C91.881,8.271,99.837,0.314,109.65,0.314z"/>
				<path fill="#FFFFFF" d="M109.661,0.327c9.813,0,17.77,7.957,17.77,17.773c0,9.811-7.956,17.77-17.77,17.77
					c-9.813,0-17.768-7.959-17.768-17.77C91.893,8.284,99.848,0.327,109.661,0.327z"/>
				<path fill="#FFFFFF" d="M109.671,0.34c9.812,0,17.769,7.956,17.769,17.772c0,9.81-7.956,17.767-17.769,17.767
					s-17.766-7.957-17.766-17.767C91.905,8.296,99.858,0.34,109.671,0.34z"/>
				<path fill="#FFFFFF" d="M109.68,0.353c9.812,0,17.768,7.955,17.768,17.77c0,9.809-7.956,17.766-17.768,17.766
					c-9.811,0-17.764-7.957-17.764-17.766C91.916,8.308,99.869,0.353,109.68,0.353z"/>
				<path fill="#FFFFFF" d="M109.69,0.366c9.81,0,17.765,7.954,17.765,17.768c0,9.809-7.955,17.764-17.765,17.764
					c-9.811,0-17.763-7.955-17.763-17.764C91.927,8.32,99.88,0.366,109.69,0.366z"/>
				<path fill="#FFFFFF" d="M109.7,0.379c9.81,0,17.763,7.953,17.763,17.767c0,9.807-7.953,17.763-17.763,17.763
					s-17.761-7.956-17.761-17.763C91.939,8.332,99.891,0.379,109.7,0.379z"/>
				<path fill="#FFFFFF" d="M109.709,0.392c9.809,0,17.762,7.953,17.762,17.765c0,9.806-7.953,17.761-17.762,17.761
					c-9.808,0-17.759-7.955-17.759-17.761C91.95,8.344,99.901,0.392,109.709,0.392z"/>
				<path fill="#FFFFFF" d="M109.719,0.404c9.808,0,17.76,7.952,17.76,17.763c0,9.805-7.952,17.759-17.76,17.759
					c-9.807,0-17.758-7.954-17.758-17.759C91.961,8.356,99.912,0.404,109.719,0.404z"/>
				<path fill="#FFFFFF" d="M109.729,0.418c9.807,0,17.758,7.951,17.758,17.761c0,9.804-7.951,17.758-17.758,17.758
					c-9.806,0-17.756-7.954-17.756-17.758C91.973,8.369,99.922,0.418,109.729,0.418z"/>
				<path fill="#FFFFFF" d="M109.738,0.431c9.807,0,17.757,7.95,17.757,17.759c0,9.803-7.95,17.755-17.757,17.755
					c-9.805,0-17.753-7.952-17.753-17.755C91.985,8.381,99.933,0.431,109.738,0.431z"/>
				<path fill="#FFFFFF" d="M109.748,0.443c9.805,0,17.755,7.949,17.755,17.757c0,9.802-7.95,17.754-17.755,17.754
					c-9.804,0-17.752-7.952-17.752-17.754C91.996,8.393,99.944,0.443,109.748,0.443z"/>
				<path fill="#FFFFFF" d="M109.758,0.456c9.804,0,17.752,7.948,17.752,17.756c0,9.801-7.948,17.752-17.752,17.752
					s-17.751-7.951-17.751-17.752C92.007,8.404,99.954,0.456,109.758,0.456z"/>
				<path fill="#FFFFFF" d="M109.768,0.469c9.803,0,17.751,7.948,17.751,17.754c0,9.8-7.948,17.75-17.751,17.75
					s-17.749-7.95-17.749-17.75C92.019,8.417,99.965,0.469,109.768,0.469z"/>
				<path fill="#FFFFFF" d="M109.777,0.482c9.802,0,17.749,7.947,17.749,17.752c0,9.8-7.947,17.749-17.749,17.749
					S92.03,28.034,92.03,18.234C92.03,8.43,99.976,0.482,109.777,0.482z"/>
				<path fill="#FFFFFF" d="M109.787,0.495c9.801,0,17.747,7.947,17.747,17.75c0,9.799-7.946,17.747-17.747,17.747
					s-17.746-7.948-17.746-17.747C92.041,8.441,99.986,0.495,109.787,0.495z"/>
				<path fill="#FFFFFF" d="M109.797,0.508c9.8,0,17.745,7.945,17.745,17.749c0,9.797-7.945,17.746-17.745,17.746
					c-9.8,0-17.744-7.948-17.744-17.746C92.053,8.453,99.997,0.508,109.797,0.508z"/>
				<path fill="#FFFFFF" d="M109.807,0.521c9.799,0,17.744,7.944,17.744,17.747c0,9.797-7.945,17.744-17.744,17.744
					c-9.799,0-17.742-7.947-17.742-17.744C92.064,8.465,100.007,0.521,109.807,0.521z"/>
				<path fill="#FFFFFF" d="M109.816,0.534c9.799,0,17.742,7.944,17.742,17.745c0,9.796-7.943,17.742-17.742,17.742
					c-9.798,0-17.741-7.945-17.741-17.742C92.076,8.478,100.018,0.534,109.816,0.534z"/>
				<path fill="#FFFFFF" d="M109.826,0.547c9.797,0,17.74,7.942,17.74,17.743c0,9.795-7.943,17.74-17.74,17.74
					c-9.797,0-17.739-7.945-17.739-17.74C92.087,8.489,100.029,0.547,109.826,0.547z"/>
				<path fill="#FFFFFF" d="M109.836,0.56c9.795,0,17.738,7.942,17.738,17.741c0,9.794-7.943,17.738-17.738,17.738
					c-9.797,0-17.737-7.944-17.737-17.738C92.099,8.501,100.039,0.56,109.836,0.56z"/>
				<path fill="#FFFFFF" d="M109.846,0.572c9.795,0,17.736,7.941,17.736,17.74c0,9.792-7.941,17.737-17.736,17.737
					c-9.796,0-17.736-7.944-17.736-17.737C92.109,8.514,100.05,0.572,109.846,0.572z"/>
				<path fill="#FFFFFF" d="M109.855,0.586c9.794,0,17.734,7.94,17.734,17.738c0,9.792-7.94,17.735-17.734,17.735
					c-9.795,0-17.734-7.943-17.734-17.735C92.122,8.526,100.061,0.586,109.855,0.586z"/>
				<path fill="#FFFFFF" d="M109.864,0.598c9.794,0,17.733,7.94,17.733,17.736c0,9.791-7.939,17.733-17.733,17.733
					c-9.793,0-17.731-7.942-17.731-17.733C92.133,8.538,100.071,0.598,109.864,0.598z"/>
				<path fill="#FFFFFF" d="M109.874,0.611c9.793,0,17.731,7.939,17.731,17.734c0,9.791-7.938,17.732-17.731,17.732
					c-9.792,0-17.73-7.941-17.73-17.732C92.144,8.55,100.082,0.611,109.874,0.611z"/>
				<path fill="#FFFFFF" d="M109.884,0.624c9.792,0,17.73,7.938,17.73,17.733c0,9.789-7.938,17.73-17.73,17.73
					c-9.792,0-17.729-7.941-17.729-17.73C92.155,8.562,100.092,0.624,109.884,0.624z"/>
				<path fill="#FFFFFF" d="M109.895,0.637c9.79,0,17.728,7.938,17.728,17.731c0,9.788-7.938,17.729-17.728,17.729
					c-9.792,0-17.728-7.94-17.728-17.729C92.167,8.575,100.103,0.637,109.895,0.637z"/>
				<path fill="#FFFFFF" d="M109.903,0.649c9.79,0,17.727,7.938,17.727,17.729c0,9.787-7.937,17.728-17.727,17.728
					c-9.79,0-17.725-7.94-17.725-17.728C92.179,8.587,100.114,0.649,109.903,0.649z"/>
				<path fill="#FFFFFF" d="M109.913,0.662c9.788,0,17.725,7.936,17.725,17.728c0,9.786-7.937,17.726-17.725,17.726
					c-9.789,0-17.724-7.939-17.724-17.726C92.189,8.598,100.124,0.662,109.913,0.662z"/>
				<path fill="#FFFFFF" d="M109.923,0.676c9.788,0,17.723,7.935,17.723,17.726c0,9.785-7.935,17.724-17.723,17.724
					s-17.722-7.938-17.722-17.724C92.201,8.61,100.135,0.676,109.923,0.676z"/>
				<path fill="#FFFFFF" d="M109.933,0.688c9.787,0,17.722,7.935,17.722,17.724c0,9.784-7.935,17.721-17.722,17.721
					c-9.787,0-17.72-7.938-17.72-17.721C92.213,8.623,100.146,0.688,109.933,0.688z"/>
				<path fill="#FFFFFF" d="M109.942,0.701c9.786,0,17.72,7.934,17.72,17.722c0,9.784-7.934,17.72-17.72,17.72
					s-17.718-7.937-17.718-17.72C92.225,8.635,100.156,0.701,109.942,0.701z"/>
				<path fill="#FFFFFF" d="M109.951,0.714c9.785,0,17.719,7.933,17.719,17.72c0,9.782-7.934,17.719-17.719,17.719
					c-9.785,0-17.716-7.937-17.716-17.719C92.235,8.647,100.167,0.714,109.951,0.714z"/>
				<path fill="#FFFFFF" d="M109.961,0.728c9.785,0,17.717,7.932,17.717,17.718c0,9.782-7.932,17.716-17.717,17.716
					c-9.784,0-17.714-7.935-17.714-17.716C92.247,8.659,100.177,0.728,109.961,0.728z"/>
				<path fill="#FFFFFF" d="M109.972,0.74c9.782,0,17.714,7.932,17.714,17.717c0,9.78-7.932,17.716-17.714,17.716
					c-9.783,0-17.713-7.936-17.713-17.716C92.259,8.672,100.188,0.74,109.972,0.74z"/>
				<path fill="#FFFFFF" d="M109.981,0.753c9.781,0,17.712,7.93,17.712,17.715c0,9.779-7.931,17.713-17.712,17.713
					c-9.783,0-17.712-7.935-17.712-17.713C92.27,8.684,100.199,0.753,109.981,0.753z"/>
				<path fill="#FFFFFF" d="M109.99,0.766c9.781,0,17.711,7.93,17.711,17.713c0,9.778-7.93,17.711-17.711,17.711
					s-17.709-7.934-17.709-17.711C92.281,8.695,100.209,0.766,109.99,0.766z"/>
				<path fill="#FFFFFF" d="M110.001,0.779c9.779,0,17.708,7.929,17.708,17.711c0,9.777-7.929,17.71-17.708,17.71
					c-9.781,0-17.708-7.933-17.708-17.71C92.293,8.708,100.22,0.779,110.001,0.779z"/>
				<path fill="#FFFFFF" d="M110.01,0.792c9.779,0,17.708,7.928,17.708,17.71c0,9.776-7.929,17.708-17.708,17.708
					c-9.779,0-17.705-7.932-17.705-17.708C92.305,8.72,100.231,0.792,110.01,0.792z"/>
				<path fill="#FFFFFF" d="M110.02,0.805c9.778,0,17.706,7.928,17.706,17.708c0,9.775-7.928,17.707-17.706,17.707
					s-17.704-7.932-17.704-17.707C92.315,8.732,100.241,0.805,110.02,0.805z"/>
				<path fill="#FFFFFF" d="M110.029,0.817c9.777,0,17.703,7.927,17.703,17.706c0,9.774-7.926,17.705-17.703,17.705
					c-9.778,0-17.703-7.931-17.703-17.705C92.327,8.744,100.251,0.817,110.029,0.817z"/>
				<path fill="#FFFFFF" d="M110.039,0.83c9.776,0,17.702,7.926,17.702,17.705c0,9.774-7.926,17.703-17.702,17.703
					c-9.777,0-17.701-7.929-17.701-17.703C92.338,8.756,100.262,0.83,110.039,0.83z"/>
				<path fill="#FFFFFF" d="M110.05,0.844c9.774,0,17.699,7.925,17.699,17.703c0,9.773-7.925,17.702-17.699,17.702
					c-9.776,0-17.7-7.929-17.7-17.702C92.35,8.769,100.273,0.844,110.05,0.844z"/>
				<path fill="#FFFFFF" d="M110.059,0.856c9.774,0,17.698,7.924,17.698,17.701c0,9.772-7.924,17.7-17.698,17.7
					c-9.775,0-17.698-7.928-17.698-17.7C92.361,8.78,100.284,0.856,110.059,0.856z"/>
				<path fill="#FFFFFF" d="M110.068,0.869c9.773,0,17.696,7.923,17.696,17.699c0,9.771-7.923,17.699-17.696,17.699
					c-9.774,0-17.696-7.928-17.696-17.699C92.372,8.792,100.294,0.869,110.068,0.869z"/>
				<path fill="#FFFFFF" d="M110.078,0.882c9.772,0,17.695,7.922,17.695,17.697c0,9.77-7.923,17.697-17.695,17.697
					c-9.773,0-17.694-7.927-17.694-17.697C92.384,8.805,100.305,0.882,110.078,0.882z"/>
				<path fill="#FFFFFF" d="M110.088,0.896c9.771,0,17.693,7.922,17.693,17.695c0,9.77-7.922,17.694-17.693,17.694
					c-9.772,0-17.692-7.925-17.692-17.694C92.396,8.817,100.316,0.896,110.088,0.896z"/>
				<path fill="#FFFFFF" d="M110.098,0.908c9.771,0,17.691,7.92,17.691,17.693c0,9.769-7.921,17.693-17.691,17.693
					c-9.771,0-17.691-7.925-17.691-17.693C92.407,8.829,100.326,0.908,110.098,0.908z"/>
				<path fill="#FFFFFF" d="M110.106,0.921c9.771,0,17.69,7.92,17.69,17.692c0,9.767-7.92,17.691-17.69,17.691
					c-9.77,0-17.688-7.924-17.688-17.691C92.418,8.841,100.336,0.921,110.106,0.921z"/>
				<path fill="#FFFFFF" d="M110.117,0.934c9.769,0,17.688,7.919,17.688,17.69c0,9.767-7.919,17.689-17.688,17.689
					c-9.77,0-17.688-7.923-17.688-17.689C92.429,8.853,100.348,0.934,110.117,0.934z"/>
				<path fill="#FFFFFF" d="M110.127,0.947c9.768,0,17.686,7.918,17.686,17.688c0,9.765-7.918,17.688-17.686,17.688
					c-9.769,0-17.686-7.923-17.686-17.688C92.441,8.865,100.358,0.947,110.127,0.947z"/>
				<path fill="#FFFFFF" d="M110.137,0.959c9.767,0,17.684,7.918,17.684,17.687c0,9.764-7.917,17.686-17.684,17.686
					c-9.768,0-17.685-7.922-17.685-17.686C92.452,8.877,100.369,0.959,110.137,0.959z"/>
				<path fill="#FFFFFF" d="M110.146,0.973c9.765,0,17.682,7.917,17.682,17.685c0,9.764-7.917,17.685-17.682,17.685
					c-9.768,0-17.683-7.921-17.683-17.685C92.464,8.89,100.379,0.973,110.146,0.973z"/>
				<path fill="#FFFFFF" d="M110.156,0.985c9.764,0,17.681,7.916,17.681,17.683c0,9.762-7.917,17.682-17.681,17.682
					c-9.767,0-17.681-7.92-17.681-17.682C92.476,8.901,100.39,0.985,110.156,0.985z"/>
				<path fill="#FFFFFF" d="M110.166,0.998c9.763,0,17.679,7.916,17.679,17.682c0,9.761-7.916,17.681-17.679,17.681
					c-9.765,0-17.679-7.92-17.679-17.681C92.487,8.914,100.401,0.998,110.166,0.998z"/>
				<path fill="#FFFFFF" d="M110.176,1.011c9.762,0,17.677,7.915,17.677,17.681c0,9.76-7.915,17.679-17.677,17.679
					c-9.765,0-17.678-7.919-17.678-17.679C92.498,8.926,100.411,1.011,110.176,1.011z"/>
				<path fill="#FFFFFF" d="M110.186,1.024c9.761,0,17.675,7.914,17.675,17.677c0,9.76-7.914,17.679-17.675,17.679
					c-9.764,0-17.676-7.919-17.676-17.679C92.51,8.938,100.422,1.024,110.186,1.024z"/>
				<path fill="#FFFFFF" d="M110.194,1.037c9.761,0,17.674,7.913,17.674,17.676c0,9.759-7.913,17.677-17.674,17.677
					c-9.762,0-17.673-7.918-17.673-17.677C92.521,8.95,100.433,1.037,110.194,1.037z"/>
				<path fill="#FFFFFF" d="M110.204,1.05c9.761,0,17.673,7.912,17.673,17.674c0,9.758-7.912,17.675-17.673,17.675
					s-17.672-7.917-17.672-17.675C92.532,8.962,100.443,1.05,110.204,1.05z"/>
				<path fill="#FFFFFF" d="M110.214,1.063c9.759,0,17.67,7.912,17.67,17.672c0,9.756-7.911,17.673-17.67,17.673
					c-9.76,0-17.67-7.917-17.67-17.673C92.544,8.975,100.454,1.063,110.214,1.063z"/>
				<path fill="#FFFFFF" d="M110.224,1.076c9.758,0,17.669,7.911,17.669,17.67c0,9.756-7.911,17.671-17.669,17.671
					c-9.759,0-17.669-7.915-17.669-17.671C92.555,8.986,100.465,1.076,110.224,1.076z"/>
				<path fill="#FFFFFF" d="M110.233,1.089c9.757,0,17.667,7.91,17.667,17.669c0,9.755-7.91,17.669-17.667,17.669
					c-9.759,0-17.667-7.914-17.667-17.669C92.566,8.999,100.475,1.089,110.233,1.089z"/>
				<path fill="#FFFFFF" d="M110.243,1.102c9.756,0,17.665,7.909,17.665,17.667c0,9.754-7.909,17.668-17.665,17.668
					c-9.757,0-17.665-7.914-17.665-17.668C92.578,9.011,100.486,1.102,110.243,1.102z"/>
				<path fill="#FFFFFF" d="M110.253,1.114c9.755,0,17.663,7.908,17.663,17.665c0,9.753-7.908,17.667-17.663,17.667
					c-9.757,0-17.664-7.914-17.664-17.667C92.589,9.022,100.496,1.114,110.253,1.114z"/>
				<path fill="#FFFFFF" d="M110.263,1.128c9.754,0,17.661,7.907,17.661,17.663c0,9.752-7.907,17.664-17.661,17.664
					c-9.756,0-17.662-7.912-17.662-17.664C92.601,9.035,100.507,1.128,110.263,1.128z"/>
				<path fill="#FFFFFF" d="M110.271,1.141c9.754,0,17.66,7.906,17.66,17.662c0,9.75-7.906,17.662-17.66,17.662
					s-17.659-7.912-17.659-17.662C92.612,9.047,100.518,1.141,110.271,1.141z"/>
				<circle fill="#FFFFFF" cx="110.281" cy="18.814" r="17.661"/>
				<path fill="#FFFFFF" d="M110.291,1.166c9.752,0,17.657,7.905,17.657,17.658c0,9.749-7.905,17.659-17.657,17.659
					s-17.656-7.91-17.656-17.659C92.635,9.071,100.539,1.166,110.291,1.166z"/>
				<path fill="#FFFFFF" d="M110.301,1.179c9.75,0,17.655,7.905,17.655,17.657c0,9.747-7.905,17.657-17.655,17.657
					c-9.751,0-17.654-7.91-17.654-17.657C92.646,9.083,100.55,1.179,110.301,1.179z"/>
				<path fill="#FFFFFF" d="M110.312,1.192c9.749,0,17.652,7.904,17.652,17.655c0,9.747-7.903,17.656-17.652,17.656
					c-9.751,0-17.654-7.909-17.654-17.656C92.658,9.096,100.56,1.192,110.312,1.192z"/>
				<path fill="#FFFFFF" d="M110.32,1.205c9.749,0,17.651,7.902,17.651,17.652c0,9.746-7.902,17.654-17.651,17.654
					c-9.75,0-17.651-7.908-17.651-17.654C92.669,9.107,100.571,1.205,110.32,1.205z"/>
				<path fill="#FFFFFF" d="M110.33,1.218c9.748,0,17.649,7.902,17.649,17.651c0,9.745-7.901,17.652-17.649,17.652
					c-9.749,0-17.649-7.907-17.649-17.652C92.681,9.12,100.581,1.218,110.33,1.218z"/>
				<path fill="#FFFFFF" d="M110.34,1.231c9.747,0,17.647,7.901,17.647,17.649c0,9.744-7.9,17.65-17.647,17.65
					c-9.748,0-17.648-7.906-17.648-17.65C92.692,9.132,100.592,1.231,110.34,1.231z"/>
				<path fill="#FFFFFF" d="M110.35,1.244c9.746,0,17.646,7.9,17.646,17.647c0,9.742-7.899,17.648-17.646,17.648
					c-9.747,0-17.646-7.906-17.646-17.648C92.703,9.144,100.603,1.244,110.35,1.244z"/>
				<path fill="#FFFFFF" d="M110.359,1.257c9.744,0,17.645,7.899,17.645,17.646c0,9.742-7.9,17.647-17.645,17.647
					c-9.746,0-17.645-7.905-17.645-17.647C92.715,9.156,100.613,1.257,110.359,1.257z"/>
				<path fill="#FFFFFF" d="M110.369,1.27c9.744,0,17.643,7.899,17.643,17.645c0,9.741-7.898,17.646-17.643,17.646
					c-9.745,0-17.643-7.904-17.643-17.646C92.726,9.168,100.624,1.27,110.369,1.27z"/>
				<path fill="#FFFFFF" d="M110.379,1.282c9.742,0,17.641,7.898,17.641,17.642c0,9.741-7.898,17.645-17.641,17.645
					c-9.744,0-17.641-7.903-17.641-17.645C92.738,9.181,100.635,1.282,110.379,1.282z"/>
				<path fill="#FFFFFF" d="M110.389,1.295c9.742,0,17.639,7.897,17.639,17.641c0,9.739-7.896,17.643-17.639,17.643
					c-9.744,0-17.64-7.903-17.64-17.643C92.749,9.192,100.645,1.295,110.389,1.295z"/>
				<path fill="#FFFFFF" d="M110.398,1.308c9.74,0,17.637,7.897,17.637,17.639c0,9.738-7.896,17.64-17.637,17.64
					c-9.743,0-17.638-7.901-17.638-17.64C92.76,9.205,100.656,1.308,110.398,1.308z"/>
				<path fill="#FFFFFF" d="M110.408,1.321c9.739,0,17.635,7.896,17.635,17.637c0,9.737-7.896,17.639-17.635,17.639
					c-9.742,0-17.636-7.901-17.636-17.639C92.772,9.216,100.666,1.321,110.408,1.321z"/>
				<path fill="#FFFFFF" d="M110.418,1.334c9.738,0,17.633,7.895,17.633,17.635c0,9.737-7.895,17.638-17.633,17.638
					c-9.741,0-17.635-7.9-17.635-17.638C92.783,9.229,100.677,1.334,110.418,1.334z"/>
				<path fill="#FFFFFF" d="M110.428,1.347c9.737,0,17.632,7.894,17.632,17.634c0,9.735-7.895,17.636-17.632,17.636
					c-9.74,0-17.633-7.9-17.633-17.636C92.795,9.241,100.688,1.347,110.428,1.347z"/>
				<path fill="#FFFFFF" d="M110.438,1.36c9.736,0,17.63,7.893,17.63,17.631c0,9.734-7.894,17.635-17.63,17.635
					c-9.739,0-17.631-7.9-17.631-17.635C92.806,9.253,100.698,1.36,110.438,1.36z"/>
				<path fill="#FFFFFF" d="M110.446,1.373c9.736,0,17.629,7.892,17.629,17.63c0,9.733-7.893,17.632-17.629,17.632
					c-9.737,0-17.628-7.898-17.628-17.632C92.818,9.265,100.709,1.373,110.446,1.373z"/>
				<path fill="#FFFFFF" d="M110.457,1.386c9.734,0,17.626,7.892,17.626,17.628c0,9.732-7.892,17.631-17.626,17.631
					c-9.737,0-17.628-7.898-17.628-17.631C92.829,9.277,100.72,1.386,110.457,1.386z"/>
				<path fill="#FFFFFF" d="M110.467,1.398c9.733,0,17.625,7.891,17.625,17.627c0,9.731-7.892,17.628-17.625,17.628
					c-9.736,0-17.626-7.896-17.626-17.628C92.841,9.289,100.73,1.398,110.467,1.398z"/>
				<path fill="#FFFFFF" d="M110.477,1.411c9.732,0,17.622,7.89,17.622,17.625c0,9.73-7.89,17.627-17.622,17.627
					c-9.735,0-17.625-7.896-17.625-17.627C92.852,9.301,100.741,1.411,110.477,1.411z"/>
				<path fill="#FFFFFF" d="M110.486,1.425c9.731,0,17.62,7.889,17.62,17.622c0,9.729-7.889,17.626-17.62,17.626
					c-9.734,0-17.623-7.896-17.623-17.626C92.863,9.313,100.752,1.425,110.486,1.425z"/>
				<path fill="#FFFFFF" d="M110.495,1.438c9.731,0,17.62,7.888,17.62,17.621c0,9.729-7.889,17.624-17.62,17.624
					c-9.733,0-17.62-7.896-17.62-17.624C92.875,9.325,100.762,1.438,110.495,1.438z"/>
				<path fill="#FFFFFF" d="M110.505,1.45c9.73,0,17.618,7.888,17.618,17.619c0,9.729-7.888,17.622-17.618,17.622
					c-9.732,0-17.619-7.894-17.619-17.622C92.886,9.338,100.773,1.45,110.505,1.45z"/>
				<path fill="#FFFFFF" d="M110.515,1.463c9.729,0,17.616,7.887,17.616,17.617c0,9.728-7.887,17.62-17.616,17.62
					c-9.731,0-17.617-7.893-17.617-17.62C92.897,9.35,100.783,1.463,110.515,1.463z"/>
				<path fill="#FFFFFF" d="M110.524,1.476c9.729,0,17.614,7.886,17.614,17.616c0,9.726-7.886,17.618-17.614,17.618
					c-9.73,0-17.615-7.893-17.615-17.618C92.909,9.362,100.794,1.476,110.524,1.476z"/>
				<path fill="#FFFFFF" d="M110.534,1.489c9.728,0,17.612,7.885,17.612,17.614c0,9.726-7.885,17.617-17.612,17.617
					c-9.729,0-17.613-7.892-17.613-17.617C92.921,9.374,100.805,1.489,110.534,1.489z"/>
				<path fill="#FFFFFF" d="M110.544,1.502c9.727,0,17.61,7.884,17.61,17.611c0,9.725-7.884,17.616-17.61,17.616
					c-9.729,0-17.612-7.892-17.612-17.616C92.932,9.386,100.815,1.502,110.544,1.502z"/>
				<path fill="#FFFFFF" d="M110.554,1.515c9.726,0,17.608,7.884,17.608,17.61c0,9.724-7.883,17.613-17.608,17.613
					c-9.728,0-17.61-7.89-17.61-17.613C92.943,9.398,100.826,1.515,110.554,1.515z"/>
				<path fill="#FFFFFF" d="M110.563,1.528c9.724,0,17.607,7.882,17.607,17.608c0,9.723-7.884,17.612-17.607,17.612
					c-9.727,0-17.608-7.89-17.608-17.612C92.955,9.41,100.837,1.528,110.563,1.528z"/>
				<path fill="#FFFFFF" d="M110.572,1.541c9.725,0,17.606,7.882,17.606,17.606c0,9.721-7.882,17.61-17.606,17.61
					c-9.725,0-17.606-7.89-17.606-17.61C92.966,9.423,100.847,1.541,110.572,1.541z"/>
				<path fill="#FFFFFF" d="M110.582,1.554c9.723,0,17.604,7.881,17.604,17.604c0,9.721-7.882,17.608-17.604,17.608
					c-9.724,0-17.604-7.888-17.604-17.608C92.978,9.435,100.858,1.554,110.582,1.554z"/>
				<path fill="#FFFFFF" d="M110.592,1.566c9.723,0,17.603,7.88,17.603,17.604c0,9.719-7.88,17.606-17.603,17.606
					c-9.724,0-17.603-7.888-17.603-17.606C92.989,9.447,100.868,1.566,110.592,1.566z"/>
				<path fill="#FFFFFF" d="M110.602,1.579c9.722,0,17.602,7.88,17.602,17.602c0,9.719-7.88,17.605-17.602,17.605
					C100.879,36.786,93,28.899,93,19.181C93,9.459,100.879,1.579,110.602,1.579z"/>
				<path fill="#FFFFFF" d="M110.612,1.592c9.719,0,17.598,7.879,17.598,17.6c0,9.718-7.879,17.604-17.598,17.604
					c-9.723,0-17.601-7.887-17.601-17.604C93.012,9.471,100.89,1.592,110.612,1.592z"/>
				<path fill="#FFFFFF" d="M110.621,1.605c9.719,0,17.597,7.878,17.597,17.598c0,9.717-7.878,17.602-17.597,17.602
					c-9.721,0-17.598-7.885-17.598-17.602C93.023,9.483,100.9,1.605,110.621,1.605z"/>
				<path fill="#FFFFFF" d="M110.631,1.618c9.718,0,17.596,7.877,17.596,17.596c0,9.716-7.878,17.601-17.596,17.601
					c-9.72,0-17.597-7.885-17.597-17.601C93.034,9.495,100.911,1.618,110.631,1.618z"/>
				<circle fill="#FFFFFF" cx="110.641" cy="19.227" r="17.596"/>
				<path fill="#FFFFFF" d="M110.65,1.644c9.716,0,17.592,7.875,17.592,17.592c0,9.714-7.876,17.597-17.592,17.597
					c-9.718,0-17.593-7.883-17.593-17.597C93.058,9.52,100.932,1.644,110.65,1.644z"/>
				<path fill="#FFFFFF" d="M110.66,1.657c9.715,0,17.59,7.875,17.59,17.59c0,9.713-7.875,17.596-17.59,17.596
					c-9.717,0-17.592-7.883-17.592-17.596C93.068,9.532,100.943,1.657,110.66,1.657z"/>
				<path fill="#FFFFFF" d="M110.67,1.67c9.714,0,17.588,7.874,17.588,17.589c0,9.712-7.874,17.594-17.588,17.594
					c-9.717,0-17.59-7.882-17.59-17.594C93.08,9.544,100.953,1.67,110.67,1.67z"/>
				<path fill="#FFFFFF" d="M110.68,1.683c9.713,0,17.586,7.873,17.586,17.587c0,9.711-7.873,17.592-17.586,17.592
					c-9.715,0-17.588-7.881-17.588-17.592C93.092,9.556,100.964,1.683,110.68,1.683z"/>
				<path fill="#FFFFFF" d="M110.689,1.695c9.712,0,17.584,7.873,17.584,17.586c0,9.71-7.872,17.589-17.584,17.589
					c-9.715,0-17.586-7.879-17.586-17.589C93.103,9.568,100.975,1.695,110.689,1.695z"/>
				<path fill="#FFFFFF" d="M110.699,1.708c9.711,0,17.583,7.872,17.583,17.584c0,9.709-7.872,17.588-17.583,17.588
					c-9.714,0-17.585-7.879-17.585-17.588C93.114,9.58,100.985,1.708,110.699,1.708z"/>
				<path fill="#FFFFFF" d="M110.709,1.721c9.71,0,17.581,7.871,17.581,17.582c0,9.708-7.871,17.587-17.581,17.587
					c-9.713,0-17.583-7.879-17.583-17.587C93.126,9.592,100.996,1.721,110.709,1.721z"/>
				<path fill="#FFFFFF" d="M110.719,1.734c9.709,0,17.579,7.87,17.579,17.58c0,9.707-7.87,17.585-17.579,17.585
					c-9.712,0-17.582-7.878-17.582-17.585C93.137,9.604,101.007,1.734,110.719,1.734z"/>
				<path fill="#FFFFFF" d="M110.729,1.747c9.708,0,17.577,7.87,17.577,17.578c0,9.706-7.869,17.583-17.577,17.583
					c-9.711,0-17.58-7.877-17.58-17.583C93.148,9.617,101.017,1.747,110.729,1.747z"/>
				<path fill="#FFFFFF" d="M110.737,1.76c9.708,0,17.576,7.869,17.576,17.576c0,9.706-7.868,17.582-17.576,17.582
					c-9.709,0-17.577-7.876-17.577-17.582C93.16,9.629,101.028,1.76,110.737,1.76z"/>
				<path fill="#FFFFFF" d="M110.747,1.773c9.707,0,17.574,7.868,17.574,17.575c0,9.704-7.867,17.58-17.574,17.58
					c-9.708,0-17.576-7.876-17.576-17.58C93.171,9.641,101.039,1.773,110.747,1.773z"/>
				<path fill="#FFFFFF" d="M110.758,1.786c9.705,0,17.572,7.867,17.572,17.573c0,9.704-7.867,17.578-17.572,17.578
					c-9.708,0-17.575-7.874-17.575-17.578C93.183,9.653,101.049,1.786,110.758,1.786z"/>
				<path fill="#FFFFFF" d="M110.768,1.799c9.703,0,17.57,7.866,17.57,17.571c0,9.702-7.867,17.576-17.57,17.576
					c-9.708,0-17.573-7.874-17.573-17.576C93.194,9.665,101.06,1.799,110.768,1.799z"/>
				<path fill="#FFFFFF" d="M110.777,1.812c9.703,0,17.568,7.866,17.568,17.569c0,9.702-7.865,17.575-17.568,17.575
					c-9.707,0-17.572-7.873-17.572-17.575C93.206,9.677,101.07,1.812,110.777,1.812z"/>
				<path fill="#FFFFFF" d="M110.786,1.824c9.703,0,17.567,7.865,17.567,17.568c0,9.7-7.864,17.573-17.567,17.573
					c-9.705,0-17.569-7.873-17.569-17.573C93.217,9.689,101.081,1.824,110.786,1.824z"/>
				<path fill="#FFFFFF" d="M110.796,1.838c9.701,0,17.565,7.863,17.565,17.565c0,9.699-7.864,17.571-17.565,17.571
					c-9.704,0-17.567-7.872-17.567-17.571C93.229,9.701,101.092,1.838,110.796,1.838z"/>
				<path fill="#FFFFFF" d="M110.806,1.851c9.701,0,17.563,7.863,17.563,17.563c0,9.699-7.862,17.57-17.563,17.57
					c-9.704,0-17.566-7.871-17.566-17.57C93.24,9.714,101.102,1.851,110.806,1.851z"/>
				<path fill="#FFFFFF" d="M110.815,1.863c9.699,0,17.562,7.862,17.562,17.562c0,9.697-7.862,17.568-17.562,17.568
					c-9.702,0-17.564-7.871-17.564-17.568C93.251,9.726,101.113,1.863,110.815,1.863z"/>
				<path fill="#FFFFFF" d="M110.825,1.876c9.698,0,17.561,7.862,17.561,17.561c0,9.697-7.862,17.566-17.561,17.566
					c-9.702,0-17.562-7.869-17.562-17.566C93.263,9.738,101.124,1.876,110.825,1.876z"/>
				<path fill="#FFFFFF" d="M110.835,1.889c9.698,0,17.559,7.861,17.559,17.558c0,9.696-7.86,17.565-17.559,17.565
					c-9.701,0-17.561-7.869-17.561-17.565C93.274,9.75,101.134,1.889,110.835,1.889z"/>
				<path fill="#FFFFFF" d="M110.845,1.902c9.696,0,17.557,7.86,17.557,17.557c0,9.694-7.86,17.563-17.557,17.563
					c-9.7,0-17.559-7.869-17.559-17.563C93.286,9.762,101.145,1.902,110.845,1.902z"/>
				<path fill="#FFFFFF" d="M110.854,1.915c9.695,0,17.555,7.86,17.555,17.555c0,9.694-7.859,17.562-17.555,17.562
					c-9.699,0-17.558-7.867-17.558-17.562C93.297,9.774,101.155,1.915,110.854,1.915z"/>
				<path fill="#FFFFFF" d="M110.864,1.928c9.694,0,17.553,7.858,17.553,17.553c0,9.692-7.858,17.56-17.553,17.56
					c-9.698,0-17.556-7.867-17.556-17.56C93.309,9.786,101.166,1.928,110.864,1.928z"/>
				<path fill="#FFFFFF" d="M110.873,1.941c9.694,0,17.552,7.857,17.552,17.551c0,9.692-7.857,17.558-17.552,17.558
					c-9.696,0-17.553-7.865-17.553-17.558C93.32,9.798,101.177,1.941,110.873,1.941z"/>
				<path fill="#FFFFFF" d="M110.883,1.954c9.693,0,17.55,7.857,17.55,17.55c0,9.69-7.856,17.556-17.55,17.556
					c-9.696,0-17.552-7.865-17.552-17.556C93.331,9.811,101.187,1.954,110.883,1.954z"/>
				<path fill="#FFFFFF" d="M110.893,1.967c9.692,0,17.549,7.855,17.549,17.548c0,9.69-7.856,17.555-17.549,17.555
					c-9.694,0-17.55-7.864-17.55-17.555C93.343,9.822,101.198,1.967,110.893,1.967z"/>
				<path fill="#FFFFFF" d="M110.903,1.979c9.69,0,17.546,7.855,17.546,17.546c0,9.689-7.855,17.553-17.546,17.553
					c-9.695,0-17.549-7.863-17.549-17.553C93.354,9.834,101.208,1.979,110.903,1.979z"/>
				<path fill="#FFFFFF" d="M110.913,1.992c9.689,0,17.544,7.854,17.544,17.545c0,9.688-7.854,17.551-17.544,17.551
					c-9.694,0-17.548-7.862-17.548-17.551C93.365,9.847,101.219,1.992,110.913,1.992z"/>
				<path fill="#FFFFFF" d="M110.923,2.005c9.688,0,17.542,7.854,17.542,17.543c0,9.688-7.854,17.55-17.542,17.55
					c-9.693,0-17.546-7.862-17.546-17.55C93.377,9.858,101.229,2.005,110.923,2.005z"/>
				<path fill="#FFFFFF" d="M110.932,2.018c9.688,0,17.541,7.853,17.541,17.541c0,9.687-7.853,17.548-17.541,17.548
					c-9.691,0-17.543-7.861-17.543-17.548C93.389,9.871,101.241,2.018,110.932,2.018z"/>
				<path fill="#FFFFFF" d="M110.941,2.031c9.688,0,17.539,7.852,17.539,17.539c0,9.686-7.852,17.546-17.539,17.546
					c-9.69,0-17.542-7.86-17.542-17.546C93.399,9.883,101.251,2.031,110.941,2.031z"/>
				<path fill="#FFFFFF" d="M110.951,2.044c9.687,0,17.537,7.851,17.537,17.537c0,9.685-7.851,17.545-17.537,17.545
					c-9.689,0-17.54-7.86-17.54-17.545C93.411,9.895,101.262,2.044,110.951,2.044z"/>
				<path fill="#FFFFFF" d="M110.961,2.057c9.686,0,17.536,7.85,17.536,17.536c0,9.684-7.851,17.543-17.536,17.543
					c-9.688,0-17.538-7.859-17.538-17.543C93.423,9.907,101.272,2.057,110.961,2.057z"/>
				<path fill="#FFFFFF" d="M110.971,2.07c9.685,0,17.534,7.85,17.534,17.534c0,9.683-7.85,17.541-17.534,17.541
					c-9.688,0-17.537-7.858-17.537-17.541C93.434,9.919,101.283,2.07,110.971,2.07z"/>
				<path fill="#FFFFFF" d="M110.98,2.083c9.684,0,17.532,7.849,17.532,17.533c0,9.682-7.849,17.539-17.532,17.539
					c-9.687,0-17.535-7.857-17.535-17.539C93.445,9.932,101.293,2.083,110.98,2.083z"/>
				<path fill="#FFFFFF" d="M110.99,2.096c9.683,0,17.53,7.848,17.53,17.53c0,9.681-7.848,17.538-17.53,17.538
					c-9.686,0-17.533-7.857-17.533-17.538C93.457,9.943,101.304,2.096,110.99,2.096z"/>
				<path fill="#FFFFFF" d="M111,2.108c9.681,0,17.528,7.847,17.528,17.528c0,9.68-7.848,17.536-17.528,17.536
					c-9.685,0-17.532-7.856-17.532-17.536C93.468,9.956,101.315,2.108,111,2.108z"/>
				<path fill="#FFFFFF" d="M111.01,2.121c9.681,0,17.526,7.847,17.526,17.527c0,9.679-7.846,17.534-17.526,17.534
					c-9.684,0-17.53-7.855-17.53-17.534C93.479,9.968,101.326,2.121,111.01,2.121z"/>
				<path fill="#FFFFFF" d="M111.02,2.135c9.68,0,17.524,7.845,17.524,17.525c0,9.677-7.845,17.532-17.524,17.532
					c-9.684,0-17.528-7.855-17.528-17.532C93.491,9.98,101.336,2.135,111.02,2.135z"/>
				<path fill="#FFFFFF" d="M111.028,2.147c9.679,0,17.524,7.845,17.524,17.522s-7.846,17.532-17.524,17.532
					c-9.682,0-17.526-7.854-17.526-17.532S101.347,2.147,111.028,2.147z"/>
				<path fill="#FFFFFF" d="M111.038,2.16c9.679,0,17.522,7.844,17.522,17.521c0,9.676-7.844,17.529-17.522,17.529
					c-9.681,0-17.524-7.854-17.524-17.529C93.514,10.004,101.357,2.16,111.038,2.16z"/>
				<path fill="#FFFFFF" d="M111.048,2.173c9.677,0,17.521,7.843,17.521,17.521c0,9.675-7.844,17.526-17.521,17.526
					c-9.68,0-17.522-7.852-17.522-17.526C93.525,10.016,101.368,2.173,111.048,2.173z"/>
				<path fill="#FFFFFF" d="M111.059,2.186c9.675,0,17.518,7.842,17.518,17.518c0,9.674-7.843,17.525-17.518,17.525
					c-9.68,0-17.522-7.852-17.522-17.525C93.537,10.028,101.378,2.186,111.059,2.186z"/>
				<path fill="#FFFFFF" d="M111.068,2.199c9.675,0,17.516,7.842,17.516,17.516c0,9.673-7.841,17.524-17.516,17.524
					c-9.679,0-17.52-7.852-17.52-17.524C93.548,10.041,101.389,2.199,111.068,2.199z"/>
				<path fill="#FFFFFF" d="M111.077,2.211c9.674,0,17.515,7.841,17.515,17.515c0,9.672-7.841,17.522-17.515,17.522
					c-9.677,0-17.518-7.851-17.518-17.522C93.56,10.053,101.4,2.211,111.077,2.211z"/>
				<path fill="#FFFFFF" d="M111.087,2.225c9.673,0,17.513,7.84,17.513,17.513c0,9.671-7.84,17.521-17.513,17.521
					c-9.676,0-17.516-7.85-17.516-17.521C93.571,10.065,101.411,2.225,111.087,2.225z"/>
				<path fill="#FFFFFF" d="M111.097,2.238c9.672,0,17.512,7.839,17.512,17.51c0,9.671-7.84,17.52-17.512,17.52
					c-9.676,0-17.514-7.849-17.514-17.52C93.583,10.077,101.421,2.238,111.097,2.238z"/>
				<path fill="#FFFFFF" d="M111.106,2.25c9.671,0,17.51,7.838,17.51,17.509c0,9.669-7.839,17.518-17.51,17.518
					c-9.675,0-17.512-7.849-17.512-17.518C93.594,10.089,101.432,2.25,111.106,2.25z"/>
				<path fill="#FFFFFF" d="M111.116,2.264c9.67,0,17.508,7.837,17.508,17.508c0,9.668-7.838,17.515-17.508,17.515
					c-9.674,0-17.511-7.847-17.511-17.515C93.605,10.101,101.442,2.264,111.116,2.264z"/>
				<path fill="#FFFFFF" d="M128.632,19.781c0,9.668-7.837,17.515-17.506,17.515c-9.673,0-17.509-7.847-17.509-17.515
					s7.836-17.505,17.509-17.505C120.795,2.276,128.632,10.113,128.632,19.781z"/>
				<path fill="#FFFFFF" d="M111.134,2.286c9.669,0,17.507,7.837,17.507,17.506c0,9.667-7.838,17.514-17.507,17.514
					c-9.673,0-17.509-7.847-17.509-17.514C93.625,10.123,101.461,2.286,111.134,2.286z"/>
				<path fill="#FFFFFF" d="M111.143,2.297c9.669,0,17.506,7.837,17.506,17.506c0,9.667-7.837,17.514-17.506,17.514
					c-9.672,0-17.509-7.847-17.509-17.514C93.634,10.134,101.47,2.297,111.143,2.297z"/>
				<path fill="#FFFFFF" d="M111.151,2.307c9.669,0,17.506,7.837,17.506,17.506c0,9.667-7.837,17.514-17.506,17.514
					c-9.673,0-17.51-7.847-17.51-17.514C93.642,10.144,101.478,2.307,111.151,2.307z"/>
				<path fill="#FFFFFF" d="M111.159,2.316c9.669,0,17.506,7.837,17.506,17.506c0,9.667-7.837,17.514-17.506,17.514
					c-9.673,0-17.509-7.847-17.509-17.514C93.65,10.153,101.486,2.316,111.159,2.316z"/>
				<path fill="#FFFFFF" d="M111.168,2.327c9.669,0,17.506,7.837,17.506,17.505s-7.837,17.515-17.506,17.515
					c-9.673,0-17.509-7.847-17.509-17.515S101.495,2.327,111.168,2.327z"/>
				<path fill="#FFFFFF" d="M111.177,2.337c9.669,0,17.505,7.837,17.505,17.505s-7.836,17.515-17.505,17.515
					c-9.673,0-17.51-7.847-17.51-17.515S101.503,2.337,111.177,2.337z"/>
				<path fill="#FFFFFF" d="M111.185,2.347c9.669,0,17.506,7.837,17.506,17.506c0,9.667-7.837,17.514-17.506,17.514
					c-9.673,0-17.51-7.847-17.51-17.514C93.675,10.184,101.512,2.347,111.185,2.347z"/>
				<path fill="#FFFFFF" d="M111.192,2.357c9.669,0,17.506,7.837,17.506,17.505c0,9.668-7.837,17.514-17.506,17.514
					c-9.672,0-17.509-7.846-17.509-17.514C93.684,10.194,101.52,2.357,111.192,2.357z"/>
				<path fill="#FFFFFF" d="M111.201,2.367c9.669,0,17.506,7.837,17.506,17.506c0,9.667-7.837,17.514-17.506,17.514
					c-9.673,0-17.51-7.847-17.51-17.514C93.691,10.204,101.528,2.367,111.201,2.367z"/>
				<path fill="#FFFFFF" d="M111.209,2.377c9.67,0,17.507,7.837,17.507,17.505c0,9.667-7.837,17.514-17.507,17.514
					c-9.672,0-17.509-7.847-17.509-17.514C93.7,10.214,101.537,2.377,111.209,2.377z"/>
				<path fill="#FFFFFF" d="M111.218,2.387c9.669,0,17.506,7.837,17.506,17.505c0,9.668-7.837,17.514-17.506,17.514
					c-9.673,0-17.509-7.846-17.509-17.514C93.708,10.224,101.545,2.387,111.218,2.387z"/>
				<path fill="#FFFFFF" d="M111.226,2.397c9.669,0,17.507,7.837,17.507,17.505c0,9.668-7.838,17.514-17.507,17.514
					c-9.672,0-17.509-7.846-17.509-17.514C93.717,10.234,101.554,2.397,111.226,2.397z"/>
				<path fill="#FFFFFF" d="M111.234,2.407c9.669,0,17.506,7.837,17.506,17.506c0,9.668-7.837,17.514-17.506,17.514
					c-9.672,0-17.509-7.846-17.509-17.514C93.725,10.245,101.562,2.407,111.234,2.407z"/>
				<path fill="#FFFFFF" d="M111.243,2.417c9.669,0,17.506,7.837,17.506,17.505c0,9.668-7.837,17.514-17.506,17.514
					c-9.673,0-17.509-7.846-17.509-17.514C93.734,10.254,101.57,2.417,111.243,2.417z"/>
				<path fill="#FFFFFF" d="M111.251,2.427c9.669,0,17.506,7.837,17.506,17.505s-7.837,17.514-17.506,17.514
					c-9.672,0-17.509-7.846-17.509-17.514S101.579,2.427,111.251,2.427z"/>
				<path fill="#FFFFFF" d="M111.26,2.438c9.669,0,17.506,7.837,17.506,17.505s-7.837,17.514-17.506,17.514
					c-9.673,0-17.51-7.846-17.51-17.514S101.587,2.438,111.26,2.438z"/>
				<path fill="#FFFFFF" d="M111.268,2.447c9.669,0,17.506,7.837,17.506,17.506c0,9.667-7.837,17.514-17.506,17.514
					c-9.672,0-17.509-7.847-17.509-17.514C93.758,10.284,101.595,2.447,111.268,2.447z"/>
				<path fill="#FFFFFF" d="M111.276,2.458c9.669,0,17.506,7.837,17.506,17.506c0,9.667-7.837,17.513-17.506,17.513
					c-9.672,0-17.509-7.846-17.509-17.513C93.767,10.295,101.604,2.458,111.276,2.458z"/>
				<path fill="#FFFFFF" d="M111.285,2.468c9.668,0,17.506,7.837,17.506,17.506c0,9.667-7.838,17.513-17.506,17.513
					c-9.673,0-17.51-7.846-17.51-17.513C93.775,10.305,101.612,2.468,111.285,2.468z"/>
				<path fill="#FFFFFF" d="M111.293,2.478c9.669,0,17.506,7.837,17.506,17.506c0,9.668-7.837,17.514-17.506,17.514
					c-9.672,0-17.509-7.846-17.509-17.514C93.784,10.314,101.621,2.478,111.293,2.478z"/>
				<path fill="#FFFFFF" d="M111.302,2.488c9.669,0,17.506,7.837,17.506,17.506c0,9.667-7.837,17.513-17.506,17.513
					c-9.673,0-17.51-7.846-17.51-17.513C93.792,10.325,101.629,2.488,111.302,2.488z"/>
				<path fill="#FFFFFF" d="M111.311,2.498c9.668,0,17.505,7.837,17.505,17.505s-7.837,17.514-17.505,17.514
					c-9.673,0-17.51-7.846-17.51-17.514S101.638,2.498,111.311,2.498z"/>
				<path fill="#FFFFFF" d="M111.318,2.508c9.669,0,17.506,7.837,17.506,17.506c0,9.668-7.837,17.513-17.506,17.513
					c-9.673,0-17.51-7.845-17.51-17.513C93.809,10.345,101.646,2.508,111.318,2.508z"/>
				<path fill="#FFFFFF" d="M111.326,2.518c9.669,0,17.506,7.837,17.506,17.506c0,9.668-7.837,17.513-17.506,17.513
					c-9.672,0-17.509-7.845-17.509-17.513C93.817,10.355,101.654,2.518,111.326,2.518z"/>
				<path fill="#FFFFFF" d="M111.334,2.528c9.669,0,17.506,7.837,17.506,17.506c0,9.667-7.837,17.513-17.506,17.513
					c-9.672,0-17.509-7.846-17.509-17.513C93.825,10.365,101.662,2.528,111.334,2.528z"/>
				<path fill="#FFFFFF" d="M111.343,2.538c9.669,0,17.507,7.837,17.507,17.506c0,9.668-7.838,17.513-17.507,17.513
					c-9.672,0-17.509-7.845-17.509-17.513C93.834,10.375,101.671,2.538,111.343,2.538z"/>
				<path fill="#FFFFFF" d="M111.352,2.548c9.669,0,17.506,7.838,17.506,17.506s-7.837,17.514-17.506,17.514
					c-9.672,0-17.51-7.846-17.51-17.514S101.679,2.548,111.352,2.548z"/>
				<path fill="#FFFFFF" d="M111.359,2.558c9.669,0,17.506,7.838,17.506,17.506s-7.837,17.514-17.506,17.514
					c-9.672,0-17.509-7.846-17.509-17.514S101.688,2.558,111.359,2.558z"/>
				<path fill="#FFFFFF" d="M111.368,2.568c9.669,0,17.506,7.838,17.506,17.507c0,9.667-7.837,17.513-17.506,17.513
					c-9.672,0-17.509-7.846-17.509-17.513C93.859,10.406,101.696,2.568,111.368,2.568z"/>
				<path fill="#FFFFFF" d="M111.377,2.578c9.669,0,17.506,7.838,17.506,17.506s-7.837,17.514-17.506,17.514
					c-9.672,0-17.51-7.846-17.51-17.514S101.705,2.578,111.377,2.578z"/>
				<path fill="#FFFFFF" d="M111.385,2.588c9.669,0,17.506,7.837,17.506,17.506c0,9.667-7.837,17.513-17.506,17.513
					c-9.672,0-17.51-7.846-17.51-17.513C93.875,10.426,101.713,2.588,111.385,2.588z"/>
				<path fill="#FFFFFF" d="M111.394,2.598c9.668,0,17.505,7.838,17.505,17.506c0,9.668-7.837,17.513-17.505,17.513
					c-9.672,0-17.51-7.845-17.51-17.513C93.884,10.436,101.721,2.598,111.394,2.598z"/>
				<path fill="#FFFFFF" d="M111.401,2.608c9.669,0,17.506,7.837,17.506,17.506c0,9.668-7.837,17.513-17.506,17.513
					c-9.672,0-17.51-7.845-17.51-17.513C93.892,10.446,101.729,2.608,111.401,2.608z"/>
				<path fill="#FFFFFF" d="M111.41,2.619c9.669,0,17.506,7.838,17.506,17.505c0,9.668-7.837,17.514-17.506,17.514
					c-9.672,0-17.51-7.846-17.51-17.514C93.9,10.457,101.738,2.619,111.41,2.619z"/>
				<path fill="#FFFFFF" d="M111.418,2.628c9.669,0,17.506,7.838,17.506,17.506c0,9.668-7.837,17.513-17.506,17.513
					c-9.672,0-17.509-7.845-17.509-17.513C93.909,10.466,101.746,2.628,111.418,2.628z"/>
				<path fill="#FFFFFF" d="M111.427,2.638c9.669,0,17.505,7.838,17.505,17.506s-7.836,17.513-17.505,17.513
					c-9.672,0-17.51-7.845-17.51-17.513S101.755,2.638,111.427,2.638z"/>
				<path fill="#FFFFFF" d="M111.436,2.649c9.668,0,17.506,7.838,17.506,17.506c0,9.668-7.838,17.513-17.506,17.513
					c-9.672,0-17.51-7.845-17.51-17.513C93.925,10.487,101.763,2.649,111.436,2.649z"/>
				<path fill="#FFFFFF" d="M111.443,2.659c9.669,0,17.506,7.838,17.506,17.506c0,9.668-7.837,17.513-17.506,17.513
					c-9.672,0-17.509-7.845-17.509-17.513C93.934,10.497,101.771,2.659,111.443,2.659z"/>
				<path fill="#FFFFFF" d="M111.451,2.669c9.669,0,17.506,7.838,17.506,17.506s-7.837,17.513-17.506,17.513
					c-9.671,0-17.509-7.845-17.509-17.513S101.78,2.669,111.451,2.669z"/>
				<path fill="#FFFFFF" d="M111.46,2.679c9.669,0,17.506,7.838,17.506,17.506s-7.837,17.513-17.506,17.513
					c-9.672,0-17.509-7.845-17.509-17.513S101.788,2.679,111.46,2.679z"/>
				<path fill="#FFFFFF" d="M111.468,2.689c9.669,0,17.506,7.837,17.506,17.506c0,9.667-7.837,17.512-17.506,17.512
					c-9.671,0-17.509-7.845-17.509-17.512C93.958,10.526,101.796,2.689,111.468,2.689z"/>
				<path fill="#FFFFFF" d="M111.477,2.699c9.669,0,17.506,7.838,17.506,17.506s-7.837,17.513-17.506,17.513
					c-9.671,0-17.509-7.845-17.509-17.513S101.805,2.699,111.477,2.699z"/>
				<path fill="#FFFFFF" d="M111.485,2.709c9.669,0,17.505,7.838,17.505,17.507c0,9.667-7.836,17.512-17.505,17.512
					c-9.672,0-17.51-7.845-17.51-17.512C93.976,10.547,101.813,2.709,111.485,2.709z"/>
				<path fill="#FFFFFF" d="M111.493,2.719c9.669,0,17.506,7.838,17.506,17.507c0,9.667-7.837,17.512-17.506,17.512
					c-9.671,0-17.509-7.845-17.509-17.512C93.984,10.557,101.822,2.719,111.493,2.719z"/>
				<path fill="#FFFFFF" d="M111.502,2.729c9.669,0,17.506,7.838,17.506,17.506s-7.837,17.513-17.506,17.513
					c-9.672,0-17.51-7.845-17.51-17.513S101.83,2.729,111.502,2.729z"/>
				<path fill="#FFFFFF" d="M111.51,2.739c9.669,0,17.506,7.838,17.506,17.506s-7.837,17.513-17.506,17.513
					c-9.671,0-17.509-7.845-17.509-17.513S101.839,2.739,111.51,2.739z"/>
				<path fill="#FFFFFF" d="M111.519,2.75c9.669,0,17.506,7.838,17.506,17.506c0,9.667-7.837,17.513-17.506,17.513
					c-9.672,0-17.51-7.846-17.51-17.513C94.009,10.587,101.847,2.75,111.519,2.75z"/>
				<path fill="#FFFFFF" d="M111.526,2.759c9.669,0,17.506,7.838,17.506,17.506c0,9.668-7.837,17.513-17.506,17.513
					c-9.671,0-17.509-7.845-17.509-17.513C94.017,10.597,101.855,2.759,111.526,2.759z"/>
				<path fill="#FFFFFF" d="M111.535,2.77c9.669,0,17.506,7.838,17.506,17.506s-7.837,17.513-17.506,17.513
					c-9.672,0-17.51-7.845-17.51-17.513S101.863,2.77,111.535,2.77z"/>
				<path fill="#FFFFFF" d="M111.544,2.779c9.669,0,17.505,7.838,17.505,17.507c0,9.668-7.836,17.512-17.505,17.512
					c-9.672,0-17.51-7.844-17.51-17.512C94.034,10.618,101.872,2.779,111.544,2.779z"/>
				<path fill="#FFFFFF" d="M111.552,2.789c9.669,0,17.506,7.838,17.506,17.507c0,9.668-7.837,17.512-17.506,17.512
					c-9.671,0-17.51-7.844-17.51-17.512C94.042,10.627,101.88,2.789,111.552,2.789z"/>
				<path fill="#FFFFFF" d="M111.561,2.799c9.668,0,17.506,7.838,17.506,17.506s-7.838,17.512-17.506,17.512
					c-9.672,0-17.51-7.844-17.51-17.512S101.889,2.799,111.561,2.799z"/>
				<path fill="#FFFFFF" d="M111.568,2.81c9.669,0,17.506,7.838,17.506,17.507c0,9.667-7.837,17.512-17.506,17.512
					c-9.671,0-17.509-7.845-17.509-17.512C94.059,10.647,101.897,2.81,111.568,2.81z"/>
				<path fill="#FFFFFF" d="M111.577,2.82c9.669,0,17.506,7.838,17.506,17.506s-7.837,17.513-17.506,17.513
					c-9.671,0-17.51-7.845-17.51-17.513S101.906,2.82,111.577,2.82z"/>
				<path fill="#FFFFFF" d="M111.585,2.83c9.669,0,17.506,7.838,17.506,17.507c0,9.667-7.837,17.512-17.506,17.512
					c-9.671,0-17.509-7.845-17.509-17.512C94.076,10.668,101.914,2.83,111.585,2.83z"/>
				<path fill="#FFFFFF" d="M111.594,2.84c9.668,0,17.506,7.838,17.506,17.506s-7.838,17.513-17.506,17.513
					c-9.672,0-17.51-7.845-17.51-17.513S101.922,2.84,111.594,2.84z"/>
				<path fill="#FFFFFF" d="M111.602,2.85c9.669,0,17.506,7.838,17.506,17.506c0,9.668-7.837,17.512-17.506,17.512
					c-9.671,0-17.509-7.844-17.509-17.512C94.092,10.688,101.931,2.85,111.602,2.85z"/>
				<path fill="#FFFFFF" d="M111.61,2.86c9.669,0,17.506,7.838,17.506,17.506s-7.837,17.512-17.506,17.512
					c-9.671,0-17.509-7.844-17.509-17.512S101.939,2.86,111.61,2.86z"/>
				<path fill="#FFFFFF" d="M111.619,2.87c9.668,0,17.506,7.838,17.506,17.507c0,9.667-7.838,17.511-17.506,17.511
					c-9.672,0-17.51-7.844-17.51-17.511C94.109,10.708,101.947,2.87,111.619,2.87z"/>
				<path fill="#FFFFFF" d="M111.627,2.88c9.668,0,17.506,7.838,17.506,17.506s-7.838,17.512-17.506,17.512
					c-9.671,0-17.51-7.844-17.51-17.512S101.956,2.88,111.627,2.88z"/>
				<path fill="#FFFFFF" d="M111.636,2.89c9.669,0,17.505,7.838,17.505,17.507c0,9.667-7.836,17.511-17.505,17.511
					c-9.672,0-17.51-7.844-17.51-17.511C94.126,10.729,101.964,2.89,111.636,2.89z"/>
				<path fill="#FFFFFF" d="M111.645,2.9c9.668,0,17.505,7.838,17.505,17.507c0,9.668-7.837,17.512-17.505,17.512
					c-9.672,0-17.51-7.844-17.51-17.512C94.134,10.738,101.973,2.9,111.645,2.9z"/>
				<path fill="#FFFFFF" d="M111.652,2.91c9.668,0,17.506,7.838,17.506,17.507c0,9.668-7.838,17.512-17.506,17.512
					c-9.672,0-17.51-7.844-17.51-17.512C94.143,10.749,101.98,2.91,111.652,2.91z"/>
				<path fill="#FFFFFF" d="M111.66,2.92c9.669,0,17.506,7.838,17.506,17.507c0,9.668-7.837,17.512-17.506,17.512
					c-9.671,0-17.51-7.844-17.51-17.512C94.15,10.758,101.989,2.92,111.66,2.92z"/>
				<path fill="#FFFFFF" d="M111.669,2.931c9.669,0,17.505,7.838,17.505,17.507c0,9.667-7.836,17.512-17.505,17.512
					c-9.671,0-17.51-7.845-17.51-17.512C94.159,10.769,101.998,2.931,111.669,2.931z"/>
				<path fill="#FFFFFF" d="M111.678,2.94c9.668,0,17.505,7.838,17.505,17.507c0,9.668-7.837,17.512-17.505,17.512
					c-9.672,0-17.51-7.844-17.51-17.512C94.167,10.779,102.006,2.94,111.678,2.94z"/>
				<path fill="#FFFFFF" d="M111.686,2.95c9.669,0,17.506,7.839,17.506,17.507s-7.837,17.512-17.506,17.512
					c-9.671,0-17.51-7.844-17.51-17.512S102.015,2.95,111.686,2.95z"/>
				<path fill="#FFFFFF" d="M111.693,2.96c9.669,0,17.506,7.839,17.506,17.508c0,9.667-7.837,17.511-17.506,17.511
					c-9.671,0-17.51-7.844-17.51-17.511C94.184,10.799,102.022,2.96,111.693,2.96z"/>
				<path fill="#FFFFFF" d="M111.702,2.971c9.669,0,17.506,7.838,17.506,17.507c0,9.668-7.837,17.512-17.506,17.512
					c-9.671,0-17.51-7.844-17.51-17.512C94.192,10.809,102.031,2.971,111.702,2.971z"/>
				<path fill="#FFFFFF" d="M111.711,2.981c9.668,0,17.506,7.838,17.506,17.507c0,9.667-7.838,17.511-17.506,17.511
					c-9.671,0-17.51-7.844-17.51-17.511C94.201,10.819,102.04,2.981,111.711,2.981z"/>
				<path fill="#FFFFFF" d="M111.719,2.991c9.669,0,17.506,7.838,17.506,17.506s-7.837,17.512-17.506,17.512
					c-9.671,0-17.51-7.844-17.51-17.512S102.048,2.991,111.719,2.991z"/>
				<path fill="#FFFFFF" d="M111.727,3.001c9.669,0,17.506,7.838,17.506,17.507c0,9.667-7.837,17.511-17.506,17.511
					c-9.671,0-17.51-7.844-17.51-17.511C94.217,10.839,102.056,3.001,111.727,3.001z"/>
				<path fill="#FFFFFF" d="M111.735,3.011c9.669,0,17.506,7.838,17.506,17.506c0,9.668-7.837,17.512-17.506,17.512
					c-9.671,0-17.509-7.844-17.509-17.512C94.226,10.849,102.064,3.011,111.735,3.011z"/>
				<path fill="#FFFFFF" d="M111.744,3.021c9.669,0,17.506,7.838,17.506,17.507c0,9.668-7.837,17.511-17.506,17.511
					c-9.671,0-17.51-7.843-17.51-17.511C94.234,10.859,102.073,3.021,111.744,3.021z"/>
				<path fill="#FFFFFF" d="M111.752,3.031c9.669,0,17.506,7.838,17.506,17.507c0,9.668-7.837,17.511-17.506,17.511
					c-9.671,0-17.51-7.843-17.51-17.511C94.242,10.869,102.081,3.031,111.752,3.031z"/>
				<path fill="#FFFFFF" d="M111.761,3.041c9.669,0,17.505,7.838,17.505,17.507c0,9.668-7.836,17.511-17.505,17.511
					c-9.671,0-17.51-7.843-17.51-17.511C94.251,10.879,102.089,3.041,111.761,3.041z"/>
				<path fill="#FFFFFF" d="M111.77,3.051c9.668,0,17.505,7.839,17.505,17.507s-7.837,17.512-17.505,17.512
					c-9.671,0-17.51-7.844-17.51-17.512S102.098,3.051,111.77,3.051z"/>
				<path fill="#FFFFFF" d="M111.777,3.062c9.669,0,17.506,7.839,17.506,17.508c0,9.667-7.837,17.51-17.506,17.51
					c-9.671,0-17.51-7.843-17.51-17.51C94.268,10.9,102.106,3.062,111.777,3.062z"/>
				<path fill="#FFFFFF" d="M111.786,3.071c9.668,0,17.505,7.839,17.505,17.507s-7.837,17.511-17.505,17.511
					c-9.671,0-17.51-7.843-17.51-17.511S102.115,3.071,111.786,3.071z"/>
				<path fill="#FFFFFF" d="M111.794,3.081c9.668,0,17.505,7.839,17.505,17.508c0,9.667-7.837,17.51-17.505,17.51
					c-9.671,0-17.51-7.843-17.51-17.51C94.284,10.92,102.123,3.081,111.794,3.081z"/>
				<path fill="#FFFFFF" d="M111.803,3.091c9.668,0,17.505,7.839,17.505,17.508c0,9.668-7.837,17.511-17.505,17.511
					c-9.671,0-17.51-7.843-17.51-17.511C94.292,10.93,102.132,3.091,111.803,3.091z"/>
				<path fill="#FFFFFF" d="M111.812,3.102c9.668,0,17.505,7.839,17.505,17.508c0,9.667-7.837,17.511-17.505,17.511
					c-9.671,0-17.51-7.844-17.51-17.511C94.301,10.94,102.14,3.102,111.812,3.102z"/>
				<path fill="#FFFFFF" d="M111.819,3.111c9.669,0,17.505,7.839,17.505,17.507s-7.836,17.512-17.505,17.512
					c-9.671,0-17.51-7.844-17.51-17.512S102.148,3.111,111.819,3.111z"/>
				<path fill="#FFFFFF" d="M111.827,3.121c9.669,0,17.506,7.839,17.506,17.508c0,9.667-7.837,17.511-17.506,17.511
					c-9.671,0-17.51-7.844-17.51-17.511C94.317,10.96,102.156,3.121,111.827,3.121z"/>
				<path fill="#FFFFFF" d="M111.836,3.132c9.669,0,17.506,7.839,17.506,17.507s-7.837,17.511-17.506,17.511
					c-9.671,0-17.51-7.843-17.51-17.511S102.165,3.132,111.836,3.132z"/>
				<circle fill="#FFFFFF" cx="111.844" cy="20.651" r="17.509"/>
				<path fill="#FFFFFF" d="M111.853,3.152c9.669,0,17.505,7.839,17.505,17.507c0,9.668-7.836,17.511-17.505,17.511
					c-9.671,0-17.51-7.843-17.51-17.511C94.343,10.991,102.182,3.152,111.853,3.152z"/>
				<path fill="#FFFFFF" d="M111.86,3.162c9.669,0,17.506,7.838,17.506,17.507c0,9.668-7.837,17.511-17.506,17.511
					c-9.671,0-17.51-7.843-17.51-17.511C94.351,11,102.189,3.162,111.86,3.162z"/>
				<path fill="#FFFFFF" d="M111.869,3.172c9.668,0,17.506,7.839,17.506,17.507s-7.838,17.511-17.506,17.511
					c-9.67,0-17.51-7.843-17.51-17.511S102.199,3.172,111.869,3.172z"/>
				<path fill="#FFFFFF" d="M111.878,3.182c9.669,0,17.505,7.839,17.505,17.507S121.547,38.2,111.878,38.2
					c-9.671,0-17.51-7.843-17.51-17.511S102.207,3.182,111.878,3.182z"/>
				<path fill="#FFFFFF" d="M111.886,3.192c9.669,0,17.506,7.839,17.506,17.507s-7.837,17.511-17.506,17.511
					c-9.67,0-17.51-7.843-17.51-17.511S102.215,3.192,111.886,3.192z"/>
				<path fill="#FFFFFF" d="M111.895,3.202c9.668,0,17.505,7.839,17.505,17.508c0,9.667-7.837,17.51-17.505,17.51
					c-9.671,0-17.511-7.843-17.511-17.51C94.384,11.041,102.224,3.202,111.895,3.202z"/>
				<circle fill="#FFFFFF" cx="111.902" cy="20.721" r="17.509"/>
				<path fill="#FFFFFF" d="M111.911,3.223c9.669,0,17.505,7.839,17.505,17.507S121.58,38.24,111.911,38.24
					c-9.671,0-17.51-7.843-17.51-17.511S102.24,3.223,111.911,3.223z"/>
				<path fill="#FFFFFF" d="M111.92,3.232c9.668,0,17.505,7.839,17.505,17.507S121.588,38.25,111.92,38.25
					c-9.671,0-17.511-7.843-17.511-17.511S102.249,3.232,111.92,3.232z"/>
				<circle fill="#FFFFFF" cx="111.928" cy="20.751" r="17.509"/>
				<path fill="#FFFFFF" d="M111.937,3.252c9.668,0,17.505,7.84,17.505,17.508c0,9.669-7.837,17.51-17.505,17.51
					c-9.671,0-17.51-7.841-17.51-17.51C94.426,11.092,102.266,3.252,111.937,3.252z"/>
				<path fill="#FFFFFF" d="M111.945,3.263c9.668,0,17.505,7.839,17.505,17.508c0,9.668-7.837,17.51-17.505,17.51
					c-9.671,0-17.511-7.842-17.511-17.51C94.435,11.102,102.274,3.263,111.945,3.263z"/>
				<path fill="#FFFFFF" d="M111.953,3.272c9.668,0,17.505,7.839,17.505,17.508c0,9.668-7.837,17.51-17.505,17.51
					c-9.671,0-17.511-7.842-17.511-17.51C94.442,11.111,102.282,3.272,111.953,3.272z"/>
				<circle fill="#FFFFFF" cx="111.961" cy="20.791" r="17.509"/>
				<path fill="#FFFFFF" d="M111.97,3.292c9.668,0,17.505,7.839,17.505,17.508c0,9.668-7.837,17.51-17.505,17.51
					c-9.671,0-17.51-7.842-17.51-17.51C94.459,11.132,102.299,3.292,111.97,3.292z"/>
				<circle fill="#FFFFFF" cx="111.978" cy="20.812" r="17.509"/>
				<path fill="#FFFFFF" d="M111.986,3.312c9.668,0,17.505,7.839,17.505,17.508c0,9.668-7.837,17.51-17.505,17.51
					c-9.671,0-17.51-7.842-17.51-17.51C94.476,11.152,102.315,3.312,111.986,3.312z"/>
				<path fill="#FFFFFF" d="M111.995,3.323c9.668,0,17.505,7.839,17.505,17.508c0,9.668-7.837,17.509-17.505,17.509
					c-9.671,0-17.511-7.841-17.511-17.509C94.484,11.162,102.324,3.323,111.995,3.323z"/>
				<path fill="#FFFFFF" d="M112.003,3.333c9.669,0,17.505,7.839,17.505,17.508c0,9.668-7.836,17.51-17.505,17.51
					c-9.671,0-17.51-7.842-17.51-17.51C94.493,11.172,102.332,3.333,112.003,3.333z"/>
				<path fill="#FFFFFF" d="M112.012,3.343c9.668,0,17.505,7.839,17.505,17.508c0,9.668-7.837,17.51-17.505,17.51
					c-9.671,0-17.51-7.842-17.51-17.51C94.501,11.182,102.341,3.343,112.012,3.343z"/>
				<circle fill="#FFFFFF" cx="112.02" cy="20.862" r="17.509"/>
				<circle fill="#FFFFFF" cx="112.027" cy="20.872" r="17.508"/>
				<circle fill="#FFFFFF" cx="112.036" cy="20.882" r="17.509"/>
				<circle fill="#FFFFFF" cx="112.045" cy="20.892" r="17.509"/>
				<circle fill="#FFFFFF" cx="112.053" cy="20.902" r="17.509"/>
				<path fill="#FFFFFF" d="M112.062,3.403c9.669,0,17.505,7.839,17.505,17.508c0,9.668-7.836,17.51-17.505,17.51
					c-9.67,0-17.51-7.842-17.51-17.51C94.551,11.243,102.391,3.403,112.062,3.403z"/>
				<circle fill="#FFFFFF" cx="112.069" cy="20.922" r="17.509"/>
				<path fill="#FFFFFF" d="M112.078,3.423c9.668,0,17.505,7.839,17.505,17.507c0,9.669-7.837,17.51-17.505,17.51
					c-9.67,0-17.51-7.841-17.51-17.51C94.568,11.263,102.408,3.423,112.078,3.423z"/>
				<circle fill="#FFFFFF" cx="112.086" cy="20.942" r="17.509"/>
				<circle fill="#FFFFFF" cx="112.095" cy="20.952" r="17.509"/>
				<path fill="#FFFFFF" d="M112.104,3.454c9.668,0,17.505,7.839,17.505,17.508c0,9.668-7.837,17.509-17.505,17.509
					c-9.671,0-17.511-7.841-17.511-17.509C94.593,11.293,102.433,3.454,112.104,3.454z"/>
				<circle fill="#FFFFFF" cx="112.111" cy="20.972" r="17.508"/>
				<path fill="#FFFFFF" d="M112.12,3.474c9.668,0,17.505,7.84,17.505,17.508c0,9.669-7.837,17.51-17.505,17.51
					c-9.67,0-17.511-7.841-17.511-17.51C94.609,11.313,102.45,3.474,112.12,3.474z"/>
				<circle fill="#FFFFFF" cx="112.128" cy="20.992" r="17.509"/>
				<circle fill="#FFFFFF" cx="112.137" cy="21.002" r="17.508"/>
				<circle fill="#FFFFFF" cx="112.145" cy="21.012" r="17.508"/>
				<circle fill="#FFFFFF" cx="112.153" cy="21.023" r="17.509"/>
				<circle fill="#FFFFFF" cx="112.162" cy="21.032" r="17.509"/>
				<circle fill="#FFFFFF" cx="112.17" cy="21.043" r="17.509"/>
				<circle fill="#FFFFFF" cx="112.178" cy="21.053" r="17.509"/>
				<circle fill="#FFFFFF" cx="112.187" cy="21.063" r="17.508"/>
				<circle fill="#FFFFFF" cx="112.195" cy="21.073" r="17.508"/>
				<circle fill="#FFFFFF" cx="112.203" cy="21.083" r="17.508"/>
				<circle fill="#FFFFFF" cx="112.212" cy="21.093" r="17.509"/>
				<circle fill="#FFFFFF" cx="112.22" cy="21.103" r="17.509"/>
				<circle fill="#FFFFFF" cx="112.229" cy="21.113" r="17.509"/>
				<circle fill="#FFFFFF" cx="112.236" cy="21.123" r="17.509"/>
				<circle fill="#FFFFFF" cx="112.245" cy="21.133" r="17.508"/>
				<circle fill="#FFFFFF" cx="112.254" cy="21.143" r="17.508"/>
				<circle fill="#FFFFFF" cx="112.262" cy="21.153" r="17.509"/>
				<circle fill="#FFFFFF" cx="112.27" cy="21.163" r="17.509"/>
				<circle fill="#FFFFFF" cx="112.278" cy="21.173" r="17.508"/>
				<circle fill="#FFFFFF" cx="112.287" cy="21.183" r="17.508"/>
				<circle fill="#FFFFFF" cx="112.295" cy="21.194" r="17.509"/>
				<circle fill="#FFFFFF" cx="112.304" cy="21.204" r="17.508"/>
				<circle fill="#FFFFFF" cx="112.312" cy="21.213" r="17.508"/>
				<circle fill="#FFFFFF" cx="112.32" cy="21.223" r="17.508"/>
				<circle fill="#FFFFFF" cx="112.328" cy="21.234" r="17.508"/>
				<circle fill="#FFFFFF" cx="112.337" cy="21.244" r="17.508"/>
				<circle fill="#FFFFFF" cx="112.346" cy="21.254" r="17.509"/>
				<circle fill="#FFFFFF" cx="112.354" cy="21.264" r="17.509"/>
				<circle fill="#FFFFFF" cx="112.362" cy="21.274" r="17.508"/>
				<circle fill="#FFFFFF" cx="112.37" cy="21.284" r="17.508"/>
				<circle fill="#FFFFFF" cx="112.379" cy="21.293" r="17.508"/>
				<circle fill="#FFFFFF" cx="112.388" cy="21.304" r="17.508"/>
				<circle fill="#FFFFFF" cx="112.396" cy="21.314" r="17.508"/>
				<circle fill="#FFFFFF" cx="112.404" cy="21.324" r="17.508"/>
				<circle fill="#FFFFFF" cx="112.412" cy="21.334" r="17.509"/>
				<circle fill="#FFFFFF" cx="112.42" cy="21.344" r="17.508"/>
				<circle fill="#FFFFFF" cx="112.429" cy="21.354" r="17.508"/>
				<circle fill="#FFFFFF" cx="112.438" cy="21.364" r="17.508"/>
				<circle fill="#FFFFFF" cx="112.445" cy="21.375" r="17.508"/>
				<circle fill="#FFFFFF" cx="112.454" cy="21.384" r="17.508"/>
				<circle fill="#FFFFFF" cx="112.462" cy="21.394" r="17.508"/>
				<circle fill="#FFFFFF" cx="112.471" cy="21.404" r="17.508"/>
				<circle fill="#FFFFFF" cx="112.479" cy="21.415" r="17.508"/>
				<circle fill="#FFFFFF" cx="112.487" cy="21.425" r="17.508"/>
				<circle fill="#FFFFFF" cx="112.496" cy="21.435" r="17.508"/>
				<circle fill="#FFFFFF" cx="112.504" cy="21.445" r="17.508"/>
				<circle fill="#FFFFFF" cx="112.513" cy="21.455" r="17.508"/>
				<circle fill="#FFFFFF" cx="112.521" cy="21.465" r="17.508"/>
				<circle fill="#FFFFFF" cx="112.529" cy="21.475" r="17.508"/>
				<circle fill="#FFFFFF" cx="112.537" cy="21.485" r="17.508"/>
				<circle fill="#FFFFFF" cx="112.546" cy="21.495" r="17.508"/>
				<path fill="#FFFFFF" d="M112.555,3.997c9.668,0,17.504,7.841,17.504,17.509c0,9.669-7.836,17.508-17.504,17.508
					c-9.669,0-17.511-7.839-17.511-17.508C95.043,11.838,102.885,3.997,112.555,3.997z"/>
				<circle fill="#FFFFFF" cx="112.562" cy="21.515" r="17.508"/>
				<circle fill="#FFFFFF" cx="112.57" cy="21.525" r="17.508"/>
				<circle fill="#FFFFFF" cx="112.579" cy="21.535" r="17.508"/>
				<circle fill="#FFFFFF" cx="112.588" cy="21.545" r="17.508"/>
				<circle fill="#FFFFFF" cx="112.596" cy="21.555" r="17.508"/>
				<circle fill="#FFFFFF" cx="112.604" cy="21.565" r="17.508"/>
				<circle fill="#FFFFFF" cx="112.612" cy="21.575" r="17.508"/>
				<circle fill="#FFFFFF" cx="112.621" cy="21.586" r="17.508"/>
				<circle fill="#FFFFFF" cx="112.629" cy="21.596" r="17.508"/>
				<circle fill="#FFFFFF" cx="112.638" cy="21.605" r="17.508"/>
				<circle fill="#FFFFFF" cx="112.646" cy="21.616" r="17.508"/>
				<circle fill="#FFFFFF" cx="112.654" cy="21.626" r="17.508"/>
				<circle fill="#FFFFFF" cx="112.663" cy="21.635" r="17.508"/>
				<circle fill="#FFFFFF" cx="112.671" cy="21.646" r="17.508"/>
				<circle fill="#FFFFFF" cx="112.68" cy="21.656" r="17.508"/>
				<circle fill="#FFFFFF" cx="112.688" cy="21.666" r="17.508"/>
				<circle fill="#FFFFFF" cx="112.696" cy="21.676" r="17.508"/>
				<circle fill="#FFFFFF" cx="112.704" cy="21.686" r="17.508"/>
				<circle fill="#FFFFFF" cx="112.713" cy="21.696" r="17.508"/>
				<circle fill="#FFFFFF" cx="112.721" cy="21.706" r="17.508"/>
				<circle fill="#FFFFFF" cx="112.729" cy="21.716" r="17.508"/>
				<circle fill="#FFFFFF" cx="112.738" cy="21.726" r="17.508"/>
				<circle fill="#FFFFFF" cx="112.746" cy="21.736" r="17.508"/>
				<circle fill="#FFFFFF" cx="112.755" cy="21.746" r="17.508"/>
				<circle fill="#FFFFFF" cx="112.763" cy="21.756" r="17.508"/>
				<circle fill="#FFFFFF" cx="112.771" cy="21.767" r="17.508"/>
				<circle fill="#FFFFFF" cx="112.779" cy="21.776" r="17.508"/>
				<circle fill="#FFFFFF" cx="112.788" cy="21.786" r="17.508"/>
				<path fill="#FFFFFF" d="M112.797,4.289c9.667,0,17.504,7.841,17.504,17.51c0,9.668-7.837,17.505-17.504,17.505
					c-9.668,0-17.511-7.837-17.511-17.505C95.286,12.13,103.128,4.289,112.797,4.289z"/>
				<path fill="#FFFFFF" d="M130.31,21.809c0,9.669-7.837,17.506-17.505,17.506s-17.511-7.837-17.511-17.506
					c0-9.668,7.843-17.51,17.511-17.51S130.31,12.14,130.31,21.809z"/>
			</g>
			<circle clip-path="url(#SVGID_2_)" fill="#FFFFFF" cx="109.126" cy="17.486" r="17.509"/>
		</g>
		<path fill="#FFFFFF" d="M126.628,17.49c0,9.668-7.837,17.505-17.505,17.505c-9.669,0-17.509-7.837-17.509-17.505
			c0-9.669,7.84-17.51,17.509-17.51C118.791-0.02,126.628,7.821,126.628,17.49z"/>
	</g>
</g>
</svg>
