<?xml version="1.0" encoding="utf-8"?>
<!-- Generator: Adobe Illustrator 16.0.4, SVG Export Plug-In . SVG Version: 6.00 Build 0)  -->
<!DOCTYPE svg PUBLIC "-//W3C//DTD SVG 1.1//EN" "http://www.w3.org/Graphics/SVG/1.1/DTD/svg11.dtd">
<svg version="1.1" id="Layer_1" xmlns="http://www.w3.org/2000/svg" xmlns:xlink="http://www.w3.org/1999/xlink" x="0px" y="0px"
	 width="210px" height="35px" viewBox="0 0 210 35" enable-background="new 0 0 210 35" xml:space="preserve">
<path fill="#FFFFFF" d="M9.468,0.915H0v33.07h9.417c5.008,0,8.625-1.18,11.799-3.818c3.772-3.123,6.003-7.828,6.003-12.693
	C27.219,7.713,19.928,0.915,9.468,0.915z M17.002,25.758c-2.026,1.828-4.659,2.627-8.826,2.627H6.444V6.519h1.732
	c4.167,0,6.695,0.744,8.826,2.674c2.232,1.985,3.572,5.063,3.572,8.231C20.574,20.598,19.234,23.773,17.002,25.758z"/>
<rect x="30.188" y="0.915" fill="#FFFFFF" width="6.449" height="33.07"/>
<path fill="#FFFFFF" d="M52.409,13.604c-3.871-1.432-5.007-2.377-5.007-4.163c0-2.083,2.025-3.666,4.805-3.666
	c1.934,0,3.521,0.794,5.202,2.679l3.375-4.419c-2.774-2.426-6.093-3.667-9.717-3.667c-5.851,0-10.314,4.064-10.314,9.476
	c0,4.556,2.079,6.887,8.136,9.068c2.524,0.891,3.809,1.484,4.458,1.883c1.288,0.84,1.935,2.031,1.935,3.422
	c0,2.68-2.131,4.664-5.01,4.664c-3.075,0-5.554-1.537-7.039-4.408l-4.167,4.01c2.972,4.363,6.541,6.295,11.448,6.295
	c6.704,0,11.406-4.455,11.406-10.855C61.921,18.665,59.748,16.289,52.409,13.604z"/>
<path fill="#FFFFFF" d="M63.956,17.473c0,9.719,7.633,17.256,17.455,17.256c2.776,0,5.153-0.547,8.086-1.924v-7.596
	c-2.58,2.58-4.864,3.621-7.788,3.621c-6.496,0-11.107-4.709-11.107-11.406c0-6.348,4.758-11.356,10.809-11.356
	c3.075,0,5.406,1.096,8.086,3.72V2.199c-2.831-1.436-5.159-2.031-7.935-2.031C71.791,0.168,63.956,7.857,63.956,17.473z"/>
<polygon fill="#FFFFFF" points="140.64,23.125 131.818,0.915 124.774,0.915 138.807,34.834 142.278,34.834 156.563,0.915 
	149.571,0.915 "/>
<polygon fill="#FFFFFF" points="159.479,33.984 177.772,33.984 177.772,28.385 165.926,28.385 165.926,19.459 177.334,19.459 
	177.334,13.857 165.926,13.857 165.926,6.519 177.772,6.519 177.772,0.915 159.479,0.915 "/>
<path fill="#FFFFFF" d="M203.314,10.677c0-6.189-4.268-9.762-11.706-9.762h-9.563v33.07h6.44V20.699h0.845l8.927,13.285h7.932
	l-10.412-13.932C200.638,19.064,203.314,15.742,203.314,10.677z M190.373,16.139h-1.888V6.124h1.987
	c4.019,0,6.202,1.683,6.202,4.902C196.675,14.35,194.491,16.139,190.373,16.139z"/>
<g>
	<path fill="#FFFFFF" d="M208.454,2.649c0-0.581-0.402-0.899-1.105-0.899h-0.935v2.916h0.694V3.535l0.815,1.131h0.851l-0.958-1.203
		C208.226,3.353,208.454,3.054,208.454,2.649z M207.228,3.047h-0.119V2.285h0.126c0.344,0,0.523,0.124,0.523,0.375
		C207.758,2.917,207.576,3.047,207.228,3.047z"/>
	<path fill="#FFFFFF" d="M207.489,0.66c-1.415,0-2.541,1.13-2.541,2.542c0,1.412,1.139,2.543,2.541,2.543
		c1.379,0,2.511-1.144,2.511-2.543C210,1.81,208.868,0.66,207.489,0.66z M207.479,5.291c-1.114,0-2.025-0.928-2.025-2.085
		c0-1.161,0.902-2.088,2.025-2.088c1.11,0,2.013,0.949,2.013,2.088C209.491,4.353,208.589,5.291,207.479,5.291z"/>
</g>
<g>
	<g>
		<linearGradient id="SVGID_1_" gradientUnits="userSpaceOnUse" x1="118.0625" y1="31.4463" x2="105.9381" y2="12.4631">
			<stop  offset="0" style="stop-color:#F9A020"/>
			<stop  offset="0.2041" style="stop-color:#F99D20"/>
			<stop  offset="0.4348" style="stop-color:#F79320"/>
			<stop  offset="0.6196" style="stop-color:#F68820"/>
			<stop  offset="0.7969" style="stop-color:#F57E20"/>
			<stop  offset="1" style="stop-color:#F47521"/>
		</linearGradient>
		<circle fill="url(#SVGID_1_)" cx="109.099" cy="17.414" r="17.511"/>
		<linearGradient id="SVGID_2_" gradientUnits="userSpaceOnUse" x1="116.1475" y1="31.1885" x2="98.4267" y2="-3.4476">
			<stop  offset="0" style="stop-color:#F68820;stop-opacity:0"/>
			<stop  offset="0.3403" style="stop-color:#E17029;stop-opacity:0.2565"/>
			<stop  offset="0.6944" style="stop-color:#D4602D;stop-opacity:0.5235"/>
			<stop  offset="0.9816" style="stop-color:#D05B2E;stop-opacity:0.74"/>
		</linearGradient>
		<circle opacity="0.65" fill="url(#SVGID_2_)" cx="109.099" cy="17.414" r="17.511"/>
	</g>
	<g opacity="0.5">
		<defs>
			<circle id="SVGID_3_" opacity="0.5" cx="109.098" cy="17.417" r="17.512"/>
		</defs>
		<clipPath id="SVGID_4_">
			<use xlink:href="#SVGID_3_"  overflow="visible"/>
		</clipPath>
		<g clip-path="url(#SVGID_4_)">
			<circle cx="109.155" cy="17.473" r="17.864"/>
			<circle fill="#030304" cx="109.165" cy="17.483" r="17.862"/>
			<circle fill="#080808" cx="109.175" cy="17.495" r="17.861"/>
			<circle fill="#0C0C0C" cx="109.185" cy="17.506" r="17.859"/>
			<circle fill="#100F10" cx="109.193" cy="17.517" r="17.857"/>
			<circle fill="#131313" cx="109.204" cy="17.528" r="17.855"/>
			<circle fill="#161616" cx="109.214" cy="17.539" r="17.854"/>
			<circle fill="#191919" cx="109.223" cy="17.551" r="17.852"/>
			<circle fill="#1C1B1C" cx="109.232" cy="17.561" r="17.85"/>
			<circle fill="#1E1E1F" cx="109.242" cy="17.573" r="17.848"/>
			<circle fill="#212021" cx="109.252" cy="17.584" r="17.847"/>
			<circle fill="#232324" cx="109.262" cy="17.595" r="17.844"/>
			<circle fill="#252526" cx="109.271" cy="17.606" r="17.843"/>
			<circle fill="#282728" cx="109.281" cy="17.618" r="17.841"/>
			<circle fill="#2A292B" cx="109.291" cy="17.628" r="17.839"/>
			<circle fill="#2C2C2D" cx="109.301" cy="17.64" r="17.838"/>
			<circle fill="#2E2E2F" cx="109.311" cy="17.651" r="17.836"/>
			<circle fill="#303031" cx="109.319" cy="17.662" r="17.834"/>
			<path fill="#323133" d="M109.33-0.16c9.847,0,17.831,7.985,17.831,17.833c0,9.851-7.984,17.833-17.831,17.833
				c-9.851,0-17.833-7.982-17.833-17.833C91.497,7.825,99.479-0.16,109.33-0.16z"/>
			<circle fill="#343335" cx="109.339" cy="17.684" r="17.831"/>
			<circle fill="#363537" cx="109.349" cy="17.695" r="17.829"/>
			<circle fill="#373739" cx="109.358" cy="17.707" r="17.827"/>
			<circle fill="#39393A" cx="109.368" cy="17.718" r="17.825"/>
			<circle fill="#3B3B3C" cx="109.378" cy="17.729" r="17.824"/>
			<circle fill="#3D3C3E" cx="109.387" cy="17.74" r="17.822"/>
			<circle fill="#3E3E40" cx="109.397" cy="17.751" r="17.82"/>
			<circle fill="#403F41" cx="109.407" cy="17.762" r="17.819"/>
			<circle fill="#414042" cx="109.416" cy="17.774" r="17.817"/>
			<circle fill="#424143" cx="109.426" cy="17.785" r="17.815"/>
			<circle fill="#434244" cx="109.437" cy="17.796" r="17.813"/>
			<circle fill="#444345" cx="109.445" cy="17.807" r="17.812"/>
			<circle fill="#454446" cx="109.455" cy="17.818" r="17.81"/>
			<circle fill="#454547" cx="109.465" cy="17.829" r="17.808"/>
			<circle fill="#464648" cx="109.475" cy="17.84" r="17.806"/>
			<circle fill="#474749" cx="109.484" cy="17.852" r="17.805"/>
			<circle fill="#48484A" cx="109.494" cy="17.863" r="17.803"/>
			<circle fill="#49494B" cx="109.504" cy="17.874" r="17.801"/>
			<circle fill="#4A4A4C" cx="109.514" cy="17.885" r="17.799"/>
			<circle fill="#4B4B4D" cx="109.523" cy="17.896" r="17.798"/>
			<circle fill="#4C4C4E" cx="109.533" cy="17.907" r="17.796"/>
			<circle fill="#4D4D4F" cx="109.542" cy="17.919" r="17.794"/>
			<circle fill="#4D4E50" cx="109.552" cy="17.929" r="17.792"/>
			<circle fill="#4E4F51" cx="109.562" cy="17.941" r="17.791"/>
			<circle fill="#4F5052" cx="109.571" cy="17.952" r="17.789"/>
			<circle fill="#505052" cx="109.581" cy="17.963" r="17.787"/>
			<circle fill="#515153" cx="109.591" cy="17.975" r="17.785"/>
			<circle fill="#525254" cx="109.601" cy="17.986" r="17.784"/>
			<circle fill="#535355" cx="109.61" cy="17.997" r="17.782"/>
			<circle fill="#535456" cx="109.62" cy="18.008" r="17.78"/>
			<circle fill="#545557" cx="109.629" cy="18.019" r="17.778"/>
			<circle fill="#555658" cx="109.639" cy="18.03" r="17.777"/>
			<circle fill="#565759" cx="109.648" cy="18.041" r="17.775"/>
			<circle fill="#57585A" cx="109.658" cy="18.052" r="17.773"/>
			<circle fill="#58585B" cx="109.668" cy="18.063" r="17.771"/>
			<circle fill="#58595B" cx="109.678" cy="18.075" r="17.77"/>
			<circle fill="#595A5C" cx="109.688" cy="18.086" r="17.768"/>
			<circle fill="#5A5B5D" cx="109.697" cy="18.097" r="17.767"/>
			<circle fill="#5B5C5E" cx="109.707" cy="18.108" r="17.765"/>
			<circle fill="#5C5D5F" cx="109.717" cy="18.12" r="17.763"/>
			<circle fill="#5C5D60" cx="109.727" cy="18.131" r="17.761"/>
			<circle fill="#5D5E61" cx="109.736" cy="18.141" r="17.759"/>
			<circle fill="#5E5F61" cx="109.746" cy="18.153" r="17.758"/>
			<circle fill="#5F6062" cx="109.756" cy="18.164" r="17.756"/>
			<circle fill="#606163" cx="109.765" cy="18.175" r="17.754"/>
			<circle fill="#606264" cx="109.774" cy="18.186" r="17.752"/>
			<circle fill="#616265" cx="109.784" cy="18.197" r="17.75"/>
			<circle fill="#626366" cx="109.794" cy="18.209" r="17.749"/>
			<circle fill="#636466" cx="109.804" cy="18.22" r="17.747"/>
			<circle fill="#646567" cx="109.813" cy="18.23" r="17.745"/>
			<circle fill="#646668" cx="109.823" cy="18.242" r="17.743"/>
			<circle fill="#656669" cx="109.833" cy="18.253" r="17.742"/>
			<circle fill="#66676A" cx="109.843" cy="18.265" r="17.74"/>
			<circle fill="#67686A" cx="109.852" cy="18.275" r="17.738"/>
			<circle fill="#67696B" cx="109.862" cy="18.287" r="17.737"/>
			<circle fill="#686A6C" cx="109.872" cy="18.298" r="17.735"/>
			<circle fill="#696A6D" cx="109.881" cy="18.309" r="17.733"/>
			<circle fill="#6A6B6D" cx="109.891" cy="18.32" r="17.731"/>
			<circle fill="#6B6C6E" cx="109.9" cy="18.331" r="17.729"/>
			<circle fill="#6B6D6F" cx="109.91" cy="18.343" r="17.728"/>
			<circle fill="#6C6D70" cx="109.92" cy="18.354" r="17.726"/>
			<circle fill="#6D6E71" cx="109.93" cy="18.364" r="17.725"/>
			<circle fill="#6D6F71" cx="109.939" cy="18.376" r="17.723"/>
			<circle fill="#6E7072" cx="109.949" cy="18.387" r="17.721"/>
			<circle fill="#6F7073" cx="109.959" cy="18.398" r="17.719"/>
			<circle fill="#707174" cx="109.968" cy="18.409" r="17.718"/>
			<circle fill="#707274" cx="109.978" cy="18.421" r="17.716"/>
			<circle fill="#717375" cx="109.988" cy="18.432" r="17.714"/>
			<circle fill="#727376" cx="109.997" cy="18.443" r="17.712"/>
			<circle fill="#737477" cx="110.007" cy="18.454" r="17.71"/>
			<circle fill="#737577" cx="110.017" cy="18.465" r="17.709"/>
			<circle fill="#747678" cx="110.026" cy="18.477" r="17.707"/>
			<circle fill="#757679" cx="110.036" cy="18.487" r="17.705"/>
			<circle fill="#75777A" cx="110.045" cy="18.499" r="17.704"/>
			<circle fill="#76787A" cx="110.056" cy="18.51" r="17.701"/>
			<circle fill="#77797B" cx="110.065" cy="18.521" r="17.7"/>
			<circle fill="#78797C" cx="110.074" cy="18.532" r="17.698"/>
			<circle fill="#787A7D" cx="110.084" cy="18.543" r="17.696"/>
			<circle fill="#797B7D" cx="110.094" cy="18.555" r="17.695"/>
			<circle fill="#7A7B7E" cx="110.104" cy="18.566" r="17.693"/>
			<circle fill="#7A7C7F" cx="110.113" cy="18.576" r="17.691"/>
			<circle fill="#7B7D7F" cx="110.123" cy="18.588" r="17.689"/>
			<circle fill="#7C7E80" cx="110.133" cy="18.599" r="17.688"/>
			<circle fill="#7D7E81" cx="110.143" cy="18.61" r="17.686"/>
			<circle fill="#7D7F82" cx="110.152" cy="18.621" r="17.684"/>
			<circle fill="#7E8082" cx="110.162" cy="18.633" r="17.683"/>
			<circle fill="#7F8183" cx="110.172" cy="18.644" r="17.681"/>
			<circle fill="#7F8184" cx="110.181" cy="18.655" r="17.679"/>
			<circle fill="#808285" cx="110.191" cy="18.666" r="17.678"/>
			<circle fill="#818385" cx="110.2" cy="18.677" r="17.676"/>
			<circle fill="#828386" cx="110.21" cy="18.688" r="17.674"/>
			<circle fill="#828487" cx="110.22" cy="18.699" r="17.672"/>
			<circle fill="#838587" cx="110.229" cy="18.71" r="17.67"/>
			<circle fill="#848688" cx="110.239" cy="18.722" r="17.669"/>
			<circle fill="#848689" cx="110.249" cy="18.733" r="17.667"/>
			<circle fill="#85878A" cx="110.258" cy="18.744" r="17.665"/>
			<circle fill="#86888A" cx="110.269" cy="18.755" r="17.664"/>
			<circle fill="#86888B" cx="110.277" cy="18.766" r="17.662"/>
			<circle fill="#87898C" cx="110.287" cy="18.778" r="17.66"/>
			<circle fill="#888A8C" cx="110.297" cy="18.789" r="17.658"/>
			<circle fill="#898B8D" cx="110.307" cy="18.8" r="17.657"/>
			<circle fill="#898B8E" cx="110.316" cy="18.811" r="17.655"/>
			<circle fill="#8A8C8F" cx="110.326" cy="18.822" r="17.653"/>
			<circle fill="#8B8D8F" cx="110.336" cy="18.833" r="17.651"/>
			<circle fill="#8B8D90" cx="110.346" cy="18.845" r="17.649"/>
			<circle fill="#8C8E91" cx="110.355" cy="18.856" r="17.648"/>
			<circle fill="#8D8F91" cx="110.365" cy="18.867" r="17.646"/>
			<circle fill="#8D9092" cx="110.375" cy="18.878" r="17.645"/>
			<circle fill="#8E9093" cx="110.385" cy="18.889" r="17.643"/>
			<circle fill="#8F9194" cx="110.395" cy="18.9" r="17.641"/>
			<circle fill="#909294" cx="110.404" cy="18.912" r="17.639"/>
			<circle fill="#909295" cx="110.414" cy="18.922" r="17.637"/>
			<circle fill="#919396" cx="110.423" cy="18.934" r="17.636"/>
			<circle fill="#929497" cx="110.433" cy="18.945" r="17.634"/>
			<circle fill="#939597" cx="110.442" cy="18.956" r="17.632"/>
			<circle fill="#939598" cx="110.452" cy="18.967" r="17.63"/>
			<circle fill="#949699" cx="110.462" cy="18.979" r="17.629"/>
			<circle fill="#959799" cx="110.472" cy="18.99" r="17.627"/>
			<circle fill="#95989A" cx="110.481" cy="19.001" r="17.625"/>
			<circle fill="#96989B" cx="110.491" cy="19.012" r="17.624"/>
			<circle fill="#97999C" cx="110.5" cy="19.023" r="17.622"/>
			<circle fill="#989A9C" cx="110.51" cy="19.034" r="17.62"/>
			<circle fill="#989A9D" cx="110.52" cy="19.045" r="17.618"/>
			<circle fill="#999B9E" cx="110.529" cy="19.057" r="17.616"/>
			<circle fill="#9A9C9F" cx="110.539" cy="19.068" r="17.615"/>
			<circle fill="#9B9D9F" cx="110.549" cy="19.079" r="17.613"/>
			<circle fill="#9B9DA0" cx="110.559" cy="19.09" r="17.611"/>
			<circle fill="#9C9EA1" cx="110.568" cy="19.101" r="17.61"/>
			<circle fill="#9D9FA1" cx="110.578" cy="19.113" r="17.608"/>
			<circle fill="#9DA0A2" cx="110.588" cy="19.124" r="17.606"/>
			<circle fill="#9EA0A3" cx="110.598" cy="19.134" r="17.604"/>
			<circle fill="#9FA1A4" cx="110.607" cy="19.146" r="17.603"/>
			<circle fill="#A0A2A4" cx="110.616" cy="19.157" r="17.601"/>
			<circle fill="#A0A3A5" cx="110.627" cy="19.168" r="17.599"/>
			<circle fill="#A1A3A6" cx="110.636" cy="19.179" r="17.597"/>
			<circle fill="#A2A4A7" cx="110.646" cy="19.19" r="17.596"/>
			<circle fill="#A3A5A7" cx="110.655" cy="19.202" r="17.594"/>
			<circle fill="#A3A6A8" cx="110.665" cy="19.213" r="17.592"/>
			<circle fill="#A4A6A9" cx="110.675" cy="19.224" r="17.59"/>
			<circle fill="#A5A7AA" cx="110.685" cy="19.235" r="17.588"/>
			<circle fill="#A6A8AA" cx="110.693" cy="19.246" r="17.587"/>
			<circle fill="#A6A9AB" cx="110.704" cy="19.257" r="17.585"/>
			<circle fill="#A7A9AC" cx="110.713" cy="19.268" r="17.583"/>
			<circle fill="#A8AAAD" cx="110.723" cy="19.28" r="17.582"/>
			<circle fill="#A9ABAD" cx="110.733" cy="19.291" r="17.58"/>
			<circle fill="#A9ACAE" cx="110.742" cy="19.302" r="17.578"/>
			<circle fill="#AAACAF" cx="110.752" cy="19.313" r="17.576"/>
			<circle fill="#ABADB0" cx="110.762" cy="19.324" r="17.575"/>
			<circle fill="#ACAEB0" cx="110.771" cy="19.335" r="17.573"/>
			<circle fill="#ADAFB1" cx="110.781" cy="19.347" r="17.571"/>
			<circle fill="#ADAFB2" cx="110.791" cy="19.357" r="17.569"/>
			<circle fill="#AEB0B3" cx="110.801" cy="19.369" r="17.568"/>
			<circle fill="#AFB1B3" cx="110.811" cy="19.38" r="17.566"/>
			<circle fill="#B0B2B4" cx="110.82" cy="19.391" r="17.564"/>
			<circle fill="#B0B2B5" cx="110.83" cy="19.402" r="17.562"/>
			<circle fill="#B1B3B6" cx="110.839" cy="19.414" r="17.561"/>
			<circle fill="#B2B4B6" cx="110.85" cy="19.425" r="17.559"/>
			<circle fill="#B3B5B7" cx="110.858" cy="19.436" r="17.557"/>
			<circle fill="#B4B6B8" cx="110.868" cy="19.447" r="17.555"/>
			<circle fill="#B4B6B9" cx="110.878" cy="19.458" r="17.554"/>
			<circle fill="#B5B7B9" cx="110.888" cy="19.469" r="17.552"/>
			<circle fill="#B6B8BA" cx="110.897" cy="19.48" r="17.55"/>
			<circle fill="#B7B9BB" cx="110.907" cy="19.492" r="17.548"/>
			<circle fill="#B8B9BC" cx="110.917" cy="19.503" r="17.547"/>
			<circle fill="#B8BABD" cx="110.927" cy="19.514" r="17.545"/>
			<circle fill="#B9BBBD" cx="110.936" cy="19.525" r="17.543"/>
			<circle fill="#BABCBE" cx="110.946" cy="19.536" r="17.542"/>
			<circle fill="#BBBDBF" cx="110.955" cy="19.548" r="17.54"/>
			<circle fill="#BBBDC0" cx="110.965" cy="19.559" r="17.538"/>
			<circle fill="#BCBEC0" cx="110.975" cy="19.569" r="17.536"/>
			<circle fill="#BDBFC1" cx="110.984" cy="19.581" r="17.534"/>
			<circle fill="#BEC0C2" cx="110.994" cy="19.592" r="17.533"/>
			<circle fill="#BFC0C3" cx="111.004" cy="19.604" r="17.531"/>
			<circle fill="#BFC1C3" cx="111.014" cy="19.614" r="17.529"/>
			<circle fill="#C0C2C4" cx="111.023" cy="19.626" r="17.528"/>
			<circle fill="#C1C3C5" cx="111.032" cy="19.637" r="17.526"/>
			<circle fill="#C2C4C6" cx="111.043" cy="19.648" r="17.524"/>
			<circle fill="#C3C4C6" cx="111.052" cy="19.659" r="17.522"/>
			<circle fill="#C3C5C7" cx="111.062" cy="19.67" r="17.521"/>
			<circle fill="#C4C6C8" cx="111.071" cy="19.681" r="17.519"/>
			<circle fill="#C5C7C9" cx="111.081" cy="19.693" r="17.517"/>
			<circle fill="#C6C8CA" cx="111.091" cy="19.704" r="17.515"/>
			<circle fill="#C7C8CA" cx="111.1" cy="19.714" r="17.513"/>
			<circle opacity="0.995" fill="#C7C9CB" cx="111.108" cy="19.725" r="17.514"/>
			<circle opacity="0.9901" fill="#C7C9CB" cx="111.117" cy="19.735" r="17.514"/>
			<circle opacity="0.9851" fill="#C7C9CB" cx="111.125" cy="19.745" r="17.514"/>
			<circle opacity="0.9801" fill="#C8C9CB" cx="111.134" cy="19.755" r="17.514"/>
			<circle opacity="0.9751" fill="#C8CACC" cx="111.143" cy="19.766" r="17.514"/>
			<circle opacity="0.9702" fill="#C8CACC" cx="111.15" cy="19.775" r="17.514"/>
			<circle opacity="0.9652" fill="#C8CACC" cx="111.159" cy="19.785" r="17.513"/>
			<circle opacity="0.9602" fill="#C9CACC" cx="111.167" cy="19.795" r="17.513"/>
			<circle opacity="0.9552" fill="#C9CBCD" cx="111.176" cy="19.805" r="17.514"/>
			<circle opacity="0.9502" fill="#C9CBCD" cx="111.185" cy="19.816" r="17.513"/>
			<circle opacity="0.9453" fill="#C9CBCD" cx="111.192" cy="19.825" r="17.513"/>
			<circle opacity="0.9403" fill="#CACBCD" cx="111.201" cy="19.836" r="17.514"/>
			<circle opacity="0.9353" fill="#CACCCE" cx="111.209" cy="19.846" r="17.513"/>
			<circle opacity="0.9303" fill="#CACCCE" cx="111.218" cy="19.856" r="17.513"/>
			<circle opacity="0.9254" fill="#CBCCCE" cx="111.226" cy="19.866" r="17.514"/>
			<circle opacity="0.9204" fill="#CBCCCE" cx="111.234" cy="19.876" r="17.514"/>
			<circle opacity="0.9154" fill="#CBCDCF" cx="111.242" cy="19.886" r="17.513"/>
			<circle opacity="0.9104" fill="#CBCDCF" cx="111.251" cy="19.896" r="17.514"/>
			<circle opacity="0.9055" fill="#CCCDCF" cx="111.259" cy="19.906" r="17.514"/>
			<circle opacity="0.9005" fill="#CCCDCF" cx="111.268" cy="19.916" r="17.513"/>
			<circle opacity="0.8955" fill="#CCCED0" cx="111.276" cy="19.927" r="17.514"/>
			<circle opacity="0.8905" fill="#CCCED0" cx="111.285" cy="19.937" r="17.513"/>
			<circle opacity="0.8856" fill="#CDCED0" cx="111.293" cy="19.947" r="17.513"/>
			<circle opacity="0.8806" fill="#CDCED0" cx="111.301" cy="19.957" r="17.514"/>
			<circle opacity="0.8756" fill="#CDCFD1" cx="111.31" cy="19.967" r="17.514"/>
			<circle opacity="0.8706" fill="#CDCFD1" cx="111.318" cy="19.977" r="17.513"/>
			<circle opacity="0.8657" fill="#CECFD1" cx="111.326" cy="19.987" r="17.514"/>
			<circle opacity="0.8607" fill="#CED0D1" cx="111.335" cy="19.997" r="17.514"/>
			<circle opacity="0.8557" fill="#CED0D1" cx="111.343" cy="20.008" r="17.514"/>
			<circle opacity="0.8507" fill="#CED0D2" cx="111.352" cy="20.018" r="17.514"/>
			<circle opacity="0.8458" fill="#CFD0D2" cx="111.359" cy="20.027" r="17.514"/>
			<circle opacity="0.8408" fill="#CFD1D2" cx="111.368" cy="20.037" r="17.513"/>
			<circle opacity="0.8358" fill="#CFD1D2" cx="111.376" cy="20.047" r="17.513"/>
			<circle opacity="0.8308" fill="#D0D1D3" cx="111.385" cy="20.058" r="17.514"/>
			<circle opacity="0.8259" fill="#D0D1D3" cx="111.393" cy="20.068" r="17.513"/>
			<circle opacity="0.8209" fill="#D0D2D3" cx="111.401" cy="20.078" r="17.514"/>
			<circle opacity="0.8159" fill="#D0D2D3" cx="111.41" cy="20.088" r="17.513"/>
			<circle opacity="0.8109" fill="#D1D2D4" cx="111.418" cy="20.098" r="17.513"/>
			<circle opacity="0.806" fill="#D1D2D4" cx="111.427" cy="20.108" r="17.513"/>
			<circle opacity="0.801" fill="#D1D3D4" cx="111.435" cy="20.118" r="17.513"/>
			<circle opacity="0.796" fill="#D1D3D4" cx="111.443" cy="20.128" r="17.514"/>
			<circle opacity="0.791" fill="#D2D3D5" cx="111.451" cy="20.138" r="17.513"/>
			<circle opacity="0.7861" fill="#D2D3D5" cx="111.46" cy="20.148" r="17.514"/>
			<circle opacity="0.7811" fill="#D2D4D5" cx="111.468" cy="20.158" r="17.514"/>
			<circle opacity="0.7761" fill="#D2D4D5" cx="111.477" cy="20.169" r="17.514"/>
			<circle opacity="0.7711" fill="#D3D4D6" cx="111.484" cy="20.179" r="17.514"/>
			<circle opacity="0.7662" fill="#D3D4D6" cx="111.493" cy="20.189" r="17.513"/>
			<circle opacity="0.7612" fill="#D3D5D6" cx="111.501" cy="20.198" r="17.513"/>
			<circle opacity="0.7562" fill="#D4D5D6" cx="111.51" cy="20.208" r="17.513"/>
			<circle opacity="0.7512" fill="#D4D5D7" cx="111.519" cy="20.219" r="17.513"/>
			<circle opacity="0.7463" fill="#D4D5D7" cx="111.527" cy="20.229" r="17.513"/>
			<circle opacity="0.7413" fill="#D4D6D7" cx="111.535" cy="20.239" r="17.513"/>
			<circle opacity="0.7363" fill="#D5D6D7" cx="111.543" cy="20.249" r="17.514"/>
			<circle opacity="0.7313" fill="#D5D6D8" cx="111.552" cy="20.26" r="17.514"/>
			<circle opacity="0.7264" fill="#D5D6D8" cx="111.561" cy="20.27" r="17.514"/>
			<circle opacity="0.7214" fill="#D5D7D8" cx="111.568" cy="20.279" r="17.514"/>
			<circle opacity="0.7164" fill="#D6D7D8" cx="111.577" cy="20.289" r="17.513"/>
			<circle opacity="0.7114" fill="#D6D7D9" cx="111.586" cy="20.3" r="17.514"/>
			<circle opacity="0.7065" fill="#D6D7D9" cx="111.594" cy="20.31" r="17.514"/>
			<circle opacity="0.7015" fill="#D6D8D9" cx="111.602" cy="20.319" r="17.514"/>
			<circle opacity="0.6965" fill="#D7D8D9" cx="111.61" cy="20.33" r="17.513"/>
			<circle opacity="0.6915" fill="#D7D8DA" cx="111.619" cy="20.34" r="17.513"/>
			<circle opacity="0.6866" fill="#D7D8DA" cx="111.627" cy="20.35" r="17.513"/>
			<circle opacity="0.6816" fill="#D7D9DA" cx="111.635" cy="20.36" r="17.513"/>
			<circle opacity="0.6766" fill="#D8D9DA" cx="111.644" cy="20.37" r="17.514"/>
			<circle opacity="0.6716" fill="#D8D9DB" cx="111.652" cy="20.38" r="17.513"/>
			<circle opacity="0.6667" fill="#D8D9DB" cx="111.66" cy="20.39" r="17.513"/>
			<circle opacity="0.6617" fill="#D8DADB" cx="111.668" cy="20.4" r="17.513"/>
			<circle opacity="0.6567" fill="#D9DADB" cx="111.678" cy="20.41" r="17.513"/>
			<circle opacity="0.6517" fill="#D9DADC" cx="111.686" cy="20.42" r="17.513"/>
			<circle opacity="0.6468" fill="#D9DBDC" cx="111.694" cy="20.43" r="17.513"/>
			<circle opacity="0.6418" fill="#DADBDC" cx="111.702" cy="20.44" r="17.514"/>
			<circle opacity="0.6368" fill="#DADBDC" cx="111.711" cy="20.451" r="17.514"/>
			<circle opacity="0.6318" fill="#DADBDD" cx="111.719" cy="20.461" r="17.513"/>
			<circle opacity="0.6269" fill="#DADCDD" cx="111.728" cy="20.471" r="17.513"/>
			<circle opacity="0.6219" fill="#DBDCDD" cx="111.735" cy="20.481" r="17.513"/>
			<circle opacity="0.6169" fill="#DBDCDD" cx="111.744" cy="20.491" r="17.513"/>
			<circle opacity="0.6119" fill="#DBDCDE" cx="111.753" cy="20.501" r="17.513"/>
			<circle opacity="0.607" fill="#DBDDDE" cx="111.761" cy="20.511" r="17.513"/>
			<circle opacity="0.602" fill="#DCDDDE" cx="111.769" cy="20.521" r="17.513"/>
			<circle opacity="0.597" fill="#DCDDDE" cx="111.777" cy="20.531" r="17.513"/>
			<circle opacity="0.592" fill="#DCDDDF" cx="111.786" cy="20.542" r="17.513"/>
			<circle opacity="0.5871" fill="#DCDEDF" cx="111.794" cy="20.551" r="17.513"/>
			<circle opacity="0.5821" fill="#DDDEDF" cx="111.803" cy="20.561" r="17.513"/>
			<circle opacity="0.5771" fill="#DDDEDF" cx="111.811" cy="20.572" r="17.513"/>
			<circle opacity="0.5721" fill="#DDDEE0" cx="111.819" cy="20.582" r="17.514"/>
			<circle opacity="0.5672" fill="#DDDFE0" cx="111.827" cy="20.592" r="17.514"/>
			<circle opacity="0.5622" fill="#DEDFE0" cx="111.836" cy="20.602" r="17.513"/>
			<circle opacity="0.5572" fill="#DEDFE0" cx="111.844" cy="20.612" r="17.513"/>
			<circle opacity="0.5522" fill="#DEDFE1" cx="111.854" cy="20.622" r="17.513"/>
			<circle opacity="0.5473" fill="#DFE0E1" cx="111.861" cy="20.632" r="17.513"/>
			<circle opacity="0.5423" fill="#DFE0E1" cx="111.869" cy="20.642" r="17.513"/>
			<circle opacity="0.5373" fill="#DFE0E1" cx="111.878" cy="20.652" r="17.514"/>
			<circle opacity="0.5323" fill="#DFE0E2" cx="111.887" cy="20.663" r="17.513"/>
			<circle opacity="0.5274" fill="#E0E1E2" cx="111.895" cy="20.672" r="17.513"/>
			<circle opacity="0.5224" fill="#E0E1E2" cx="111.902" cy="20.682" r="17.513"/>
			<circle opacity="0.5174" fill="#E0E1E2" cx="111.911" cy="20.693" r="17.513"/>
			<circle opacity="0.5124" fill="#E0E1E3" cx="111.92" cy="20.703" r="17.513"/>
			<circle opacity="0.5075" fill="#E1E2E3" cx="111.928" cy="20.712" r="17.513"/>
			<circle opacity="0.5025" fill="#E1E2E3" cx="111.936" cy="20.723" r="17.514"/>
			<circle opacity="0.4975" fill="#E1E2E3" cx="111.944" cy="20.733" r="17.513"/>
			<circle opacity="0.4925" fill="#E1E2E4" cx="111.953" cy="20.743" r="17.513"/>
			<circle opacity="0.4876" fill="#E2E3E4" cx="111.961" cy="20.753" r="17.513"/>
			<circle opacity="0.4826" fill="#E2E3E4" cx="111.97" cy="20.763" r="17.513"/>
			<circle opacity="0.4776" fill="#E2E3E4" cx="111.979" cy="20.773" r="17.514"/>
			<circle opacity="0.4726" fill="#E2E3E4" cx="111.986" cy="20.783" r="17.513"/>
			<circle opacity="0.4677" fill="#E3E4E5" cx="111.994" cy="20.793" r="17.513"/>
			<circle opacity="0.4627" fill="#E3E4E5" cx="112.003" cy="20.803" r="17.513"/>
			<circle opacity="0.4577" fill="#E3E4E5" cx="112.012" cy="20.814" r="17.513"/>
			<circle opacity="0.4527" fill="#E3E4E5" cx="112.02" cy="20.824" r="17.513"/>
			<circle opacity="0.4478" fill="#E4E5E6" cx="112.028" cy="20.833" r="17.513"/>
			<circle opacity="0.4428" fill="#E4E5E6" cx="112.036" cy="20.844" r="17.513"/>
			<circle opacity="0.4378" fill="#E4E5E6" cx="112.045" cy="20.854" r="17.513"/>
			<circle opacity="0.4328" fill="#E5E5E6" cx="112.053" cy="20.864" r="17.513"/>
			<circle opacity="0.4279" fill="#E5E6E7" cx="112.062" cy="20.874" r="17.513"/>
			<circle opacity="0.4229" fill="#E5E6E7" cx="112.07" cy="20.884" r="17.513"/>
			<circle opacity="0.4179" fill="#E5E6E7" cx="112.078" cy="20.894" r="17.513"/>
			<circle opacity="0.4129" fill="#E6E6E7" cx="112.087" cy="20.905" r="17.513"/>
			<circle opacity="0.408" fill="#E6E7E8" cx="112.096" cy="20.915" r="17.513"/>
			<circle opacity="0.403" fill="#E6E7E8" cx="112.104" cy="20.924" r="17.513"/>
			<circle opacity="0.398" fill="#E6E7E8" cx="112.111" cy="20.934" r="17.513"/>
			<circle opacity="0.393" fill="#E7E8E8" cx="112.12" cy="20.945" r="17.513"/>
			<circle opacity="0.3881" fill="#E7E8E9" cx="112.129" cy="20.955" r="17.513"/>
			<circle opacity="0.3831" fill="#E7E8E9" cx="112.137" cy="20.965" r="17.513"/>
			<circle opacity="0.3781" fill="#E8E8E9" cx="112.145" cy="20.975" r="17.513"/>
			<circle opacity="0.3731" fill="#E8E9E9" cx="112.153" cy="20.985" r="17.513"/>
			<circle opacity="0.3682" fill="#E8E9EA" cx="112.162" cy="20.995" r="17.513"/>
			<circle opacity="0.3632" fill="#E8E9EA" cx="112.17" cy="21.005" r="17.513"/>
			<circle opacity="0.3582" fill="#E9E9EA" cx="112.179" cy="21.015" r="17.513"/>
			<circle opacity="0.3532" fill="#E9EAEB" cx="112.187" cy="21.025" r="17.513"/>
			<circle opacity="0.3483" fill="#E9EAEB" cx="112.195" cy="21.035" r="17.513"/>
			<circle opacity="0.3433" fill="#EAEAEB" cx="112.204" cy="21.045" r="17.513"/>
			<circle opacity="0.3383" fill="#EAEBEB" cx="112.212" cy="21.055" r="17.513"/>
			<circle opacity="0.3333" fill="#EAEBEC" cx="112.221" cy="21.065" r="17.513"/>
			<circle opacity="0.3284" fill="#EAEBEC" cx="112.229" cy="21.076" r="17.513"/>
			<circle opacity="0.3234" fill="#EBEBEC" cx="112.237" cy="21.086" r="17.513"/>
			<circle opacity="0.3184" fill="#EBECEC" cx="112.246" cy="21.096" r="17.513"/>
			<circle opacity="0.3134" fill="#EBECED" cx="112.254" cy="21.106" r="17.513"/>
			<circle opacity="0.3085" fill="#EBECED" cx="112.262" cy="21.116" r="17.513"/>
			<circle opacity="0.3035" fill="#ECECED" cx="112.271" cy="21.126" r="17.513"/>
			<circle opacity="0.2985" fill="#ECECED" cx="112.279" cy="21.136" r="17.513"/>
			<circle opacity="0.2935" fill="#ECEDED" cx="112.287" cy="21.147" r="17.513"/>
			<circle opacity="0.2886" fill="#ECEDEE" cx="112.296" cy="21.156" r="17.513"/>
			<circle opacity="0.2836" fill="#EDEDEE" cx="112.304" cy="21.167" r="17.513"/>
			<circle opacity="0.2786" fill="#EDEEEE" cx="112.312" cy="21.177" r="17.513"/>
			<circle opacity="0.2736" fill="#EDEEEE" cx="112.32" cy="21.187" r="17.513"/>
			<circle opacity="0.2687" fill="#EDEEEF" cx="112.329" cy="21.197" r="17.513"/>
			<circle opacity="0.2637" fill="#EEEEEF" cx="112.338" cy="21.207" r="17.513"/>
			<circle opacity="0.2587" fill="#EEEFEF" cx="112.346" cy="21.217" r="17.513"/>
			<circle opacity="0.2537" fill="#EEEFEF" cx="112.354" cy="21.227" r="17.513"/>
			<circle opacity="0.2488" fill="#EEEFF0" cx="112.362" cy="21.237" r="17.513"/>
			<circle opacity="0.2438" fill="#EFEFF0" cx="112.371" cy="21.247" r="17.513"/>
			<circle opacity="0.2388" fill="#EFF0F0" cx="112.379" cy="21.257" r="17.513"/>
			<circle opacity="0.2338" fill="#EFF0F0" cx="112.388" cy="21.267" r="17.513"/>
			<circle opacity="0.2289" fill="#F0F0F1" cx="112.396" cy="21.277" r="17.513"/>
			<circle opacity="0.2239" fill="#F0F0F1" cx="112.404" cy="21.288" r="17.513"/>
			<circle opacity="0.2189" fill="#F0F1F1" cx="112.412" cy="21.297" r="17.513"/>
			<circle opacity="0.2139" fill="#F0F1F1" cx="112.421" cy="21.307" r="17.513"/>
			<circle opacity="0.209" fill="#F1F1F2" cx="112.43" cy="21.318" r="17.513"/>
			<circle opacity="0.204" fill="#F1F1F2" cx="112.438" cy="21.328" r="17.513"/>
			<circle opacity="0.199" fill="#F1F2F2" cx="112.446" cy="21.338" r="17.513"/>
			<circle opacity="0.194" fill="#F1F2F2" cx="112.455" cy="21.348" r="17.513"/>
			<circle opacity="0.1891" fill="#F2F2F3" cx="112.463" cy="21.358" r="17.513"/>
			<circle opacity="0.1841" fill="#F2F2F3" cx="112.471" cy="21.368" r="17.513"/>
			<circle opacity="0.1791" fill="#F2F3F3" cx="112.479" cy="21.378" r="17.513"/>
			<circle opacity="0.1741" fill="#F2F3F3" cx="112.488" cy="21.388" r="17.513"/>
			<circle opacity="0.1692" fill="#F3F3F4" cx="112.496" cy="21.398" r="17.513"/>
			<circle opacity="0.1642" fill="#F3F3F4" cx="112.504" cy="21.408" r="17.513"/>
			<circle opacity="0.1592" fill="#F3F4F4" cx="112.513" cy="21.418" r="17.513"/>
			<circle opacity="0.1542" fill="#F4F4F4" cx="112.521" cy="21.428" r="17.513"/>
			<circle opacity="0.1493" fill="#F4F4F5" cx="112.529" cy="21.438" r="17.513"/>
			<circle opacity="0.1443" fill="#F4F4F5" cx="112.538" cy="21.449" r="17.513"/>
			<circle opacity="0.1393" fill="#F4F5F5" cx="112.546" cy="21.459" r="17.513"/>
			<circle opacity="0.1343" fill="#F5F5F5" cx="112.555" cy="21.469" r="17.513"/>
			<circle opacity="0.1294" fill="#F5F5F6" cx="112.563" cy="21.479" r="17.513"/>
			<circle opacity="0.1244" fill="#F5F6F6" cx="112.571" cy="21.489" r="17.513"/>
			<circle opacity="0.1194" fill="#F6F6F6" cx="112.58" cy="21.499" r="17.513"/>
			<circle opacity="0.1144" fill="#F6F6F7" cx="112.588" cy="21.509" r="17.513"/>
			<circle opacity="0.1095" fill="#F6F6F7" cx="112.597" cy="21.519" r="17.513"/>
			<circle opacity="0.1045" fill="#F6F7F7" cx="112.604" cy="21.529" r="17.513"/>
			<circle opacity="0.0995" fill="#F7F7F7" cx="112.613" cy="21.539" r="17.513"/>
			<circle opacity="0.0945" fill="#F7F7F8" cx="112.621" cy="21.55" r="17.513"/>
			<circle opacity="0.0896" fill="#F7F8F8" cx="112.63" cy="21.559" r="17.513"/>
			<circle opacity="0.0846" fill="#F8F8F8" cx="112.638" cy="21.57" r="17.513"/>
			<circle opacity="0.0796" fill="#F8F8F9" cx="112.646" cy="21.58" r="17.513"/>
			<circle opacity="0.0746" fill="#F8F9F9" cx="112.655" cy="21.59" r="17.513"/>
			<circle opacity="0.0697" fill="#F9F9F9" cx="112.663" cy="21.6" r="17.513"/>
			<circle opacity="0.0647" fill="#F9F9F9" cx="112.672" cy="21.61" r="17.513"/>
			<circle opacity="0.0597" fill="#F9FAFA" cx="112.68" cy="21.62" r="17.513"/>
			<circle opacity="0.0547" fill="#FAFAFA" cx="112.688" cy="21.63" r="17.513"/>
			<circle opacity="0.0498" fill="#FAFAFA" cx="112.697" cy="21.64" r="17.513"/>
			<circle opacity="0.0448" fill="#FBFBFB" cx="112.705" cy="21.65" r="17.513"/>
			<circle opacity="0.0398" fill="#FBFBFB" cx="112.714" cy="21.661" r="17.513"/>
			<circle opacity="0.0348" fill="#FBFCFC" cx="112.722" cy="21.67" r="17.513"/>
			<circle opacity="0.0299" fill="#FCFCFC" cx="112.73" cy="21.68" r="17.513"/>
			<circle opacity="0.0249" fill="#FCFCFD" cx="112.738" cy="21.69" r="17.513"/>
			<circle opacity="0.0199" fill="#FDFDFD" cx="112.747" cy="21.701" r="17.513"/>
			<circle opacity="0.0149" fill="#FDFDFD" cx="112.755" cy="21.711" r="17.513"/>
			<circle opacity="0.01" fill="#FEFEFE" cx="112.764" cy="21.721" r="17.513"/>
			<circle opacity="0.005" fill="#FEFEFE" cx="112.771" cy="21.73" r="17.513"/>
			<circle opacity="0" fill="#FFFFFF" cx="112.78" cy="21.74" r="17.513"/>
		</g>
	</g>
</g>
</svg>
