<?xml version="1.0" encoding="utf-8"?>
<!-- Generator: Adobe Illustrator 15.1.0, SVG Export Plug-In . SVG Version: 6.00 Build 0)  -->
<!DOCTYPE svg PUBLIC "-//W3C//DTD SVG 1.1//EN" "http://www.w3.org/Graphics/SVG/1.1/DTD/svg11.dtd">
<svg version="1.1" id="Layer_1" xmlns="http://www.w3.org/2000/svg" xmlns:xlink="http://www.w3.org/1999/xlink" x="0px" y="0px"
	 width="167.619px" height="28.829px" viewBox="0 0 167.619 28.829" enable-background="new 0 0 167.619 28.829"
	 xml:space="preserve">
<g>
	<path fill-rule="evenodd" clip-rule="evenodd" fill="#010101" d="M0,0v28.829h167.619V0H0z M117.05,26.509H2.301V2.316H117.05
		V26.509z"/>
	<path fill-rule="evenodd" clip-rule="evenodd" fill="#FFFFFF" d="M32.365,7.464l-1.839,1.588v11.517h3.153v-4.369h2.362v4.369
		h3.154V9.052l-1.842-1.588H32.365z M36.042,13.29H33.68v-3.048h2.362V13.29z M8.065,9.316v9.397l1.841,1.854h5.254v-2.912h-3.677
		v-7.281h3.677V7.464H9.906L8.065,9.316z M26.849,13.95V9.052l-2.364-1.588H18.31v13.104h3.418v-5.295l2.888,5.295h3.549
		l-3.153-5.429L26.849,13.95z M23.694,13.155h-1.837v-2.78h1.837V13.155z M90.817,7.464l-1.839,1.588v11.517h3.15v-4.369h2.368
		v4.369h3.15V9.052L95.81,7.464H90.817z M94.497,13.29h-2.368v-3.048h2.368V13.29z M79.259,11.963h-0.131l-1.839-4.499h-4.204
		v13.104h3.416v-7.677l1.967,4.633h1.447l1.973-4.633v7.677H85.3V7.464h-4.202L79.259,11.963z M107.106,7.464l-0.004,5.956h-0.259
		l-2.694-5.956h-3.084v13.104h3.412v-5.691h0.262l2.363,5.691h3.153V7.464H107.106z M51.28,10.641h2.758v9.928h3.416v-9.928h2.168
		l0.985-3.177h-8.344L51.28,10.641z M42.608,20.568h3.551v-4.634h2.693v-2.912h-2.693V10.51h3.021V7.464h-6.572V20.568z
		 M70.455,7.464h-7.746l-0.791,3.309l4.732,6.884h-4.732L61,20.568h8.472l0.983-3.044l-5.12-7.015h4.204L70.455,7.464z"/>
	<path fill-rule="evenodd" clip-rule="evenodd" fill="#FFFFFF" d="M163.301,10.281v-2.06h0.904c0.184,0,0.325,0.021,0.417,0.057
		c0.102,0.038,0.175,0.104,0.227,0.197c0.058,0.092,0.085,0.197,0.085,0.312c0,0.145-0.045,0.267-0.137,0.365
		c-0.092,0.103-0.239,0.164-0.434,0.191l0.158,0.102c0.086,0.076,0.158,0.165,0.226,0.275l0.359,0.56h-0.344l-0.273-0.429
		c-0.074-0.12-0.143-0.218-0.192-0.284l-0.135-0.138l-0.124-0.052l-0.15-0.012h-0.316v0.914 M163.571,9.131h0.583
		c0.127,0,0.228-0.011,0.294-0.034l0.159-0.125l0.049-0.184c0-0.1-0.034-0.181-0.099-0.243c-0.076-0.061-0.185-0.093-0.335-0.093
		h-0.651V9.131z M164.097,7.428L164.097,7.428c0.494,0,0.945,0.205,1.278,0.533c0.324,0.332,0.523,0.786,0.523,1.29v0.003
		c0,0.503-0.199,0.96-0.532,1.29c-0.324,0.329-0.775,0.535-1.27,0.535c-0.501,0-0.961-0.206-1.285-0.535
		c-0.328-0.33-0.525-0.787-0.525-1.29c0-0.507,0.197-0.961,0.525-1.293l0.166-0.147C163.286,7.568,163.67,7.428,164.097,7.428
		 M164.097,7.661v0.002c-0.367,0-0.71,0.126-0.979,0.334l-0.141,0.131c-0.285,0.289-0.46,0.684-0.46,1.126
		c0,0.438,0.175,0.835,0.46,1.121v0.003c0.284,0.286,0.678,0.467,1.119,0.467c0.425,0,0.825-0.181,1.108-0.467
		c0.287-0.289,0.461-0.687,0.461-1.124V9.251c0-0.439-0.174-0.834-0.461-1.123C164.922,7.841,164.521,7.661,164.097,7.661"/>
	<path fill="none" d="M164.097,7.661v0.002c-0.367,0-0.71,0.126-0.979,0.334l-0.141,0.131c-0.285,0.289-0.46,0.684-0.46,1.126
		c0,0.438,0.175,0.835,0.46,1.121v0.003c0.284,0.286,0.678,0.467,1.119,0.467c0.425,0,0.825-0.181,1.108-0.467
		c0.287-0.289,0.461-0.687,0.461-1.124V9.251c0-0.439-0.174-0.834-0.461-1.123C164.922,7.841,164.521,7.661,164.097,7.661z"/>
	<path fill="none" d="M164.097,7.426v0.002c0.494,0,0.945,0.205,1.278,0.533c0.324,0.332,0.523,0.786,0.523,1.29v0.003
		c0,0.503-0.199,0.96-0.532,1.29c-0.324,0.329-0.775,0.535-1.27,0.535c-0.501,0-0.961-0.206-1.285-0.535
		c-0.328-0.33-0.525-0.787-0.525-1.29c0-0.507,0.197-0.961,0.525-1.293l0.166-0.147C163.286,7.568,163.67,7.426,164.097,7.426z"/>
	<path fill="none" d="M163.571,9.131h0.583c0.127,0,0.228-0.011,0.294-0.034l0.159-0.125l0.049-0.184c0-0.1-0.034-0.181-0.099-0.243
		c-0.076-0.061-0.185-0.093-0.335-0.093h-0.651V9.131z"/>
	<path fill="none" d="M163.301,10.281v-2.06h0.904c0.184,0,0.325,0.021,0.417,0.057c0.1,0.038,0.175,0.104,0.227,0.197
		c0.058,0.092,0.083,0.197,0.083,0.312c0,0.145-0.043,0.267-0.135,0.365c-0.092,0.103-0.239,0.164-0.434,0.191l0.158,0.102
		c0.086,0.076,0.158,0.165,0.226,0.275l0.359,0.56h-0.344l-0.273-0.429c-0.074-0.12-0.143-0.218-0.192-0.284l-0.135-0.138
		l-0.124-0.052l-0.15-0.012h-0.316v0.914H163.301z"/>
	<g>
		<polygon fill="#FFFFFF" points="124.019,9.892 124.019,18.369 125.794,20.692 131.492,20.692 131.492,17.505 127.298,17.505 
			127.298,10.76 131.492,10.76 131.492,7.567 125.794,7.567 		"/>
		<path fill="#FFFFFF" d="M160.813,10.072l-2.187-2.505h-6.021v13.121h6.021l2.187-2.504v-3.179l-0.885-1.051l0.885-1.048V10.072z
			 M157.441,17.5h-1.897v-2.328h1.897V17.5z M157.441,13.085h-1.897V10.76h1.897V13.085z"/>
		<polygon fill="#FFFFFF" points="136.569,7.567 133.288,7.567 133.288,20.692 139.757,20.692 139.757,17.502 136.569,17.502 		"/>
		<polygon fill="#FFFFFF" points="146.636,17.505 144.788,17.505 144.788,7.567 141.439,7.567 141.439,18.369 143.443,20.692 
			148.004,20.692 150.009,18.369 150.009,7.567 146.636,7.567 		"/>
	</g>
</g>
</svg>
