<?xml version="1.0" encoding="utf-8"?>
<!-- Generator: Adobe Illustrator 15.1.0, SVG Export Plug-In . SVG Version: 6.00 Build 0)  -->
<!DOCTYPE svg PUBLIC "-//W3C//DTD SVG 1.1//EN" "http://www.w3.org/Graphics/SVG/1.1/DTD/svg11.dtd">
<svg version="1.1" id="Layer_1" xmlns="http://www.w3.org/2000/svg" xmlns:xlink="http://www.w3.org/1999/xlink" x="0px" y="0px"
	 width="576px" height="139.118px" viewBox="0 0 576 139.118" enable-background="new 0 0 576 139.118" xml:space="preserve">
<g id="Layer_1_1_">
</g>
<path fill="#FFFFFF" d="M542.21,49.561v-9.926h4.355c0.885,0,1.545,0.094,2.012,0.271c0.449,0.184,0.824,0.498,1.088,0.941
	c0.275,0.453,0.414,0.955,0.414,1.506c0,0.695-0.234,1.287-0.678,1.77c-0.457,0.488-1.15,0.791-2.104,0.922
	c0.35,0.17,0.604,0.328,0.787,0.496c0.381,0.348,0.744,0.787,1.088,1.316l1.707,2.703h-1.637l-1.297-2.068
	c-0.389-0.592-0.701-1.049-0.953-1.367c-0.234-0.316-0.453-0.533-0.654-0.66c-0.195-0.125-0.387-0.215-0.598-0.264
	c-0.148-0.033-0.388-0.053-0.722-0.053h-1.513v4.412L542.21,49.561L542.21,49.561z M543.511,44.016h2.799
	c0.598,0,1.066-0.062,1.398-0.18c0.34-0.131,0.594-0.326,0.762-0.598c0.182-0.277,0.264-0.57,0.264-0.885
	c0-0.479-0.162-0.863-0.51-1.16c-0.336-0.305-0.865-0.455-1.594-0.455h-3.119V44.016L543.511,44.016z M546.009,35.803
	L546.009,35.803v0.004c2.404,0,4.588,0.982,6.168,2.572c1.58,1.592,2.549,3.785,2.549,6.217h0.014V44.6l0,0h-0.014
	c0,2.43-0.975,4.631-2.559,6.223c-1.57,1.582-3.754,2.576-6.156,2.576l0,0h-0.002l0,0l0,0c-2.414,0-4.6-0.994-6.18-2.58l0,0
	c-1.58-1.588-2.555-3.789-2.555-6.219l0,0l0,0l0,0l0,0c0-2.436,0.975-4.631,2.555-6.223c0.26-0.254,0.529-0.502,0.82-0.721
	C542.126,36.491,543.989,35.803,546.009,35.803L546.009,35.803z M546.009,36.938v0.004l0,0c-1.756,0-3.379,0.604-4.674,1.609
	c-0.24,0.191-0.479,0.412-0.701,0.633c-1.375,1.387-2.223,3.303-2.223,5.416l0,0l0,0l0,0l0,0c0,2.113,0.848,4.025,2.223,5.408v0.01
	c1.373,1.387,3.27,2.244,5.375,2.244l0,0l0,0h0.002l0,0c2.092,0,3.99-0.857,5.369-2.244c1.373-1.387,2.227-3.305,2.227-5.418h-0.01
	l0,0v-0.004h0.01c-0.01-2.109-0.854-4.025-2.227-5.412C550.001,37.799,548.104,36.938,546.009,36.938L546.009,36.938z"/>
<path fill="#FFFFFF" d="M546.011,54.083c-2.512,0-4.879-0.986-6.666-2.781c-1.773-1.783-2.754-4.164-2.754-6.701
	s0.979-4.918,2.754-6.705c0.254-0.248,0.557-0.531,0.896-0.785c1.643-1.299,3.643-1.99,5.77-1.99l0.686,0.028
	c2.254,0.162,4.354,1.124,5.969,2.749c1.613,1.623,2.565,3.738,2.725,6.014h0.023l0.012,1.369h-0.033
	c-0.158,2.277-1.115,4.396-2.734,6.025C550.876,53.096,548.517,54.083,546.011,54.083z M541.938,50.245
	c1.175,0.865,2.587,1.334,4.071,1.334c1.479,0,2.891-0.469,4.064-1.334h-1.205l-1.5-2.387c-0.396-0.607-0.688-1.027-0.91-1.309
	c-0.246-0.332-0.406-0.459-0.481-0.506c-0.147-0.096-0.269-0.148-0.388-0.176c-0.041-0.01-0.192-0.035-0.564-0.035h-0.828v4.412
	L541.938,50.245L541.938,50.245z M541.317,49.729c0.066,0.064,0.139,0.127,0.209,0.188V39.284c-0.143,0.123-0.279,0.254-0.41,0.387
	c-1.303,1.312-2.021,3.064-2.021,4.93c0,1.863,0.721,3.613,2.023,4.928L541.317,49.729z M548.847,45.329
	c0.316,0.334,0.619,0.721,0.9,1.158l1.604,2.539c0.962-1.18,1.51-2.629,1.562-4.162l-0.002-0.576
	c-0.082-1.75-0.791-3.381-2.021-4.621c-1.252-1.26-2.891-1.979-4.639-2.041h-0.246c-1.473,0-2.873,0.459-4.066,1.326h4.625
	c0.963,0,1.699,0.104,2.256,0.318c0.607,0.246,1.1,0.67,1.432,1.229c0.336,0.555,0.51,1.182,0.51,1.855
	c0,0.863-0.289,1.613-0.855,2.232C549.616,44.895,549.267,45.141,548.847,45.329z M549.624,48.877h0.018l-1.045-1.654
	c-0.062-0.096-0.127-0.189-0.191-0.281c0.039,0.057,0.078,0.117,0.117,0.178L549.624,48.877z M544.194,43.333h2.113
	c0.641,0,0.988-0.076,1.168-0.141c0.256-0.098,0.357-0.227,0.41-0.312c0.111-0.172,0.16-0.336,0.16-0.525
	c0-0.287-0.08-0.479-0.27-0.643c-0.217-0.193-0.607-0.289-1.148-0.289h-2.436L544.194,43.333L544.194,43.333z"/>
<g>
	<path fill="#FFFFFF" d="M542.209,49.561v-9.926h4.355c0.885,0,1.545,0.094,2.012,0.271c0.449,0.184,0.824,0.498,1.088,0.941
		c0.275,0.453,0.414,0.955,0.414,1.506c0,0.695-0.234,1.287-0.678,1.77c-0.457,0.488-1.15,0.791-2.104,0.922
		c0.35,0.17,0.604,0.328,0.787,0.496c0.381,0.348,0.744,0.787,1.088,1.316l1.707,2.703h-1.637l-1.297-2.068
		c-0.389-0.592-0.701-1.049-0.953-1.367c-0.234-0.316-0.453-0.533-0.654-0.66c-0.195-0.125-0.387-0.215-0.598-0.264
		c-0.148-0.033-0.388-0.053-0.722-0.053h-1.513v4.412L542.209,49.561L542.209,49.561z M543.51,44.016h2.799
		c0.598,0,1.066-0.062,1.398-0.18c0.34-0.131,0.594-0.326,0.762-0.598c0.182-0.277,0.264-0.57,0.264-0.885
		c0-0.479-0.162-0.863-0.51-1.16c-0.336-0.305-0.865-0.455-1.594-0.455h-3.119V44.016L543.51,44.016z M546.008,35.803
		L546.008,35.803v0.004c2.404,0,4.588,0.982,6.168,2.572c1.58,1.592,2.549,3.785,2.549,6.217h0.014V44.6l0,0h-0.014
		c0,2.43-0.975,4.631-2.559,6.223c-1.57,1.582-3.754,2.576-6.156,2.576l0,0h-0.002l0,0l0,0c-2.414,0-4.6-0.994-6.18-2.58l0,0
		c-1.58-1.588-2.555-3.789-2.555-6.219l0,0l0,0l0,0l0,0c0-2.436,0.975-4.631,2.555-6.223c0.26-0.254,0.529-0.502,0.82-0.721
		C542.125,36.491,543.988,35.803,546.008,35.803L546.008,35.803z M546.008,36.938v0.004l0,0c-1.756,0-3.379,0.604-4.674,1.609
		c-0.24,0.191-0.479,0.412-0.701,0.633c-1.375,1.387-2.223,3.303-2.223,5.416l0,0l0,0l0,0l0,0c0,2.113,0.848,4.025,2.223,5.408v0.01
		c1.373,1.387,3.27,2.244,5.375,2.244l0,0l0,0h0.002l0,0c2.092,0,3.99-0.857,5.369-2.244c1.373-1.387,2.227-3.305,2.227-5.418h-0.01
		l0,0v-0.004h0.01c-0.01-2.109-0.854-4.025-2.227-5.412C550,37.799,548.103,36.938,546.008,36.938L546.008,36.938z"/>
	<path fill="#FFFFFF" d="M546.01,54.083c-2.512,0-4.879-0.986-6.666-2.781c-1.773-1.783-2.754-4.164-2.754-6.701
		s0.979-4.918,2.754-6.705c0.254-0.248,0.557-0.531,0.896-0.785c1.643-1.299,3.643-1.99,5.77-1.99l0.686,0.028
		c2.254,0.162,4.354,1.124,5.969,2.749c1.613,1.623,2.565,3.738,2.725,6.014h0.023l0.012,1.369h-0.033
		c-0.158,2.277-1.115,4.396-2.734,6.025C550.875,53.096,548.516,54.083,546.01,54.083z M541.937,50.245
		c1.175,0.865,2.587,1.334,4.071,1.334c1.479,0,2.891-0.469,4.064-1.334h-1.205l-1.5-2.387c-0.396-0.607-0.688-1.027-0.91-1.309
		c-0.246-0.332-0.406-0.459-0.481-0.506c-0.147-0.096-0.269-0.148-0.388-0.176c-0.041-0.01-0.192-0.035-0.564-0.035h-0.828v4.412
		L541.937,50.245L541.937,50.245z M541.316,49.729c0.066,0.064,0.139,0.127,0.209,0.188V39.284c-0.143,0.123-0.279,0.254-0.41,0.387
		c-1.303,1.312-2.021,3.064-2.021,4.93c0,1.863,0.721,3.613,2.023,4.928L541.316,49.729z M548.846,45.329
		c0.316,0.334,0.619,0.721,0.9,1.158l1.604,2.539c0.962-1.18,1.51-2.629,1.562-4.162l-0.002-0.576
		c-0.082-1.75-0.791-3.381-2.021-4.621c-1.252-1.26-2.891-1.979-4.639-2.041h-0.246c-1.473,0-2.873,0.459-4.066,1.326h4.625
		c0.963,0,1.699,0.104,2.256,0.318c0.607,0.246,1.1,0.67,1.432,1.229c0.336,0.555,0.51,1.182,0.51,1.855
		c0,0.863-0.289,1.613-0.855,2.232C549.615,44.895,549.266,45.141,548.846,45.329z M549.623,48.877h0.018l-1.045-1.654
		c-0.062-0.096-0.127-0.189-0.191-0.281c0.039,0.057,0.078,0.117,0.117,0.178L549.623,48.877z M544.193,43.333h2.113
		c0.641,0,0.988-0.076,1.168-0.141c0.256-0.098,0.357-0.227,0.41-0.312c0.111-0.172,0.16-0.336,0.16-0.525
		c0-0.287-0.08-0.479-0.27-0.643c-0.217-0.193-0.607-0.289-1.148-0.289h-2.436L544.193,43.333L544.193,43.333z"/>
	<path fill="#FFFFFF" d="M566.002,10v119.118H9.999V10H566.002 M576.002,0H-0.001v139.118h576.003V0L576.002,0z"/>
	<g>
		<path fill="#FFFFFF" d="M155.499,36.454l-8.883,7.68v55.65h15.234V78.672h11.425v21.109h15.234V44.133l-8.891-7.679H155.499z
			 M173.249,64.559h-11.5v-14.75h11.5V64.559z"/>
		<path fill="#FFFFFF" d="M128.847,67.797V44.133l-11.425-7.68H87.584v63.329h16.51V74.194l13.96,25.588h17.136l-15.23-26.23
			L128.847,67.797z M113.613,63.96h-8.881V50.528h8.881V63.96z"/>
		<polygon fill="#FFFFFF" points="205.002,99.782 222.151,99.782 222.151,77.394 235.156,77.394 235.156,63.321 222.151,63.321 
			222.151,51.17 236.742,51.17 236.742,36.454 205.001,36.454 		"/>
		<polygon fill="#FFFFFF" points="38.082,45.417 38.082,90.825 46.969,99.784 72.361,99.784 72.361,85.708 54.588,85.708 
			54.588,50.528 72.361,50.528 72.361,36.454 46.969,36.454 		"/>
		<polygon fill="#FFFFFF" points="382.091,58.198 381.462,58.198 372.575,36.454 352.263,36.454 352.263,99.782 368.765,99.782 
			368.765,62.678 378.285,85.067 385.269,85.067 394.793,62.678 394.793,99.782 411.293,99.782 411.293,36.454 390.981,36.454 		"/>
		<polygon fill="#FFFFFF" points="246.901,51.799 260.231,51.799 260.231,99.782 276.731,99.782 276.731,51.799 287.204,51.799 
			291.964,36.453 251.656,36.453 		"/>
		<polygon fill="#FFFFFF" points="516.659,36.454 516.651,65.241 515.382,65.241 502.366,36.454 487.452,36.454 487.452,99.782 
			487.453,99.782 503.957,99.782 503.957,72.272 505.223,72.272 516.652,99.782 531.881,99.782 531.881,36.454 		"/>
		<polygon fill="#FFFFFF" points="339.565,36.453 302.123,36.453 298.306,52.445 321.172,85.708 298.306,85.708 293.873,99.782 
			334.81,99.782 339.565,85.067 314.817,51.17 335.129,51.17 		"/>
		<path fill="#FFFFFF" d="M462.07,36.454h-24.123l-8.879,7.676v55.654h15.225V78.672h11.43v21.109h15.227V44.129L462.07,36.454z
			 M455.724,64.518h-11.43V49.809h11.43V64.518z"/>
	</g>
</g>
</svg>
