<svg version="1.1" id="search-icon" xmlns="http://www.w3.org/2000/svg" xmlns:xlink="http://www.w3.org/1999/xlink" x="0px" y="0px"
	 width="50px" height="50px" viewBox="0 0 50 50" enable-background="new 0 0 50 50" xml:space="preserve">
<g>
	<path d="M47.921,41.609L36.441,30.13c1.731-2.845,2.729-6.184,2.729-9.757C39.17,9.994,30.175,1,19.794,1
		C9.415,1,1,9.415,1,19.795c0,10.379,8.994,19.374,19.373,19.374c3.451,0,6.684-0.936,9.463-2.559l11.542,11.542
		c1.13,1.13,2.96,1.13,4.09,0l2.863-2.861C49.461,44.161,49.051,42.739,47.921,41.609z M6.784,19.795
		c0-7.188,5.825-13.013,13.01-13.013c7.188,0,13.592,6.403,13.592,13.59c0,7.187-5.826,13.013-13.013,13.013
		C13.188,33.386,6.784,26.981,6.784,19.795z"/>
</g>
</svg>
